%TF.GenerationSoftware,KiCad,Pcbnew,8.0.6*%
%TF.CreationDate,2024-11-22T20:17:50-05:00*%
%TF.ProjectId,exosuit_modular_board,65786f73-7569-4745-9f6d-6f64756c6172,rev?*%
%TF.SameCoordinates,Original*%
%TF.FileFunction,Soldermask,Bot*%
%TF.FilePolarity,Negative*%
%FSLAX46Y46*%
G04 Gerber Fmt 4.6, Leading zero omitted, Abs format (unit mm)*
G04 Created by KiCad (PCBNEW 8.0.6) date 2024-11-22 20:17:50*
%MOMM*%
%LPD*%
G01*
G04 APERTURE LIST*
G04 Aperture macros list*
%AMRoundRect*
0 Rectangle with rounded corners*
0 $1 Rounding radius*
0 $2 $3 $4 $5 $6 $7 $8 $9 X,Y pos of 4 corners*
0 Add a 4 corners polygon primitive as box body*
4,1,4,$2,$3,$4,$5,$6,$7,$8,$9,$2,$3,0*
0 Add four circle primitives for the rounded corners*
1,1,$1+$1,$2,$3*
1,1,$1+$1,$4,$5*
1,1,$1+$1,$6,$7*
1,1,$1+$1,$8,$9*
0 Add four rect primitives between the rounded corners*
20,1,$1+$1,$2,$3,$4,$5,0*
20,1,$1+$1,$4,$5,$6,$7,0*
20,1,$1+$1,$6,$7,$8,$9,0*
20,1,$1+$1,$8,$9,$2,$3,0*%
G04 Aperture macros list end*
%ADD10O,2.601600X1.801600*%
%ADD11O,2.301600X2.301600*%
%ADD12C,1.270000*%
%ADD13O,1.676400X1.676400*%
%ADD14O,1.801600X1.801600*%
%ADD15RoundRect,0.050800X0.787400X0.787400X-0.787400X0.787400X-0.787400X-0.787400X0.787400X-0.787400X0*%
%ADD16RoundRect,0.102000X-0.900000X-0.900000X0.900000X-0.900000X0.900000X0.900000X-0.900000X0.900000X0*%
%ADD17C,2.004000*%
%ADD18C,1.498600*%
%ADD19R,3.500000X3.500000*%
%ADD20RoundRect,0.750000X-1.000000X0.750000X-1.000000X-0.750000X1.000000X-0.750000X1.000000X0.750000X0*%
%ADD21RoundRect,0.875000X-0.875000X0.875000X-0.875000X-0.875000X0.875000X-0.875000X0.875000X0.875000X0*%
G04 APERTURE END LIST*
D10*
%TO.C,*%
X206901957Y-105425000D03*
%TD*%
D11*
%TO.C,*%
X355093000Y-101326000D03*
%TD*%
D12*
%TO.C,J7s1*%
X310903085Y-123684000D03*
X312903086Y-123684000D03*
X314903085Y-123684000D03*
X316903086Y-123684000D03*
X318903084Y-123684000D03*
X320903085Y-123684000D03*
%TD*%
D13*
%TO.C,H1*%
X143303915Y-101700000D03*
D14*
X143303915Y-104240000D03*
X140763915Y-101700000D03*
X140763915Y-104240000D03*
X138223915Y-101700000D03*
X138223915Y-104240000D03*
X135683915Y-101700000D03*
X135683915Y-104240000D03*
X133143915Y-101700000D03*
X133143915Y-104240000D03*
%TD*%
D11*
%TO.C,*%
X186200957Y-101361000D03*
%TD*%
D10*
%TO.C,Pad_gge5124*%
X150542915Y-105510000D03*
%TD*%
%TO.C,*%
X235290015Y-105425000D03*
%TD*%
D13*
%TO.C,H5*%
X256133858Y-101615000D03*
D14*
X256133858Y-104155000D03*
X253593858Y-101615000D03*
X253593858Y-104155000D03*
X251053858Y-101615000D03*
X251053858Y-104155000D03*
X248513858Y-101615000D03*
X248513858Y-104155000D03*
X245973858Y-101615000D03*
X245973858Y-104155000D03*
%TD*%
D11*
%TO.C,*%
X208806957Y-118887000D03*
%TD*%
D10*
%TO.C,*%
X347444000Y-105390000D03*
%TD*%
D11*
%TO.C,*%
X298620000Y-101355000D03*
%TD*%
%TO.C,*%
X293277858Y-118887000D03*
%TD*%
D15*
%TO.C,P4*%
X225511015Y-119268000D03*
D13*
X222971015Y-119268000D03*
X220431015Y-119268000D03*
%TD*%
D16*
%TO.C,U10*%
X390471085Y-81230000D03*
D17*
X390471085Y-83770000D03*
X390471085Y-86310000D03*
X390471085Y-88850000D03*
X390471085Y-91390000D03*
X390471085Y-93930000D03*
X390471085Y-96470000D03*
X405711085Y-96470000D03*
X405711085Y-93930000D03*
X405711085Y-91390000D03*
X405711085Y-88850000D03*
X405711085Y-86310000D03*
X405711085Y-83770000D03*
X405711085Y-81230000D03*
%TD*%
D15*
%TO.C,P9*%
X366015000Y-119233000D03*
D13*
X363475000Y-119233000D03*
X360935000Y-119233000D03*
%TD*%
D10*
%TO.C,*%
X178487915Y-110378000D03*
%TD*%
D13*
%TO.C,H7*%
X312082000Y-101609000D03*
D14*
X312082000Y-104149000D03*
X309542000Y-101609000D03*
X309542000Y-104149000D03*
X307002000Y-101609000D03*
X307002000Y-104149000D03*
X304462000Y-101609000D03*
X304462000Y-104149000D03*
X301922000Y-101609000D03*
X301922000Y-104149000D03*
%TD*%
D18*
%TO.C,J5m1*%
X249425043Y-123269900D03*
X246925043Y-123269900D03*
X244425043Y-123269900D03*
%TD*%
D10*
%TO.C,*%
X375794000Y-110343000D03*
%TD*%
D11*
%TO.C,*%
X180392915Y-101488000D03*
%TD*%
%TO.C,*%
X242671858Y-119014000D03*
%TD*%
D10*
%TO.C,*%
X347444000Y-110343000D03*
%TD*%
D15*
%TO.C,P8*%
X337665000Y-119233000D03*
D13*
X335125000Y-119233000D03*
X332585000Y-119233000D03*
%TD*%
D11*
%TO.C,*%
X157786915Y-101361000D03*
%TD*%
D12*
%TO.C,J1s1*%
X142125000Y-123775000D03*
X144125001Y-123775000D03*
X146125000Y-123775000D03*
X148125001Y-123775000D03*
X150124999Y-123775000D03*
X152125000Y-123775000D03*
%TD*%
D16*
%TO.C,U1*%
X136705000Y-81380000D03*
D17*
X136705000Y-83920000D03*
X136705000Y-86460000D03*
X136705000Y-89000000D03*
X136705000Y-91540000D03*
X136705000Y-94080000D03*
X136705000Y-96620000D03*
X151945000Y-96620000D03*
X151945000Y-94080000D03*
X151945000Y-91540000D03*
X151945000Y-89000000D03*
X151945000Y-86460000D03*
X151945000Y-83920000D03*
X151945000Y-81380000D03*
%TD*%
D16*
%TO.C,U8*%
X333606085Y-81260000D03*
D17*
X333606085Y-83800000D03*
X333606085Y-86340000D03*
X333606085Y-88880000D03*
X333606085Y-91420000D03*
X333606085Y-93960000D03*
X333606085Y-96500000D03*
X348846085Y-96500000D03*
X348846085Y-93960000D03*
X348846085Y-91420000D03*
X348846085Y-88880000D03*
X348846085Y-86340000D03*
X348846085Y-83800000D03*
X348846085Y-81260000D03*
%TD*%
D11*
%TO.C,*%
X186200957Y-119014000D03*
%TD*%
D16*
%TO.C,U5*%
X249534943Y-81295000D03*
D17*
X249534943Y-83835000D03*
X249534943Y-86375000D03*
X249534943Y-88915000D03*
X249534943Y-91455000D03*
X249534943Y-93995000D03*
X249534943Y-96535000D03*
X264774943Y-96535000D03*
X264774943Y-93995000D03*
X264774943Y-91455000D03*
X264774943Y-88915000D03*
X264774943Y-86375000D03*
X264774943Y-83835000D03*
X264774943Y-81295000D03*
%TD*%
D12*
%TO.C,J2s1*%
X170070000Y-123690000D03*
X172070001Y-123690000D03*
X174070000Y-123690000D03*
X176070001Y-123690000D03*
X178069999Y-123690000D03*
X180070000Y-123690000D03*
%TD*%
D10*
%TO.C,Pad_gge5154*%
X150542915Y-110463000D03*
%TD*%
%TO.C,*%
X404309000Y-105360000D03*
%TD*%
D18*
%TO.C,J9m1*%
X361846185Y-123234900D03*
X359346185Y-123234900D03*
X356846185Y-123234900D03*
%TD*%
%TO.C,J1m1*%
X136595100Y-123354900D03*
X134095100Y-123354900D03*
X131595100Y-123354900D03*
%TD*%
D19*
%TO.C,BJ1*%
X129825000Y-91450000D03*
D20*
X129825000Y-85450000D03*
D21*
X125125000Y-88450000D03*
%TD*%
D11*
%TO.C,*%
X270671858Y-101361000D03*
%TD*%
%TO.C,*%
X321226000Y-118881000D03*
%TD*%
D12*
%TO.C,J9s1*%
X367376085Y-123655000D03*
X369376086Y-123655000D03*
X371376085Y-123655000D03*
X373376086Y-123655000D03*
X375376084Y-123655000D03*
X377376085Y-123655000D03*
%TD*%
D11*
%TO.C,Pad_gge7437*%
X152447915Y-101573000D03*
%TD*%
D15*
%TO.C,P5*%
X253593858Y-119268000D03*
D13*
X251053858Y-119268000D03*
X248513858Y-119268000D03*
%TD*%
D11*
%TO.C,*%
X321226000Y-101482000D03*
%TD*%
D15*
%TO.C,P2*%
X168708915Y-119268000D03*
D13*
X166168915Y-119268000D03*
X163628915Y-119268000D03*
%TD*%
D12*
%TO.C,J5s1*%
X254954943Y-123690000D03*
X256954944Y-123690000D03*
X258954943Y-123690000D03*
X260954944Y-123690000D03*
X262954942Y-123690000D03*
X264954943Y-123690000D03*
%TD*%
D10*
%TO.C,*%
X319321000Y-105419000D03*
%TD*%
D15*
%TO.C,P10*%
X394530000Y-119203000D03*
D13*
X391990000Y-119203000D03*
X389450000Y-119203000D03*
%TD*%
D10*
%TO.C,*%
X263372858Y-105425000D03*
%TD*%
D18*
%TO.C,J8m1*%
X333496185Y-123234900D03*
X330996185Y-123234900D03*
X328496185Y-123234900D03*
%TD*%
D11*
%TO.C,*%
X180392915Y-118887000D03*
%TD*%
D10*
%TO.C,*%
X319321000Y-110372000D03*
%TD*%
D13*
%TO.C,H4*%
X228051015Y-101615000D03*
D14*
X228051015Y-104155000D03*
X225511015Y-101615000D03*
X225511015Y-104155000D03*
X222971015Y-101615000D03*
X222971015Y-104155000D03*
X220431015Y-101615000D03*
X220431015Y-104155000D03*
X217891015Y-101615000D03*
X217891015Y-104155000D03*
%TD*%
D11*
%TO.C,*%
X326743000Y-118979000D03*
%TD*%
%TO.C,*%
X208806957Y-101488000D03*
%TD*%
D15*
%TO.C,P6*%
X281593858Y-119268000D03*
D13*
X279053858Y-119268000D03*
X276513858Y-119268000D03*
%TD*%
D18*
%TO.C,J2m1*%
X164540100Y-123269900D03*
X162040100Y-123269900D03*
X159540100Y-123269900D03*
%TD*%
D11*
%TO.C,*%
X237195015Y-118887000D03*
%TD*%
D13*
%TO.C,H3*%
X199662957Y-101615000D03*
D14*
X199662957Y-104155000D03*
X197122957Y-101615000D03*
X197122957Y-104155000D03*
X194582957Y-101615000D03*
X194582957Y-104155000D03*
X192042957Y-101615000D03*
X192042957Y-104155000D03*
X189502957Y-101615000D03*
X189502957Y-104155000D03*
%TD*%
D12*
%TO.C,J6s1*%
X282954943Y-123690000D03*
X284954944Y-123690000D03*
X286954943Y-123690000D03*
X288954944Y-123690000D03*
X290954942Y-123690000D03*
X292954943Y-123690000D03*
%TD*%
D11*
%TO.C,Pad_gge5250*%
X152447915Y-118972000D03*
%TD*%
%TO.C,*%
X298620000Y-119008000D03*
%TD*%
%TO.C,*%
X214589015Y-119014000D03*
%TD*%
%TO.C,*%
X349349000Y-101453000D03*
%TD*%
D18*
%TO.C,J6m1*%
X277425043Y-123269900D03*
X274925043Y-123269900D03*
X272425043Y-123269900D03*
%TD*%
D13*
%TO.C,H6*%
X284133858Y-101615000D03*
D14*
X284133858Y-104155000D03*
X281593858Y-101615000D03*
X281593858Y-104155000D03*
X279053858Y-101615000D03*
X279053858Y-104155000D03*
X276513858Y-101615000D03*
X276513858Y-104155000D03*
X273973858Y-101615000D03*
X273973858Y-104155000D03*
%TD*%
D10*
%TO.C,*%
X235290015Y-110378000D03*
%TD*%
D12*
%TO.C,J4s1*%
X226872100Y-123690000D03*
X228872101Y-123690000D03*
X230872100Y-123690000D03*
X232872101Y-123690000D03*
X234872099Y-123690000D03*
X236872100Y-123690000D03*
%TD*%
%TO.C,J10s1*%
X395891085Y-123625000D03*
X397891086Y-123625000D03*
X399891085Y-123625000D03*
X401891086Y-123625000D03*
X403891084Y-123625000D03*
X405891085Y-123625000D03*
%TD*%
D18*
%TO.C,J3m1*%
X192954142Y-123269900D03*
X190454142Y-123269900D03*
X187954142Y-123269900D03*
%TD*%
D11*
%TO.C,*%
X383608000Y-101296000D03*
%TD*%
D15*
%TO.C,P1*%
X140763915Y-119353000D03*
D13*
X138223915Y-119353000D03*
X135683915Y-119353000D03*
%TD*%
D16*
%TO.C,U6*%
X277534943Y-81295000D03*
D17*
X277534943Y-83835000D03*
X277534943Y-86375000D03*
X277534943Y-88915000D03*
X277534943Y-91455000D03*
X277534943Y-93995000D03*
X277534943Y-96535000D03*
X292774943Y-96535000D03*
X292774943Y-93995000D03*
X292774943Y-91455000D03*
X292774943Y-88915000D03*
X292774943Y-86375000D03*
X292774943Y-83835000D03*
X292774943Y-81295000D03*
%TD*%
D16*
%TO.C,U3*%
X193064042Y-81295000D03*
D17*
X193064042Y-83835000D03*
X193064042Y-86375000D03*
X193064042Y-88915000D03*
X193064042Y-91455000D03*
X193064042Y-93995000D03*
X193064042Y-96535000D03*
X208304042Y-96535000D03*
X208304042Y-93995000D03*
X208304042Y-91455000D03*
X208304042Y-88915000D03*
X208304042Y-86375000D03*
X208304042Y-83835000D03*
X208304042Y-81295000D03*
%TD*%
D10*
%TO.C,*%
X291372858Y-110378000D03*
%TD*%
%TO.C,*%
X404309000Y-110313000D03*
%TD*%
D11*
%TO.C,*%
X265277858Y-101488000D03*
%TD*%
%TO.C,*%
X377699000Y-101453000D03*
%TD*%
%TO.C,*%
X326743000Y-101326000D03*
%TD*%
%TO.C,*%
X214589015Y-101361000D03*
%TD*%
%TO.C,*%
X293277858Y-101488000D03*
%TD*%
D13*
%TO.C,H10*%
X397070000Y-101550000D03*
D14*
X397070000Y-104090000D03*
X394530000Y-101550000D03*
X394530000Y-104090000D03*
X391990000Y-101550000D03*
X391990000Y-104090000D03*
X389450000Y-101550000D03*
X389450000Y-104090000D03*
X386910000Y-101550000D03*
X386910000Y-104090000D03*
%TD*%
D10*
%TO.C,*%
X206901957Y-110378000D03*
%TD*%
D16*
%TO.C,U7*%
X305483085Y-81289000D03*
D17*
X305483085Y-83829000D03*
X305483085Y-86369000D03*
X305483085Y-88909000D03*
X305483085Y-91449000D03*
X305483085Y-93989000D03*
X305483085Y-96529000D03*
X320723085Y-96529000D03*
X320723085Y-93989000D03*
X320723085Y-91449000D03*
X320723085Y-88909000D03*
X320723085Y-86369000D03*
X320723085Y-83829000D03*
X320723085Y-81289000D03*
%TD*%
D12*
%TO.C,J8s1*%
X339026085Y-123655000D03*
X341026086Y-123655000D03*
X343026085Y-123655000D03*
X345026086Y-123655000D03*
X347026084Y-123655000D03*
X349026085Y-123655000D03*
%TD*%
D11*
%TO.C,*%
X383608000Y-118949000D03*
%TD*%
%TO.C,*%
X242671858Y-101361000D03*
%TD*%
%TO.C,*%
X406214000Y-118822000D03*
%TD*%
D18*
%TO.C,J10m1*%
X390361185Y-123204900D03*
X387861185Y-123204900D03*
X385361185Y-123204900D03*
%TD*%
D11*
%TO.C,*%
X237195015Y-101488000D03*
%TD*%
D18*
%TO.C,J4m1*%
X221342200Y-123269900D03*
X218842200Y-123269900D03*
X216342200Y-123269900D03*
%TD*%
D16*
%TO.C,U9*%
X361956085Y-81260000D03*
D17*
X361956085Y-83800000D03*
X361956085Y-86340000D03*
X361956085Y-88880000D03*
X361956085Y-91420000D03*
X361956085Y-93960000D03*
X361956085Y-96500000D03*
X377196085Y-96500000D03*
X377196085Y-93960000D03*
X377196085Y-91420000D03*
X377196085Y-88880000D03*
X377196085Y-86340000D03*
X377196085Y-83800000D03*
X377196085Y-81260000D03*
%TD*%
D13*
%TO.C,H9*%
X368555000Y-101580000D03*
D14*
X368555000Y-104120000D03*
X366015000Y-101580000D03*
X366015000Y-104120000D03*
X363475000Y-101580000D03*
X363475000Y-104120000D03*
X360935000Y-101580000D03*
X360935000Y-104120000D03*
X358395000Y-101580000D03*
X358395000Y-104120000D03*
%TD*%
D11*
%TO.C,Pad_gge5349*%
X129841915Y-119099000D03*
%TD*%
D10*
%TO.C,*%
X263372858Y-110378000D03*
%TD*%
D11*
%TO.C,*%
X270671858Y-119014000D03*
%TD*%
D16*
%TO.C,U2*%
X164650000Y-81295000D03*
D17*
X164650000Y-83835000D03*
X164650000Y-86375000D03*
X164650000Y-88915000D03*
X164650000Y-91455000D03*
X164650000Y-93995000D03*
X164650000Y-96535000D03*
X179890000Y-96535000D03*
X179890000Y-93995000D03*
X179890000Y-91455000D03*
X179890000Y-88915000D03*
X179890000Y-86375000D03*
X179890000Y-83835000D03*
X179890000Y-81295000D03*
%TD*%
D10*
%TO.C,*%
X291372858Y-105425000D03*
%TD*%
D11*
%TO.C,*%
X265277858Y-118887000D03*
%TD*%
%TO.C,*%
X157786915Y-119014000D03*
%TD*%
%TO.C,*%
X377699000Y-118852000D03*
%TD*%
D10*
%TO.C,*%
X178487915Y-105425000D03*
%TD*%
D13*
%TO.C,H8*%
X340205000Y-101580000D03*
D14*
X340205000Y-104120000D03*
X337665000Y-101580000D03*
X337665000Y-104120000D03*
X335125000Y-101580000D03*
X335125000Y-104120000D03*
X332585000Y-101580000D03*
X332585000Y-104120000D03*
X330045000Y-101580000D03*
X330045000Y-104120000D03*
%TD*%
D11*
%TO.C,*%
X355093000Y-118979000D03*
%TD*%
D15*
%TO.C,P3*%
X197122957Y-119268000D03*
D13*
X194582957Y-119268000D03*
X192042957Y-119268000D03*
%TD*%
D10*
%TO.C,*%
X375794000Y-105390000D03*
%TD*%
D15*
%TO.C,P7*%
X309542000Y-119262000D03*
D13*
X307002000Y-119262000D03*
X304462000Y-119262000D03*
%TD*%
%TO.C,H2*%
X171248915Y-101615000D03*
D14*
X171248915Y-104155000D03*
X168708915Y-101615000D03*
X168708915Y-104155000D03*
X166168915Y-101615000D03*
X166168915Y-104155000D03*
X163628915Y-101615000D03*
X163628915Y-104155000D03*
X161088915Y-101615000D03*
X161088915Y-104155000D03*
%TD*%
D12*
%TO.C,J3s1*%
X198484042Y-123690000D03*
X200484043Y-123690000D03*
X202484042Y-123690000D03*
X204484043Y-123690000D03*
X206484041Y-123690000D03*
X208484042Y-123690000D03*
%TD*%
D11*
%TO.C,*%
X349349000Y-118852000D03*
%TD*%
D18*
%TO.C,J7m1*%
X305373185Y-123263900D03*
X302873185Y-123263900D03*
X300373185Y-123263900D03*
%TD*%
D16*
%TO.C,U4*%
X221452100Y-81295000D03*
D17*
X221452100Y-83835000D03*
X221452100Y-86375000D03*
X221452100Y-88915000D03*
X221452100Y-91455000D03*
X221452100Y-93995000D03*
X221452100Y-96535000D03*
X236692100Y-96535000D03*
X236692100Y-93995000D03*
X236692100Y-91455000D03*
X236692100Y-88915000D03*
X236692100Y-86375000D03*
X236692100Y-83835000D03*
X236692100Y-81295000D03*
%TD*%
D11*
%TO.C,*%
X406214000Y-101423000D03*
%TD*%
M02*
