M48
; DRILL file {KiCad 8.0.6} date 2024-11-22T20:17:52-0500
; FORMAT={-:-/ absolute / inch / decimal}
; #@! TF.CreationDate,2024-11-22T20:17:52-05:00
; #@! TF.GenerationSoftware,Kicad,Pcbnew,8.0.6
; #@! TF.FileFunction,Plated,1,2,PTH
FMAT,2
INCH
; #@! TA.AperFunction,Plated,PTH,ComponentDrill
T1C0.0300
; #@! TA.AperFunction,Plated,PTH,ComponentDrill
T2C0.0390
; #@! TA.AperFunction,Plated,PTH,ComponentDrill
T3C0.0394
; #@! TA.AperFunction,Plated,PTH,ComponentDrill
T4C0.0402
; #@! TA.AperFunction,Plated,PTH,ComponentDrill
T5C0.0433
; #@! TA.AperFunction,Plated,PTH,ComponentDrill
T6C0.0472
; #@! TA.AperFunction,Plated,PTH,ComponentDrill
T7C0.0787
%
G90
G05
T1
X5.5955Y-4.873
X5.6742Y-4.873
X5.753Y-4.873
X5.8317Y-4.873
X5.9104Y-4.873
X5.9892Y-4.873
X6.6957Y-4.8697
X6.7744Y-4.8697
X6.8531Y-4.8697
X6.9319Y-4.8697
X7.0106Y-4.8697
X7.0894Y-4.8697
X7.8143Y-4.8697
X7.8931Y-4.8697
X7.9718Y-4.8697
X8.0506Y-4.8697
X8.1293Y-4.8697
X8.208Y-4.8697
X8.932Y-4.8697
X9.0107Y-4.8697
X9.0895Y-4.8697
X9.1682Y-4.8697
X9.2469Y-4.8697
X9.3257Y-4.8697
X10.0376Y-4.8697
X10.1163Y-4.8697
X10.1951Y-4.8697
X10.2738Y-4.8697
X10.3526Y-4.8697
X10.4313Y-4.8697
X11.14Y-4.8697
X11.2187Y-4.8697
X11.2974Y-4.8697
X11.3762Y-4.8697
X11.4549Y-4.8697
X11.5337Y-4.8697
X12.2403Y-4.8694
X12.319Y-4.8694
X12.3978Y-4.8694
X12.4765Y-4.8694
X12.5552Y-4.8694
X12.634Y-4.8694
X13.3475Y-4.8683
X13.4262Y-4.8683
X13.505Y-4.8683
X13.5837Y-4.8683
X13.6624Y-4.8683
X13.7412Y-4.8683
X14.4636Y-4.8683
X14.5424Y-4.8683
X14.6211Y-4.8683
X14.6998Y-4.8683
X14.7786Y-4.8683
X14.8573Y-4.8683
X15.5863Y-4.8671
X15.665Y-4.8671
X15.7437Y-4.8671
X15.8225Y-4.8671
X15.9012Y-4.8671
X15.98Y-4.8671
T2
X5.1809Y-4.8565
X5.2793Y-4.8565
X5.3778Y-4.8565
X6.2811Y-4.8531
X6.3795Y-4.8531
X6.478Y-4.8531
X7.3998Y-4.8531
X7.4982Y-4.8531
X7.5966Y-4.8531
X8.5174Y-4.8531
X8.6158Y-4.8531
X8.7143Y-4.8531
X9.623Y-4.8531
X9.7215Y-4.8531
X9.8199Y-4.8531
X10.7254Y-4.8531
X10.8238Y-4.8531
X10.9222Y-4.8531
X11.8257Y-4.8529
X11.9241Y-4.8529
X12.0226Y-4.8529
X12.9329Y-4.8518
X13.0313Y-4.8518
X13.1298Y-4.8518
X14.0491Y-4.8518
X14.1475Y-4.8518
X14.2459Y-4.8518
X15.1717Y-4.8506
X15.2701Y-4.8506
X15.3686Y-4.8506
T4
X5.3419Y-4.6989
X5.4419Y-4.6989
X5.5419Y-4.6989
X6.4421Y-4.6956
X6.5421Y-4.6956
X6.6421Y-4.6956
X7.5607Y-4.6956
X7.6607Y-4.6956
X7.7607Y-4.6956
X8.6784Y-4.6956
X8.7784Y-4.6956
X8.8784Y-4.6956
X9.784Y-4.6956
X9.884Y-4.6956
X9.984Y-4.6956
X10.8864Y-4.6956
X10.9864Y-4.6956
X11.0864Y-4.6956
X11.9867Y-4.6954
X12.0867Y-4.6954
X12.1867Y-4.6954
X13.0939Y-4.6942
X13.1939Y-4.6942
X13.2939Y-4.6942
X14.21Y-4.6942
X14.31Y-4.6942
X14.41Y-4.6942
X15.3327Y-4.693
X15.4327Y-4.693
X15.5327Y-4.693
T5
X5.2419Y-4.0039
X5.2419Y-4.1039
X5.3419Y-4.0039
X5.3419Y-4.1039
X5.4419Y-4.0039
X5.4419Y-4.1039
X5.5419Y-4.0039
X5.5419Y-4.1039
X5.6419Y-4.0039
X5.6419Y-4.1039
X5.9269Y-4.1539
X5.9269Y-4.3489
X6.3421Y-4.0006
X6.3421Y-4.1006
X6.4421Y-4.0006
X6.4421Y-4.1006
X6.5421Y-4.0006
X6.5421Y-4.1006
X6.6421Y-4.0006
X6.6421Y-4.1006
X6.7421Y-4.0006
X6.7421Y-4.1006
X7.0271Y-4.1506
X7.0271Y-4.3456
X7.4607Y-4.0006
X7.4607Y-4.1006
X7.5607Y-4.0006
X7.5607Y-4.1006
X7.6607Y-4.0006
X7.6607Y-4.1006
X7.7607Y-4.0006
X7.7607Y-4.1006
X7.8607Y-4.0006
X7.8607Y-4.1006
X8.1457Y-4.1506
X8.1457Y-4.3456
X8.5784Y-4.0006
X8.5784Y-4.1006
X8.6784Y-4.0006
X8.6784Y-4.1006
X8.7784Y-4.0006
X8.7784Y-4.1006
X8.8784Y-4.0006
X8.8784Y-4.1006
X8.9784Y-4.0006
X8.9784Y-4.1006
X9.2634Y-4.1506
X9.2634Y-4.3456
X9.684Y-4.0006
X9.684Y-4.1006
X9.784Y-4.0006
X9.784Y-4.1006
X9.884Y-4.0006
X9.884Y-4.1006
X9.984Y-4.0006
X9.984Y-4.1006
X10.084Y-4.0006
X10.084Y-4.1006
X10.369Y-4.1506
X10.369Y-4.3456
X10.7864Y-4.0006
X10.7864Y-4.1006
X10.8864Y-4.0006
X10.8864Y-4.1006
X10.9864Y-4.0006
X10.9864Y-4.1006
X11.0864Y-4.0006
X11.0864Y-4.1006
X11.1864Y-4.0006
X11.1864Y-4.1006
X11.4714Y-4.1506
X11.4714Y-4.3456
X11.8867Y-4.0004
X11.8867Y-4.1004
X11.9867Y-4.0004
X11.9867Y-4.1004
X12.0867Y-4.0004
X12.0867Y-4.1004
X12.1867Y-4.0004
X12.1867Y-4.1004
X12.2867Y-4.0004
X12.2867Y-4.1004
X12.5717Y-4.1504
X12.5717Y-4.3454
X12.9939Y-3.9992
X12.9939Y-4.0992
X13.0939Y-3.9992
X13.0939Y-4.0992
X13.1939Y-3.9992
X13.1939Y-4.0992
X13.2939Y-3.9992
X13.2939Y-4.0992
X13.3939Y-3.9992
X13.3939Y-4.0992
X13.6789Y-4.1492
X13.6789Y-4.3442
X14.11Y-3.9992
X14.11Y-4.0992
X14.21Y-3.9992
X14.21Y-4.0992
X14.31Y-3.9992
X14.31Y-4.0992
X14.41Y-3.9992
X14.41Y-4.0992
X14.51Y-3.9992
X14.51Y-4.0992
X14.795Y-4.1492
X14.795Y-4.3442
X15.2327Y-3.998
X15.2327Y-4.098
X15.3327Y-3.998
X15.3327Y-4.098
X15.4327Y-3.998
X15.4327Y-4.098
X15.5327Y-3.998
X15.5327Y-4.098
X15.6327Y-3.998
X15.6327Y-4.098
X15.9177Y-4.148
X15.9177Y-4.343
T6
X5.3821Y-3.2039
X5.3821Y-3.3039
X5.3821Y-3.4039
X5.3821Y-3.5039
X5.3821Y-3.6039
X5.3821Y-3.7039
X5.3821Y-3.8039
X5.9821Y-3.2039
X5.9821Y-3.3039
X5.9821Y-3.4039
X5.9821Y-3.5039
X5.9821Y-3.6039
X5.9821Y-3.7039
X5.9821Y-3.8039
X6.4823Y-3.2006
X6.4823Y-3.3006
X6.4823Y-3.4006
X6.4823Y-3.5006
X6.4823Y-3.6006
X6.4823Y-3.7006
X6.4823Y-3.8006
X7.0823Y-3.2006
X7.0823Y-3.3006
X7.0823Y-3.4006
X7.0823Y-3.5006
X7.0823Y-3.6006
X7.0823Y-3.7006
X7.0823Y-3.8006
X7.6009Y-3.2006
X7.6009Y-3.3006
X7.6009Y-3.4006
X7.6009Y-3.5006
X7.6009Y-3.6006
X7.6009Y-3.7006
X7.6009Y-3.8006
X8.2009Y-3.2006
X8.2009Y-3.3006
X8.2009Y-3.4006
X8.2009Y-3.5006
X8.2009Y-3.6006
X8.2009Y-3.7006
X8.2009Y-3.8006
X8.7186Y-3.2006
X8.7186Y-3.3006
X8.7186Y-3.4006
X8.7186Y-3.5006
X8.7186Y-3.6006
X8.7186Y-3.7006
X8.7186Y-3.8006
X9.3186Y-3.2006
X9.3186Y-3.3006
X9.3186Y-3.4006
X9.3186Y-3.5006
X9.3186Y-3.6006
X9.3186Y-3.7006
X9.3186Y-3.8006
X9.8242Y-3.2006
X9.8242Y-3.3006
X9.8242Y-3.4006
X9.8242Y-3.5006
X9.8242Y-3.6006
X9.8242Y-3.7006
X9.8242Y-3.8006
X10.4242Y-3.2006
X10.4242Y-3.3006
X10.4242Y-3.4006
X10.4242Y-3.5006
X10.4242Y-3.6006
X10.4242Y-3.7006
X10.4242Y-3.8006
X10.9266Y-3.2006
X10.9266Y-3.3006
X10.9266Y-3.4006
X10.9266Y-3.5006
X10.9266Y-3.6006
X10.9266Y-3.7006
X10.9266Y-3.8006
X11.5266Y-3.2006
X11.5266Y-3.3006
X11.5266Y-3.4006
X11.5266Y-3.5006
X11.5266Y-3.6006
X11.5266Y-3.7006
X11.5266Y-3.8006
X12.0269Y-3.2004
X12.0269Y-3.3004
X12.0269Y-3.4004
X12.0269Y-3.5004
X12.0269Y-3.6004
X12.0269Y-3.7004
X12.0269Y-3.8004
X12.6269Y-3.2004
X12.6269Y-3.3004
X12.6269Y-3.4004
X12.6269Y-3.5004
X12.6269Y-3.6004
X12.6269Y-3.7004
X12.6269Y-3.8004
X13.1341Y-3.1992
X13.1341Y-3.2992
X13.1341Y-3.3992
X13.1341Y-3.4992
X13.1341Y-3.5992
X13.1341Y-3.6992
X13.1341Y-3.7992
X13.7341Y-3.1992
X13.7341Y-3.2992
X13.7341Y-3.3992
X13.7341Y-3.4992
X13.7341Y-3.5992
X13.7341Y-3.6992
X13.7341Y-3.7992
X14.2502Y-3.1992
X14.2502Y-3.2992
X14.2502Y-3.3992
X14.2502Y-3.4992
X14.2502Y-3.5992
X14.2502Y-3.6992
X14.2502Y-3.7992
X14.8502Y-3.1992
X14.8502Y-3.2992
X14.8502Y-3.3992
X14.8502Y-3.4992
X14.8502Y-3.5992
X14.8502Y-3.6992
X14.8502Y-3.7992
X15.3729Y-3.198
X15.3729Y-3.298
X15.3729Y-3.398
X15.3729Y-3.498
X15.3729Y-3.598
X15.3729Y-3.698
X15.3729Y-3.798
X15.9729Y-3.198
X15.9729Y-3.298
X15.9729Y-3.398
X15.9729Y-3.498
X15.9729Y-3.598
X15.9729Y-3.698
X15.9729Y-3.798
T7
X5.1119Y-4.6889
X6.0019Y-3.9989
X6.0019Y-4.6839
X6.2121Y-3.9906
X6.2121Y-4.6856
X7.1021Y-3.9956
X7.1021Y-4.6806
X7.3307Y-3.9906
X7.3307Y-4.6856
X8.2207Y-3.9956
X8.2207Y-4.6806
X8.4484Y-3.9906
X8.4484Y-4.6856
X9.3384Y-3.9956
X9.3384Y-4.6806
X9.554Y-3.9906
X9.554Y-4.6856
X10.444Y-3.9956
X10.444Y-4.6806
X10.6564Y-3.9906
X10.6564Y-4.6856
X11.5464Y-3.9956
X11.5464Y-4.6806
X11.7567Y-3.9904
X11.7567Y-4.6854
X12.6467Y-3.9954
X12.6467Y-4.6804
X12.8639Y-3.9892
X12.8639Y-4.6842
X13.7539Y-3.9942
X13.7539Y-4.6792
X13.98Y-3.9892
X13.98Y-4.6842
X14.87Y-3.9942
X14.87Y-4.6792
X15.1027Y-3.988
X15.1027Y-4.683
X15.9927Y-3.993
X15.9927Y-4.678
T3
G00X4.9262Y-3.4429
M15
G01X4.9262Y-3.5217
M16
G05
G00X5.1506Y-3.3642
M15
G01X5.0719Y-3.3642
M16
G05
G00X5.1506Y-3.6004
M15
G01X5.0719Y-3.6004
M16
G05
M30
