%TF.GenerationSoftware,KiCad,Pcbnew,8.0.6*%
%TF.CreationDate,2024-11-22T20:17:54-05:00*%
%TF.ProjectId,exosuit_modular_board,65786f73-7569-4745-9f6d-6f64756c6172,rev?*%
%TF.SameCoordinates,Original*%
%TF.FileFunction,Drillmap*%
%TF.FilePolarity,Positive*%
%FSLAX45Y45*%
G04 Gerber Fmt 4.5, Leading zero omitted, Abs format (unit mm)*
G04 Created by KiCad (PCBNEW 8.0.6) date 2024-11-22 20:17:54*
%MOMM*%
%LPD*%
G01*
G04 APERTURE LIST*
%ADD10C,0.050000*%
%ADD11C,0.200000*%
G04 APERTURE END LIST*
D10*
X12145000Y-7697500D02*
X40905000Y-7697500D01*
X40905000Y-13065000D01*
X12145000Y-13065000D01*
X12145000Y-7697500D01*
D11*
X12403277Y-13378984D02*
X12403277Y-13178984D01*
X12403277Y-13178984D02*
X12450896Y-13178984D01*
X12450896Y-13178984D02*
X12479467Y-13188508D01*
X12479467Y-13188508D02*
X12498515Y-13207555D01*
X12498515Y-13207555D02*
X12508039Y-13226603D01*
X12508039Y-13226603D02*
X12517562Y-13264698D01*
X12517562Y-13264698D02*
X12517562Y-13293269D01*
X12517562Y-13293269D02*
X12508039Y-13331365D01*
X12508039Y-13331365D02*
X12498515Y-13350412D01*
X12498515Y-13350412D02*
X12479467Y-13369460D01*
X12479467Y-13369460D02*
X12450896Y-13378984D01*
X12450896Y-13378984D02*
X12403277Y-13378984D01*
X12603277Y-13378984D02*
X12603277Y-13245650D01*
X12603277Y-13283746D02*
X12612801Y-13264698D01*
X12612801Y-13264698D02*
X12622324Y-13255174D01*
X12622324Y-13255174D02*
X12641372Y-13245650D01*
X12641372Y-13245650D02*
X12660420Y-13245650D01*
X12727086Y-13378984D02*
X12727086Y-13245650D01*
X12727086Y-13178984D02*
X12717562Y-13188508D01*
X12717562Y-13188508D02*
X12727086Y-13198031D01*
X12727086Y-13198031D02*
X12736610Y-13188508D01*
X12736610Y-13188508D02*
X12727086Y-13178984D01*
X12727086Y-13178984D02*
X12727086Y-13198031D01*
X12850896Y-13378984D02*
X12831848Y-13369460D01*
X12831848Y-13369460D02*
X12822324Y-13350412D01*
X12822324Y-13350412D02*
X12822324Y-13178984D01*
X12955658Y-13378984D02*
X12936610Y-13369460D01*
X12936610Y-13369460D02*
X12927086Y-13350412D01*
X12927086Y-13350412D02*
X12927086Y-13178984D01*
X13184229Y-13378984D02*
X13184229Y-13178984D01*
X13184229Y-13178984D02*
X13250896Y-13321841D01*
X13250896Y-13321841D02*
X13317562Y-13178984D01*
X13317562Y-13178984D02*
X13317562Y-13378984D01*
X13498515Y-13378984D02*
X13498515Y-13274222D01*
X13498515Y-13274222D02*
X13488991Y-13255174D01*
X13488991Y-13255174D02*
X13469943Y-13245650D01*
X13469943Y-13245650D02*
X13431848Y-13245650D01*
X13431848Y-13245650D02*
X13412801Y-13255174D01*
X13498515Y-13369460D02*
X13479467Y-13378984D01*
X13479467Y-13378984D02*
X13431848Y-13378984D01*
X13431848Y-13378984D02*
X13412801Y-13369460D01*
X13412801Y-13369460D02*
X13403277Y-13350412D01*
X13403277Y-13350412D02*
X13403277Y-13331365D01*
X13403277Y-13331365D02*
X13412801Y-13312317D01*
X13412801Y-13312317D02*
X13431848Y-13302793D01*
X13431848Y-13302793D02*
X13479467Y-13302793D01*
X13479467Y-13302793D02*
X13498515Y-13293269D01*
X13593753Y-13245650D02*
X13593753Y-13445650D01*
X13593753Y-13255174D02*
X13612801Y-13245650D01*
X13612801Y-13245650D02*
X13650896Y-13245650D01*
X13650896Y-13245650D02*
X13669943Y-13255174D01*
X13669943Y-13255174D02*
X13679467Y-13264698D01*
X13679467Y-13264698D02*
X13688991Y-13283746D01*
X13688991Y-13283746D02*
X13688991Y-13340888D01*
X13688991Y-13340888D02*
X13679467Y-13359936D01*
X13679467Y-13359936D02*
X13669943Y-13369460D01*
X13669943Y-13369460D02*
X13650896Y-13378984D01*
X13650896Y-13378984D02*
X13612801Y-13378984D01*
X13612801Y-13378984D02*
X13593753Y-13369460D01*
X13774705Y-13359936D02*
X13784229Y-13369460D01*
X13784229Y-13369460D02*
X13774705Y-13378984D01*
X13774705Y-13378984D02*
X13765182Y-13369460D01*
X13765182Y-13369460D02*
X13774705Y-13359936D01*
X13774705Y-13359936D02*
X13774705Y-13378984D01*
X13774705Y-13255174D02*
X13784229Y-13264698D01*
X13784229Y-13264698D02*
X13774705Y-13274222D01*
X13774705Y-13274222D02*
X13765182Y-13264698D01*
X13765182Y-13264698D02*
X13774705Y-13255174D01*
X13774705Y-13255174D02*
X13774705Y-13274222D01*
M02*
