%TF.GenerationSoftware,KiCad,Pcbnew,8.0.6*%
%TF.CreationDate,2024-11-22T20:17:49-05:00*%
%TF.ProjectId,exosuit_modular_board,65786f73-7569-4745-9f6d-6f64756c6172,rev?*%
%TF.SameCoordinates,Original*%
%TF.FileFunction,Copper,L1,Top*%
%TF.FilePolarity,Positive*%
%FSLAX46Y46*%
G04 Gerber Fmt 4.6, Leading zero omitted, Abs format (unit mm)*
G04 Created by KiCad (PCBNEW 8.0.6) date 2024-11-22 20:17:49*
%MOMM*%
%LPD*%
G01*
G04 APERTURE LIST*
G04 Aperture macros list*
%AMRoundRect*
0 Rectangle with rounded corners*
0 $1 Rounding radius*
0 $2 $3 $4 $5 $6 $7 $8 $9 X,Y pos of 4 corners*
0 Add a 4 corners polygon primitive as box body*
4,1,4,$2,$3,$4,$5,$6,$7,$8,$9,$2,$3,0*
0 Add four circle primitives for the rounded corners*
1,1,$1+$1,$2,$3*
1,1,$1+$1,$4,$5*
1,1,$1+$1,$6,$7*
1,1,$1+$1,$8,$9*
0 Add four rect primitives between the rounded corners*
20,1,$1+$1,$2,$3,$4,$5,0*
20,1,$1+$1,$4,$5,$6,$7,0*
20,1,$1+$1,$6,$7,$8,$9,0*
20,1,$1+$1,$8,$9,$2,$3,0*%
G04 Aperture macros list end*
%TA.AperFunction,ComponentPad*%
%ADD10O,2.500000X1.700000*%
%TD*%
%TA.AperFunction,ComponentPad*%
%ADD11O,2.200000X2.200000*%
%TD*%
%TA.AperFunction,ComponentPad*%
%ADD12C,1.270000*%
%TD*%
%TA.AperFunction,ComponentPad*%
%ADD13O,1.574800X1.574800*%
%TD*%
%TA.AperFunction,ComponentPad*%
%ADD14O,1.700000X1.700000*%
%TD*%
%TA.AperFunction,ComponentPad*%
%ADD15R,1.574800X1.574800*%
%TD*%
%TA.AperFunction,ComponentPad*%
%ADD16R,1.800000X1.800000*%
%TD*%
%TA.AperFunction,ComponentPad*%
%ADD17C,1.800000*%
%TD*%
%TA.AperFunction,ComponentPad*%
%ADD18C,1.498600*%
%TD*%
%TA.AperFunction,ComponentPad*%
%ADD19R,3.500000X3.500000*%
%TD*%
%TA.AperFunction,ComponentPad*%
%ADD20RoundRect,0.750000X-1.000000X0.750000X-1.000000X-0.750000X1.000000X-0.750000X1.000000X0.750000X0*%
%TD*%
%TA.AperFunction,ComponentPad*%
%ADD21RoundRect,0.875000X-0.875000X0.875000X-0.875000X-0.875000X0.875000X-0.875000X0.875000X0.875000X0*%
%TD*%
%TA.AperFunction,Conductor*%
%ADD22C,1.000000*%
%TD*%
%TA.AperFunction,Conductor*%
%ADD23C,0.200000*%
%TD*%
G04 APERTURE END LIST*
D10*
%TO.P,,2*%
%TO.N,GND*%
X206901957Y-105425000D03*
%TD*%
D11*
%TO.P,,5*%
%TO.N,GND*%
X355093000Y-101326000D03*
%TD*%
D12*
%TO.P,J7s1,1,1*%
%TO.N,GND*%
X310903085Y-123684000D03*
%TO.P,J7s1,2,2*%
%TO.N,Net-(U7-A7{slash}D7{slash}RX)*%
X312903086Y-123684000D03*
%TO.P,J7s1,3,3*%
%TO.N,Net-(U7-A8{slash}D8{slash}SCK)*%
X314903085Y-123684000D03*
%TO.P,J7s1,4,4*%
%TO.N,Net-(U7-A10{slash}D10{slash}MOSI)*%
X316903086Y-123684000D03*
%TO.P,J7s1,5,5*%
%TO.N,Net-(U7-A9{slash}D9{slash}MISO)*%
X318903084Y-123684000D03*
%TO.P,J7s1,6,6*%
%TO.N,Net-(U7-5V)*%
X320903085Y-123684000D03*
%TD*%
D13*
%TO.P,H1,1,1*%
%TO.N,GND*%
X143303915Y-101700000D03*
D14*
%TO.P,H1,2,2*%
%TO.N,unconnected-(H1-Pad2)*%
X143303915Y-104240000D03*
%TO.P,H1,3,3*%
%TO.N,Net-(U1-A2{slash}D2)*%
X140763915Y-101700000D03*
%TO.P,H1,4,4*%
%TO.N,unconnected-(H1-Pad4)*%
X140763915Y-104240000D03*
%TO.P,H1,5,5*%
%TO.N,Net-(U1-A3{slash}D3)*%
X138223915Y-101700000D03*
%TO.P,H1,6,6*%
%TO.N,unconnected-(H1-Pad6)*%
X138223915Y-104240000D03*
%TO.P,H1,7,7*%
%TO.N,Net-(U1-D4{slash}SDA)*%
X135683915Y-101700000D03*
%TO.P,H1,8,8*%
%TO.N,unconnected-(H1-Pad8)*%
X135683915Y-104240000D03*
%TO.P,H1,9,9*%
%TO.N,Net-(U1-D5{slash}SCL)*%
X133143915Y-101700000D03*
%TO.P,H1,10,10*%
%TO.N,unconnected-(H1-Pad10)*%
X133143915Y-104240000D03*
%TD*%
D11*
%TO.P,,5*%
%TO.N,GND*%
X186200957Y-101361000D03*
%TD*%
D10*
%TO.P,Pad_gge5124,2*%
%TO.N,GND*%
X150542915Y-105510000D03*
%TD*%
%TO.P,,2*%
%TO.N,GND*%
X235290015Y-105425000D03*
%TD*%
D13*
%TO.P,H5,1,1*%
%TO.N,GND*%
X256133858Y-101615000D03*
D14*
%TO.P,H5,2,2*%
%TO.N,unconnected-(H5-Pad2)*%
X256133858Y-104155000D03*
%TO.P,H5,3,3*%
%TO.N,Net-(U5-A2{slash}D2)*%
X253593858Y-101615000D03*
%TO.P,H5,4,4*%
%TO.N,unconnected-(H5-Pad4)*%
X253593858Y-104155000D03*
%TO.P,H5,5,5*%
%TO.N,Net-(U5-A3{slash}D3)*%
X251053858Y-101615000D03*
%TO.P,H5,6,6*%
%TO.N,unconnected-(H5-Pad6)*%
X251053858Y-104155000D03*
%TO.P,H5,7,7*%
%TO.N,Net-(U5-D4{slash}SDA)*%
X248513858Y-101615000D03*
%TO.P,H5,8,8*%
%TO.N,unconnected-(H5-Pad8)*%
X248513858Y-104155000D03*
%TO.P,H5,9,9*%
%TO.N,Net-(U5-D5{slash}SCL)*%
X245973858Y-101615000D03*
%TO.P,H5,10,10*%
%TO.N,unconnected-(H5-Pad10)*%
X245973858Y-104155000D03*
%TD*%
D11*
%TO.P,,5*%
%TO.N,GND*%
X208806957Y-118887000D03*
%TD*%
D10*
%TO.P,,2*%
%TO.N,GND*%
X347444000Y-105390000D03*
%TD*%
D11*
%TO.P,,5*%
%TO.N,GND*%
X298620000Y-101355000D03*
%TD*%
%TO.P,,5*%
%TO.N,GND*%
X293277858Y-118887000D03*
%TD*%
D15*
%TO.P,P4,1,1*%
%TO.N,Net-(J4m1-Pad1)*%
X225511015Y-119268000D03*
D13*
%TO.P,P4,2,2*%
%TO.N,Net-(J4m1-Pad2)*%
X222971015Y-119268000D03*
%TO.P,P4,3,3*%
%TO.N,Net-(J4m1-Pad3)*%
X220431015Y-119268000D03*
%TD*%
D16*
%TO.P,U10,1,A0/D0/DAC*%
%TO.N,unconnected-(U10-A0{slash}D0{slash}DAC-Pad1)*%
X390471085Y-81230000D03*
D17*
%TO.P,U10,2,A1/D1*%
%TO.N,unconnected-(U10-A1{slash}D1-Pad2)*%
X390471085Y-83770000D03*
%TO.P,U10,3,A2/D2*%
%TO.N,Net-(U10-A2{slash}D2)*%
X390471085Y-86310000D03*
%TO.P,U10,4,A3/D3*%
%TO.N,Net-(U10-A3{slash}D3)*%
X390471085Y-88850000D03*
%TO.P,U10,5,D4/SDA*%
%TO.N,Net-(U10-D4{slash}SDA)*%
X390471085Y-91390000D03*
%TO.P,U10,6,D5/SCL*%
%TO.N,Net-(U10-D5{slash}SCL)*%
X390471085Y-93930000D03*
%TO.P,U10,7,A6/D6/TX*%
%TO.N,unconnected-(U10-A6{slash}D6{slash}TX-Pad7)*%
X390471085Y-96470000D03*
%TO.P,U10,8,A7/D7/RX*%
%TO.N,Net-(U10-A7{slash}D7{slash}RX)*%
X405711085Y-96470000D03*
%TO.P,U10,9,A8/D8/SCK*%
%TO.N,Net-(U10-A8{slash}D8{slash}SCK)*%
X405711085Y-93930000D03*
%TO.P,U10,10,A9/D9/MISO*%
%TO.N,Net-(U10-A9{slash}D9{slash}MISO)*%
X405711085Y-91390000D03*
%TO.P,U10,11,A10/D10/MOSI*%
%TO.N,Net-(U10-A10{slash}D10{slash}MOSI)*%
X405711085Y-88850000D03*
%TO.P,U10,12,3V3*%
%TO.N,unconnected-(U10-3V3-Pad12)*%
X405711085Y-86310000D03*
%TO.P,U10,13,GND*%
%TO.N,GND*%
X405711085Y-83770000D03*
%TO.P,U10,14,5V*%
%TO.N,Net-(U10-5V)*%
X405711085Y-81230000D03*
%TD*%
D15*
%TO.P,P9,1,1*%
%TO.N,Net-(J9m1-Pad1)*%
X366015000Y-119233000D03*
D13*
%TO.P,P9,2,2*%
%TO.N,Net-(J9m1-Pad2)*%
X363475000Y-119233000D03*
%TO.P,P9,3,3*%
%TO.N,Net-(J9m1-Pad3)*%
X360935000Y-119233000D03*
%TD*%
D10*
%TO.P,,3*%
%TO.N,VCC*%
X178487915Y-110378000D03*
%TD*%
D13*
%TO.P,H7,1,1*%
%TO.N,GND*%
X312082000Y-101609000D03*
D14*
%TO.P,H7,2,2*%
%TO.N,unconnected-(H7-Pad2)*%
X312082000Y-104149000D03*
%TO.P,H7,3,3*%
%TO.N,Net-(U7-A2{slash}D2)*%
X309542000Y-101609000D03*
%TO.P,H7,4,4*%
%TO.N,unconnected-(H7-Pad4)*%
X309542000Y-104149000D03*
%TO.P,H7,5,5*%
%TO.N,Net-(U7-A3{slash}D3)*%
X307002000Y-101609000D03*
%TO.P,H7,6,6*%
%TO.N,unconnected-(H7-Pad6)*%
X307002000Y-104149000D03*
%TO.P,H7,7,7*%
%TO.N,Net-(U7-D4{slash}SDA)*%
X304462000Y-101609000D03*
%TO.P,H7,8,8*%
%TO.N,unconnected-(H7-Pad8)*%
X304462000Y-104149000D03*
%TO.P,H7,9,9*%
%TO.N,Net-(U7-D5{slash}SCL)*%
X301922000Y-101609000D03*
%TO.P,H7,10,10*%
%TO.N,unconnected-(H7-Pad10)*%
X301922000Y-104149000D03*
%TD*%
D18*
%TO.P,J5m1,1,1*%
%TO.N,Net-(J5m1-Pad1)*%
X249425043Y-123269900D03*
%TO.P,J5m1,2,2*%
%TO.N,Net-(J5m1-Pad2)*%
X246925043Y-123269900D03*
%TO.P,J5m1,3,3*%
%TO.N,Net-(J5m1-Pad3)*%
X244425043Y-123269900D03*
%TD*%
D10*
%TO.P,,3*%
%TO.N,VCC*%
X375794000Y-110343000D03*
%TD*%
D11*
%TO.P,,5*%
%TO.N,GND*%
X180392915Y-101488000D03*
%TD*%
%TO.P,,5*%
%TO.N,GND*%
X242671858Y-119014000D03*
%TD*%
D10*
%TO.P,,3*%
%TO.N,VCC*%
X347444000Y-110343000D03*
%TD*%
D15*
%TO.P,P8,1,1*%
%TO.N,Net-(J8m1-Pad1)*%
X337665000Y-119233000D03*
D13*
%TO.P,P8,2,2*%
%TO.N,Net-(J8m1-Pad2)*%
X335125000Y-119233000D03*
%TO.P,P8,3,3*%
%TO.N,Net-(J8m1-Pad3)*%
X332585000Y-119233000D03*
%TD*%
D11*
%TO.P,,5*%
%TO.N,GND*%
X157786915Y-101361000D03*
%TD*%
D12*
%TO.P,J1s1,1,1*%
%TO.N,GND*%
X142125000Y-123775000D03*
%TO.P,J1s1,2,2*%
%TO.N,Net-(U1-A7{slash}D7{slash}RX)*%
X144125001Y-123775000D03*
%TO.P,J1s1,3,3*%
%TO.N,Net-(U1-A8{slash}D8{slash}SCK)*%
X146125000Y-123775000D03*
%TO.P,J1s1,4,4*%
%TO.N,Net-(U1-A10{slash}D10{slash}MOSI)*%
X148125001Y-123775000D03*
%TO.P,J1s1,5,5*%
%TO.N,Net-(U1-A9{slash}D9{slash}MISO)*%
X150124999Y-123775000D03*
%TO.P,J1s1,6,6*%
%TO.N,Net-(U1-5V)*%
X152125000Y-123775000D03*
%TD*%
D16*
%TO.P,U1,1,A0/D0/DAC*%
%TO.N,unconnected-(U1-A0{slash}D0{slash}DAC-Pad1)*%
X136705000Y-81380000D03*
D17*
%TO.P,U1,2,A1/D1*%
%TO.N,unconnected-(U1-A1{slash}D1-Pad2)*%
X136705000Y-83920000D03*
%TO.P,U1,3,A2/D2*%
%TO.N,Net-(U1-A2{slash}D2)*%
X136705000Y-86460000D03*
%TO.P,U1,4,A3/D3*%
%TO.N,Net-(U1-A3{slash}D3)*%
X136705000Y-89000000D03*
%TO.P,U1,5,D4/SDA*%
%TO.N,Net-(U1-D4{slash}SDA)*%
X136705000Y-91540000D03*
%TO.P,U1,6,D5/SCL*%
%TO.N,Net-(U1-D5{slash}SCL)*%
X136705000Y-94080000D03*
%TO.P,U1,7,A6/D6/TX*%
%TO.N,unconnected-(U1-A6{slash}D6{slash}TX-Pad7)*%
X136705000Y-96620000D03*
%TO.P,U1,8,A7/D7/RX*%
%TO.N,Net-(U1-A7{slash}D7{slash}RX)*%
X151945000Y-96620000D03*
%TO.P,U1,9,A8/D8/SCK*%
%TO.N,Net-(U1-A8{slash}D8{slash}SCK)*%
X151945000Y-94080000D03*
%TO.P,U1,10,A9/D9/MISO*%
%TO.N,Net-(U1-A9{slash}D9{slash}MISO)*%
X151945000Y-91540000D03*
%TO.P,U1,11,A10/D10/MOSI*%
%TO.N,Net-(U1-A10{slash}D10{slash}MOSI)*%
X151945000Y-89000000D03*
%TO.P,U1,12,3V3*%
%TO.N,unconnected-(U1-3V3-Pad12)*%
X151945000Y-86460000D03*
%TO.P,U1,13,GND*%
%TO.N,GND*%
X151945000Y-83920000D03*
%TO.P,U1,14,5V*%
%TO.N,Net-(U1-5V)*%
X151945000Y-81380000D03*
%TD*%
D16*
%TO.P,U8,1,A0/D0/DAC*%
%TO.N,unconnected-(U8-A0{slash}D0{slash}DAC-Pad1)*%
X333606085Y-81260000D03*
D17*
%TO.P,U8,2,A1/D1*%
%TO.N,unconnected-(U8-A1{slash}D1-Pad2)*%
X333606085Y-83800000D03*
%TO.P,U8,3,A2/D2*%
%TO.N,Net-(U8-A2{slash}D2)*%
X333606085Y-86340000D03*
%TO.P,U8,4,A3/D3*%
%TO.N,Net-(U8-A3{slash}D3)*%
X333606085Y-88880000D03*
%TO.P,U8,5,D4/SDA*%
%TO.N,Net-(U8-D4{slash}SDA)*%
X333606085Y-91420000D03*
%TO.P,U8,6,D5/SCL*%
%TO.N,Net-(U8-D5{slash}SCL)*%
X333606085Y-93960000D03*
%TO.P,U8,7,A6/D6/TX*%
%TO.N,unconnected-(U8-A6{slash}D6{slash}TX-Pad7)*%
X333606085Y-96500000D03*
%TO.P,U8,8,A7/D7/RX*%
%TO.N,Net-(U8-A7{slash}D7{slash}RX)*%
X348846085Y-96500000D03*
%TO.P,U8,9,A8/D8/SCK*%
%TO.N,Net-(U8-A8{slash}D8{slash}SCK)*%
X348846085Y-93960000D03*
%TO.P,U8,10,A9/D9/MISO*%
%TO.N,Net-(U8-A9{slash}D9{slash}MISO)*%
X348846085Y-91420000D03*
%TO.P,U8,11,A10/D10/MOSI*%
%TO.N,Net-(U8-A10{slash}D10{slash}MOSI)*%
X348846085Y-88880000D03*
%TO.P,U8,12,3V3*%
%TO.N,unconnected-(U8-3V3-Pad12)*%
X348846085Y-86340000D03*
%TO.P,U8,13,GND*%
%TO.N,GND*%
X348846085Y-83800000D03*
%TO.P,U8,14,5V*%
%TO.N,Net-(U8-5V)*%
X348846085Y-81260000D03*
%TD*%
D11*
%TO.P,,5*%
%TO.N,GND*%
X186200957Y-119014000D03*
%TD*%
D16*
%TO.P,U5,1,A0/D0/DAC*%
%TO.N,unconnected-(U5-A0{slash}D0{slash}DAC-Pad1)*%
X249534943Y-81295000D03*
D17*
%TO.P,U5,2,A1/D1*%
%TO.N,unconnected-(U5-A1{slash}D1-Pad2)*%
X249534943Y-83835000D03*
%TO.P,U5,3,A2/D2*%
%TO.N,Net-(U5-A2{slash}D2)*%
X249534943Y-86375000D03*
%TO.P,U5,4,A3/D3*%
%TO.N,Net-(U5-A3{slash}D3)*%
X249534943Y-88915000D03*
%TO.P,U5,5,D4/SDA*%
%TO.N,Net-(U5-D4{slash}SDA)*%
X249534943Y-91455000D03*
%TO.P,U5,6,D5/SCL*%
%TO.N,Net-(U5-D5{slash}SCL)*%
X249534943Y-93995000D03*
%TO.P,U5,7,A6/D6/TX*%
%TO.N,unconnected-(U5-A6{slash}D6{slash}TX-Pad7)*%
X249534943Y-96535000D03*
%TO.P,U5,8,A7/D7/RX*%
%TO.N,Net-(U5-A7{slash}D7{slash}RX)*%
X264774943Y-96535000D03*
%TO.P,U5,9,A8/D8/SCK*%
%TO.N,Net-(U5-A8{slash}D8{slash}SCK)*%
X264774943Y-93995000D03*
%TO.P,U5,10,A9/D9/MISO*%
%TO.N,Net-(U5-A9{slash}D9{slash}MISO)*%
X264774943Y-91455000D03*
%TO.P,U5,11,A10/D10/MOSI*%
%TO.N,Net-(U5-A10{slash}D10{slash}MOSI)*%
X264774943Y-88915000D03*
%TO.P,U5,12,3V3*%
%TO.N,unconnected-(U5-3V3-Pad12)*%
X264774943Y-86375000D03*
%TO.P,U5,13,GND*%
%TO.N,GND*%
X264774943Y-83835000D03*
%TO.P,U5,14,5V*%
%TO.N,Net-(U5-5V)*%
X264774943Y-81295000D03*
%TD*%
D12*
%TO.P,J2s1,1,1*%
%TO.N,GND*%
X170070000Y-123690000D03*
%TO.P,J2s1,2,2*%
%TO.N,Net-(U2-A7{slash}D7{slash}RX)*%
X172070001Y-123690000D03*
%TO.P,J2s1,3,3*%
%TO.N,Net-(U2-A8{slash}D8{slash}SCK)*%
X174070000Y-123690000D03*
%TO.P,J2s1,4,4*%
%TO.N,Net-(U2-A10{slash}D10{slash}MOSI)*%
X176070001Y-123690000D03*
%TO.P,J2s1,5,5*%
%TO.N,Net-(U2-A9{slash}D9{slash}MISO)*%
X178069999Y-123690000D03*
%TO.P,J2s1,6,6*%
%TO.N,Net-(U2-5V)*%
X180070000Y-123690000D03*
%TD*%
D10*
%TO.P,Pad_gge5154,3*%
%TO.N,VCC*%
X150542915Y-110463000D03*
%TD*%
%TO.P,,2*%
%TO.N,GND*%
X404309000Y-105360000D03*
%TD*%
D18*
%TO.P,J9m1,1,1*%
%TO.N,Net-(J9m1-Pad1)*%
X361846185Y-123234900D03*
%TO.P,J9m1,2,2*%
%TO.N,Net-(J9m1-Pad2)*%
X359346185Y-123234900D03*
%TO.P,J9m1,3,3*%
%TO.N,Net-(J9m1-Pad3)*%
X356846185Y-123234900D03*
%TD*%
%TO.P,J1m1,1,1*%
%TO.N,Net-(J1m1-Pad1)*%
X136595100Y-123354900D03*
%TO.P,J1m1,2,2*%
%TO.N,Net-(J1m1-Pad2)*%
X134095100Y-123354900D03*
%TO.P,J1m1,3,3*%
%TO.N,Net-(J1m1-Pad3)*%
X131595100Y-123354900D03*
%TD*%
D19*
%TO.P,BJ1,1*%
%TO.N,VCC*%
X129825000Y-91450000D03*
D20*
%TO.P,BJ1,2*%
%TO.N,GND*%
X129825000Y-85450000D03*
D21*
%TO.P,BJ1,3*%
X125125000Y-88450000D03*
%TD*%
D11*
%TO.P,,5*%
%TO.N,GND*%
X270671858Y-101361000D03*
%TD*%
%TO.P,,5*%
%TO.N,GND*%
X321226000Y-118881000D03*
%TD*%
D12*
%TO.P,J9s1,1,1*%
%TO.N,GND*%
X367376085Y-123655000D03*
%TO.P,J9s1,2,2*%
%TO.N,Net-(U9-A7{slash}D7{slash}RX)*%
X369376086Y-123655000D03*
%TO.P,J9s1,3,3*%
%TO.N,Net-(U9-A8{slash}D8{slash}SCK)*%
X371376085Y-123655000D03*
%TO.P,J9s1,4,4*%
%TO.N,Net-(U9-A10{slash}D10{slash}MOSI)*%
X373376086Y-123655000D03*
%TO.P,J9s1,5,5*%
%TO.N,Net-(U9-A9{slash}D9{slash}MISO)*%
X375376084Y-123655000D03*
%TO.P,J9s1,6,6*%
%TO.N,Net-(U9-5V)*%
X377376085Y-123655000D03*
%TD*%
D11*
%TO.P,Pad_gge7437,5*%
%TO.N,GND*%
X152447915Y-101573000D03*
%TD*%
D15*
%TO.P,P5,1,1*%
%TO.N,Net-(J5m1-Pad1)*%
X253593858Y-119268000D03*
D13*
%TO.P,P5,2,2*%
%TO.N,Net-(J5m1-Pad2)*%
X251053858Y-119268000D03*
%TO.P,P5,3,3*%
%TO.N,Net-(J5m1-Pad3)*%
X248513858Y-119268000D03*
%TD*%
D11*
%TO.P,,5*%
%TO.N,GND*%
X321226000Y-101482000D03*
%TD*%
D15*
%TO.P,P2,1,1*%
%TO.N,Net-(J2m1-Pad1)*%
X168708915Y-119268000D03*
D13*
%TO.P,P2,2,2*%
%TO.N,Net-(J2m1-Pad2)*%
X166168915Y-119268000D03*
%TO.P,P2,3,3*%
%TO.N,Net-(J2m1-Pad3)*%
X163628915Y-119268000D03*
%TD*%
D12*
%TO.P,J5s1,1,1*%
%TO.N,GND*%
X254954943Y-123690000D03*
%TO.P,J5s1,2,2*%
%TO.N,Net-(U5-A7{slash}D7{slash}RX)*%
X256954944Y-123690000D03*
%TO.P,J5s1,3,3*%
%TO.N,Net-(U5-A8{slash}D8{slash}SCK)*%
X258954943Y-123690000D03*
%TO.P,J5s1,4,4*%
%TO.N,Net-(U5-A10{slash}D10{slash}MOSI)*%
X260954944Y-123690000D03*
%TO.P,J5s1,5,5*%
%TO.N,Net-(U5-A9{slash}D9{slash}MISO)*%
X262954942Y-123690000D03*
%TO.P,J5s1,6,6*%
%TO.N,Net-(U5-5V)*%
X264954943Y-123690000D03*
%TD*%
D10*
%TO.P,,2*%
%TO.N,GND*%
X319321000Y-105419000D03*
%TD*%
D15*
%TO.P,P10,1,1*%
%TO.N,Net-(J10m1-Pad1)*%
X394530000Y-119203000D03*
D13*
%TO.P,P10,2,2*%
%TO.N,Net-(J10m1-Pad2)*%
X391990000Y-119203000D03*
%TO.P,P10,3,3*%
%TO.N,Net-(J10m1-Pad3)*%
X389450000Y-119203000D03*
%TD*%
D10*
%TO.P,,2*%
%TO.N,GND*%
X263372858Y-105425000D03*
%TD*%
D18*
%TO.P,J8m1,1,1*%
%TO.N,Net-(J8m1-Pad1)*%
X333496185Y-123234900D03*
%TO.P,J8m1,2,2*%
%TO.N,Net-(J8m1-Pad2)*%
X330996185Y-123234900D03*
%TO.P,J8m1,3,3*%
%TO.N,Net-(J8m1-Pad3)*%
X328496185Y-123234900D03*
%TD*%
D11*
%TO.P,,5*%
%TO.N,GND*%
X180392915Y-118887000D03*
%TD*%
D10*
%TO.P,,3*%
%TO.N,VCC*%
X319321000Y-110372000D03*
%TD*%
D13*
%TO.P,H4,1,1*%
%TO.N,GND*%
X228051015Y-101615000D03*
D14*
%TO.P,H4,2,2*%
%TO.N,unconnected-(H4-Pad2)*%
X228051015Y-104155000D03*
%TO.P,H4,3,3*%
%TO.N,Net-(U4-A2{slash}D2)*%
X225511015Y-101615000D03*
%TO.P,H4,4,4*%
%TO.N,unconnected-(H4-Pad4)*%
X225511015Y-104155000D03*
%TO.P,H4,5,5*%
%TO.N,Net-(U4-A3{slash}D3)*%
X222971015Y-101615000D03*
%TO.P,H4,6,6*%
%TO.N,unconnected-(H4-Pad6)*%
X222971015Y-104155000D03*
%TO.P,H4,7,7*%
%TO.N,Net-(U4-D4{slash}SDA)*%
X220431015Y-101615000D03*
%TO.P,H4,8,8*%
%TO.N,unconnected-(H4-Pad8)*%
X220431015Y-104155000D03*
%TO.P,H4,9,9*%
%TO.N,Net-(U4-D5{slash}SCL)*%
X217891015Y-101615000D03*
%TO.P,H4,10,10*%
%TO.N,unconnected-(H4-Pad10)*%
X217891015Y-104155000D03*
%TD*%
D11*
%TO.P,,5*%
%TO.N,GND*%
X326743000Y-118979000D03*
%TD*%
%TO.P,,5*%
%TO.N,GND*%
X208806957Y-101488000D03*
%TD*%
D15*
%TO.P,P6,1,1*%
%TO.N,Net-(J6m1-Pad1)*%
X281593858Y-119268000D03*
D13*
%TO.P,P6,2,2*%
%TO.N,Net-(J6m1-Pad2)*%
X279053858Y-119268000D03*
%TO.P,P6,3,3*%
%TO.N,Net-(J6m1-Pad3)*%
X276513858Y-119268000D03*
%TD*%
D18*
%TO.P,J2m1,1,1*%
%TO.N,Net-(J2m1-Pad1)*%
X164540100Y-123269900D03*
%TO.P,J2m1,2,2*%
%TO.N,Net-(J2m1-Pad2)*%
X162040100Y-123269900D03*
%TO.P,J2m1,3,3*%
%TO.N,Net-(J2m1-Pad3)*%
X159540100Y-123269900D03*
%TD*%
D11*
%TO.P,,5*%
%TO.N,GND*%
X237195015Y-118887000D03*
%TD*%
D13*
%TO.P,H3,1,1*%
%TO.N,GND*%
X199662957Y-101615000D03*
D14*
%TO.P,H3,2,2*%
%TO.N,unconnected-(H3-Pad2)*%
X199662957Y-104155000D03*
%TO.P,H3,3,3*%
%TO.N,Net-(U3-A2{slash}D2)*%
X197122957Y-101615000D03*
%TO.P,H3,4,4*%
%TO.N,unconnected-(H3-Pad4)*%
X197122957Y-104155000D03*
%TO.P,H3,5,5*%
%TO.N,Net-(U3-A3{slash}D3)*%
X194582957Y-101615000D03*
%TO.P,H3,6,6*%
%TO.N,unconnected-(H3-Pad6)*%
X194582957Y-104155000D03*
%TO.P,H3,7,7*%
%TO.N,Net-(U3-D4{slash}SDA)*%
X192042957Y-101615000D03*
%TO.P,H3,8,8*%
%TO.N,unconnected-(H3-Pad8)*%
X192042957Y-104155000D03*
%TO.P,H3,9,9*%
%TO.N,Net-(U3-D5{slash}SCL)*%
X189502957Y-101615000D03*
%TO.P,H3,10,10*%
%TO.N,unconnected-(H3-Pad10)*%
X189502957Y-104155000D03*
%TD*%
D12*
%TO.P,J6s1,1,1*%
%TO.N,GND*%
X282954943Y-123690000D03*
%TO.P,J6s1,2,2*%
%TO.N,Net-(U6-A7{slash}D7{slash}RX)*%
X284954944Y-123690000D03*
%TO.P,J6s1,3,3*%
%TO.N,Net-(U6-A8{slash}D8{slash}SCK)*%
X286954943Y-123690000D03*
%TO.P,J6s1,4,4*%
%TO.N,Net-(U6-A10{slash}D10{slash}MOSI)*%
X288954944Y-123690000D03*
%TO.P,J6s1,5,5*%
%TO.N,Net-(U6-A9{slash}D9{slash}MISO)*%
X290954942Y-123690000D03*
%TO.P,J6s1,6,6*%
%TO.N,Net-(U6-5V)*%
X292954943Y-123690000D03*
%TD*%
D11*
%TO.P,Pad_gge5250,5*%
%TO.N,GND*%
X152447915Y-118972000D03*
%TD*%
%TO.P,,5*%
%TO.N,GND*%
X298620000Y-119008000D03*
%TD*%
%TO.P,,5*%
%TO.N,GND*%
X214589015Y-119014000D03*
%TD*%
%TO.P,,5*%
%TO.N,GND*%
X349349000Y-101453000D03*
%TD*%
D18*
%TO.P,J6m1,1,1*%
%TO.N,Net-(J6m1-Pad1)*%
X277425043Y-123269900D03*
%TO.P,J6m1,2,2*%
%TO.N,Net-(J6m1-Pad2)*%
X274925043Y-123269900D03*
%TO.P,J6m1,3,3*%
%TO.N,Net-(J6m1-Pad3)*%
X272425043Y-123269900D03*
%TD*%
D13*
%TO.P,H6,1,1*%
%TO.N,GND*%
X284133858Y-101615000D03*
D14*
%TO.P,H6,2,2*%
%TO.N,unconnected-(H6-Pad2)*%
X284133858Y-104155000D03*
%TO.P,H6,3,3*%
%TO.N,Net-(U6-A2{slash}D2)*%
X281593858Y-101615000D03*
%TO.P,H6,4,4*%
%TO.N,unconnected-(H6-Pad4)*%
X281593858Y-104155000D03*
%TO.P,H6,5,5*%
%TO.N,Net-(U6-A3{slash}D3)*%
X279053858Y-101615000D03*
%TO.P,H6,6,6*%
%TO.N,unconnected-(H6-Pad6)*%
X279053858Y-104155000D03*
%TO.P,H6,7,7*%
%TO.N,Net-(U6-D4{slash}SDA)*%
X276513858Y-101615000D03*
%TO.P,H6,8,8*%
%TO.N,unconnected-(H6-Pad8)*%
X276513858Y-104155000D03*
%TO.P,H6,9,9*%
%TO.N,Net-(U6-D5{slash}SCL)*%
X273973858Y-101615000D03*
%TO.P,H6,10,10*%
%TO.N,unconnected-(H6-Pad10)*%
X273973858Y-104155000D03*
%TD*%
D10*
%TO.P,,3*%
%TO.N,VCC*%
X235290015Y-110378000D03*
%TD*%
D12*
%TO.P,J4s1,1,1*%
%TO.N,GND*%
X226872100Y-123690000D03*
%TO.P,J4s1,2,2*%
%TO.N,Net-(U4-A7{slash}D7{slash}RX)*%
X228872101Y-123690000D03*
%TO.P,J4s1,3,3*%
%TO.N,Net-(U4-A8{slash}D8{slash}SCK)*%
X230872100Y-123690000D03*
%TO.P,J4s1,4,4*%
%TO.N,Net-(U4-A10{slash}D10{slash}MOSI)*%
X232872101Y-123690000D03*
%TO.P,J4s1,5,5*%
%TO.N,Net-(U4-A9{slash}D9{slash}MISO)*%
X234872099Y-123690000D03*
%TO.P,J4s1,6,6*%
%TO.N,Net-(U4-5V)*%
X236872100Y-123690000D03*
%TD*%
%TO.P,J10s1,1,1*%
%TO.N,GND*%
X395891085Y-123625000D03*
%TO.P,J10s1,2,2*%
%TO.N,Net-(U10-A7{slash}D7{slash}RX)*%
X397891086Y-123625000D03*
%TO.P,J10s1,3,3*%
%TO.N,Net-(U10-A8{slash}D8{slash}SCK)*%
X399891085Y-123625000D03*
%TO.P,J10s1,4,4*%
%TO.N,Net-(U10-A10{slash}D10{slash}MOSI)*%
X401891086Y-123625000D03*
%TO.P,J10s1,5,5*%
%TO.N,Net-(U10-A9{slash}D9{slash}MISO)*%
X403891084Y-123625000D03*
%TO.P,J10s1,6,6*%
%TO.N,Net-(U10-5V)*%
X405891085Y-123625000D03*
%TD*%
D18*
%TO.P,J3m1,1,1*%
%TO.N,Net-(J3m1-Pad1)*%
X192954142Y-123269900D03*
%TO.P,J3m1,2,2*%
%TO.N,Net-(J3m1-Pad2)*%
X190454142Y-123269900D03*
%TO.P,J3m1,3,3*%
%TO.N,Net-(J3m1-Pad3)*%
X187954142Y-123269900D03*
%TD*%
D11*
%TO.P,,5*%
%TO.N,GND*%
X383608000Y-101296000D03*
%TD*%
D15*
%TO.P,P1,1,1*%
%TO.N,Net-(J1m1-Pad1)*%
X140763915Y-119353000D03*
D13*
%TO.P,P1,2,2*%
%TO.N,Net-(J1m1-Pad2)*%
X138223915Y-119353000D03*
%TO.P,P1,3,3*%
%TO.N,Net-(J1m1-Pad3)*%
X135683915Y-119353000D03*
%TD*%
D16*
%TO.P,U6,1,A0/D0/DAC*%
%TO.N,unconnected-(U6-A0{slash}D0{slash}DAC-Pad1)*%
X277534943Y-81295000D03*
D17*
%TO.P,U6,2,A1/D1*%
%TO.N,unconnected-(U6-A1{slash}D1-Pad2)*%
X277534943Y-83835000D03*
%TO.P,U6,3,A2/D2*%
%TO.N,Net-(U6-A2{slash}D2)*%
X277534943Y-86375000D03*
%TO.P,U6,4,A3/D3*%
%TO.N,Net-(U6-A3{slash}D3)*%
X277534943Y-88915000D03*
%TO.P,U6,5,D4/SDA*%
%TO.N,Net-(U6-D4{slash}SDA)*%
X277534943Y-91455000D03*
%TO.P,U6,6,D5/SCL*%
%TO.N,Net-(U6-D5{slash}SCL)*%
X277534943Y-93995000D03*
%TO.P,U6,7,A6/D6/TX*%
%TO.N,unconnected-(U6-A6{slash}D6{slash}TX-Pad7)*%
X277534943Y-96535000D03*
%TO.P,U6,8,A7/D7/RX*%
%TO.N,Net-(U6-A7{slash}D7{slash}RX)*%
X292774943Y-96535000D03*
%TO.P,U6,9,A8/D8/SCK*%
%TO.N,Net-(U6-A8{slash}D8{slash}SCK)*%
X292774943Y-93995000D03*
%TO.P,U6,10,A9/D9/MISO*%
%TO.N,Net-(U6-A9{slash}D9{slash}MISO)*%
X292774943Y-91455000D03*
%TO.P,U6,11,A10/D10/MOSI*%
%TO.N,Net-(U6-A10{slash}D10{slash}MOSI)*%
X292774943Y-88915000D03*
%TO.P,U6,12,3V3*%
%TO.N,unconnected-(U6-3V3-Pad12)*%
X292774943Y-86375000D03*
%TO.P,U6,13,GND*%
%TO.N,GND*%
X292774943Y-83835000D03*
%TO.P,U6,14,5V*%
%TO.N,Net-(U6-5V)*%
X292774943Y-81295000D03*
%TD*%
D16*
%TO.P,U3,1,A0/D0/DAC*%
%TO.N,unconnected-(U3-A0{slash}D0{slash}DAC-Pad1)*%
X193064042Y-81295000D03*
D17*
%TO.P,U3,2,A1/D1*%
%TO.N,unconnected-(U3-A1{slash}D1-Pad2)*%
X193064042Y-83835000D03*
%TO.P,U3,3,A2/D2*%
%TO.N,Net-(U3-A2{slash}D2)*%
X193064042Y-86375000D03*
%TO.P,U3,4,A3/D3*%
%TO.N,Net-(U3-A3{slash}D3)*%
X193064042Y-88915000D03*
%TO.P,U3,5,D4/SDA*%
%TO.N,Net-(U3-D4{slash}SDA)*%
X193064042Y-91455000D03*
%TO.P,U3,6,D5/SCL*%
%TO.N,Net-(U3-D5{slash}SCL)*%
X193064042Y-93995000D03*
%TO.P,U3,7,A6/D6/TX*%
%TO.N,unconnected-(U3-A6{slash}D6{slash}TX-Pad7)*%
X193064042Y-96535000D03*
%TO.P,U3,8,A7/D7/RX*%
%TO.N,Net-(U3-A7{slash}D7{slash}RX)*%
X208304042Y-96535000D03*
%TO.P,U3,9,A8/D8/SCK*%
%TO.N,Net-(U3-A8{slash}D8{slash}SCK)*%
X208304042Y-93995000D03*
%TO.P,U3,10,A9/D9/MISO*%
%TO.N,Net-(U3-A9{slash}D9{slash}MISO)*%
X208304042Y-91455000D03*
%TO.P,U3,11,A10/D10/MOSI*%
%TO.N,Net-(U3-A10{slash}D10{slash}MOSI)*%
X208304042Y-88915000D03*
%TO.P,U3,12,3V3*%
%TO.N,unconnected-(U3-3V3-Pad12)*%
X208304042Y-86375000D03*
%TO.P,U3,13,GND*%
%TO.N,GND*%
X208304042Y-83835000D03*
%TO.P,U3,14,5V*%
%TO.N,Net-(U3-5V)*%
X208304042Y-81295000D03*
%TD*%
D10*
%TO.P,,3*%
%TO.N,VCC*%
X291372858Y-110378000D03*
%TD*%
%TO.P,,3*%
%TO.N,VCC*%
X404309000Y-110313000D03*
%TD*%
D11*
%TO.P,,5*%
%TO.N,GND*%
X265277858Y-101488000D03*
%TD*%
%TO.P,,5*%
%TO.N,GND*%
X377699000Y-101453000D03*
%TD*%
%TO.P,,5*%
%TO.N,GND*%
X326743000Y-101326000D03*
%TD*%
%TO.P,,5*%
%TO.N,GND*%
X214589015Y-101361000D03*
%TD*%
%TO.P,,5*%
%TO.N,GND*%
X293277858Y-101488000D03*
%TD*%
D13*
%TO.P,H10,1,1*%
%TO.N,GND*%
X397070000Y-101550000D03*
D14*
%TO.P,H10,2,2*%
%TO.N,unconnected-(H10-Pad2)*%
X397070000Y-104090000D03*
%TO.P,H10,3,3*%
%TO.N,Net-(U10-A2{slash}D2)*%
X394530000Y-101550000D03*
%TO.P,H10,4,4*%
%TO.N,unconnected-(H10-Pad4)*%
X394530000Y-104090000D03*
%TO.P,H10,5,5*%
%TO.N,Net-(U10-A3{slash}D3)*%
X391990000Y-101550000D03*
%TO.P,H10,6,6*%
%TO.N,unconnected-(H10-Pad6)*%
X391990000Y-104090000D03*
%TO.P,H10,7,7*%
%TO.N,Net-(U10-D4{slash}SDA)*%
X389450000Y-101550000D03*
%TO.P,H10,8,8*%
%TO.N,unconnected-(H10-Pad8)*%
X389450000Y-104090000D03*
%TO.P,H10,9,9*%
%TO.N,Net-(U10-D5{slash}SCL)*%
X386910000Y-101550000D03*
%TO.P,H10,10,10*%
%TO.N,unconnected-(H10-Pad10)*%
X386910000Y-104090000D03*
%TD*%
D10*
%TO.P,,3*%
%TO.N,VCC*%
X206901957Y-110378000D03*
%TD*%
D16*
%TO.P,U7,1,A0/D0/DAC*%
%TO.N,unconnected-(U7-A0{slash}D0{slash}DAC-Pad1)*%
X305483085Y-81289000D03*
D17*
%TO.P,U7,2,A1/D1*%
%TO.N,unconnected-(U7-A1{slash}D1-Pad2)*%
X305483085Y-83829000D03*
%TO.P,U7,3,A2/D2*%
%TO.N,Net-(U7-A2{slash}D2)*%
X305483085Y-86369000D03*
%TO.P,U7,4,A3/D3*%
%TO.N,Net-(U7-A3{slash}D3)*%
X305483085Y-88909000D03*
%TO.P,U7,5,D4/SDA*%
%TO.N,Net-(U7-D4{slash}SDA)*%
X305483085Y-91449000D03*
%TO.P,U7,6,D5/SCL*%
%TO.N,Net-(U7-D5{slash}SCL)*%
X305483085Y-93989000D03*
%TO.P,U7,7,A6/D6/TX*%
%TO.N,unconnected-(U7-A6{slash}D6{slash}TX-Pad7)*%
X305483085Y-96529000D03*
%TO.P,U7,8,A7/D7/RX*%
%TO.N,Net-(U7-A7{slash}D7{slash}RX)*%
X320723085Y-96529000D03*
%TO.P,U7,9,A8/D8/SCK*%
%TO.N,Net-(U7-A8{slash}D8{slash}SCK)*%
X320723085Y-93989000D03*
%TO.P,U7,10,A9/D9/MISO*%
%TO.N,Net-(U7-A9{slash}D9{slash}MISO)*%
X320723085Y-91449000D03*
%TO.P,U7,11,A10/D10/MOSI*%
%TO.N,Net-(U7-A10{slash}D10{slash}MOSI)*%
X320723085Y-88909000D03*
%TO.P,U7,12,3V3*%
%TO.N,unconnected-(U7-3V3-Pad12)*%
X320723085Y-86369000D03*
%TO.P,U7,13,GND*%
%TO.N,GND*%
X320723085Y-83829000D03*
%TO.P,U7,14,5V*%
%TO.N,Net-(U7-5V)*%
X320723085Y-81289000D03*
%TD*%
D12*
%TO.P,J8s1,1,1*%
%TO.N,GND*%
X339026085Y-123655000D03*
%TO.P,J8s1,2,2*%
%TO.N,Net-(U8-A7{slash}D7{slash}RX)*%
X341026086Y-123655000D03*
%TO.P,J8s1,3,3*%
%TO.N,Net-(U8-A8{slash}D8{slash}SCK)*%
X343026085Y-123655000D03*
%TO.P,J8s1,4,4*%
%TO.N,Net-(U8-A10{slash}D10{slash}MOSI)*%
X345026086Y-123655000D03*
%TO.P,J8s1,5,5*%
%TO.N,Net-(U8-A9{slash}D9{slash}MISO)*%
X347026084Y-123655000D03*
%TO.P,J8s1,6,6*%
%TO.N,Net-(U8-5V)*%
X349026085Y-123655000D03*
%TD*%
D11*
%TO.P,,5*%
%TO.N,GND*%
X383608000Y-118949000D03*
%TD*%
%TO.P,,5*%
%TO.N,GND*%
X242671858Y-101361000D03*
%TD*%
%TO.P,,5*%
%TO.N,GND*%
X406214000Y-118822000D03*
%TD*%
D18*
%TO.P,J10m1,1,1*%
%TO.N,Net-(J10m1-Pad1)*%
X390361185Y-123204900D03*
%TO.P,J10m1,2,2*%
%TO.N,Net-(J10m1-Pad2)*%
X387861185Y-123204900D03*
%TO.P,J10m1,3,3*%
%TO.N,Net-(J10m1-Pad3)*%
X385361185Y-123204900D03*
%TD*%
D11*
%TO.P,,5*%
%TO.N,GND*%
X237195015Y-101488000D03*
%TD*%
D18*
%TO.P,J4m1,1,1*%
%TO.N,Net-(J4m1-Pad1)*%
X221342200Y-123269900D03*
%TO.P,J4m1,2,2*%
%TO.N,Net-(J4m1-Pad2)*%
X218842200Y-123269900D03*
%TO.P,J4m1,3,3*%
%TO.N,Net-(J4m1-Pad3)*%
X216342200Y-123269900D03*
%TD*%
D16*
%TO.P,U9,1,A0/D0/DAC*%
%TO.N,unconnected-(U9-A0{slash}D0{slash}DAC-Pad1)*%
X361956085Y-81260000D03*
D17*
%TO.P,U9,2,A1/D1*%
%TO.N,unconnected-(U9-A1{slash}D1-Pad2)*%
X361956085Y-83800000D03*
%TO.P,U9,3,A2/D2*%
%TO.N,Net-(U9-A2{slash}D2)*%
X361956085Y-86340000D03*
%TO.P,U9,4,A3/D3*%
%TO.N,Net-(U9-A3{slash}D3)*%
X361956085Y-88880000D03*
%TO.P,U9,5,D4/SDA*%
%TO.N,Net-(U9-D4{slash}SDA)*%
X361956085Y-91420000D03*
%TO.P,U9,6,D5/SCL*%
%TO.N,Net-(U9-D5{slash}SCL)*%
X361956085Y-93960000D03*
%TO.P,U9,7,A6/D6/TX*%
%TO.N,unconnected-(U9-A6{slash}D6{slash}TX-Pad7)*%
X361956085Y-96500000D03*
%TO.P,U9,8,A7/D7/RX*%
%TO.N,Net-(U9-A7{slash}D7{slash}RX)*%
X377196085Y-96500000D03*
%TO.P,U9,9,A8/D8/SCK*%
%TO.N,Net-(U9-A8{slash}D8{slash}SCK)*%
X377196085Y-93960000D03*
%TO.P,U9,10,A9/D9/MISO*%
%TO.N,Net-(U9-A9{slash}D9{slash}MISO)*%
X377196085Y-91420000D03*
%TO.P,U9,11,A10/D10/MOSI*%
%TO.N,Net-(U9-A10{slash}D10{slash}MOSI)*%
X377196085Y-88880000D03*
%TO.P,U9,12,3V3*%
%TO.N,unconnected-(U9-3V3-Pad12)*%
X377196085Y-86340000D03*
%TO.P,U9,13,GND*%
%TO.N,GND*%
X377196085Y-83800000D03*
%TO.P,U9,14,5V*%
%TO.N,Net-(U9-5V)*%
X377196085Y-81260000D03*
%TD*%
D13*
%TO.P,H9,1,1*%
%TO.N,GND*%
X368555000Y-101580000D03*
D14*
%TO.P,H9,2,2*%
%TO.N,unconnected-(H9-Pad2)*%
X368555000Y-104120000D03*
%TO.P,H9,3,3*%
%TO.N,Net-(U9-A2{slash}D2)*%
X366015000Y-101580000D03*
%TO.P,H9,4,4*%
%TO.N,unconnected-(H9-Pad4)*%
X366015000Y-104120000D03*
%TO.P,H9,5,5*%
%TO.N,Net-(U9-A3{slash}D3)*%
X363475000Y-101580000D03*
%TO.P,H9,6,6*%
%TO.N,unconnected-(H9-Pad6)*%
X363475000Y-104120000D03*
%TO.P,H9,7,7*%
%TO.N,Net-(U9-D4{slash}SDA)*%
X360935000Y-101580000D03*
%TO.P,H9,8,8*%
%TO.N,unconnected-(H9-Pad8)*%
X360935000Y-104120000D03*
%TO.P,H9,9,9*%
%TO.N,Net-(U9-D5{slash}SCL)*%
X358395000Y-101580000D03*
%TO.P,H9,10,10*%
%TO.N,unconnected-(H9-Pad10)*%
X358395000Y-104120000D03*
%TD*%
D11*
%TO.P,Pad_gge5349,5*%
%TO.N,GND*%
X129841915Y-119099000D03*
%TD*%
D10*
%TO.P,,3*%
%TO.N,VCC*%
X263372858Y-110378000D03*
%TD*%
D11*
%TO.P,,5*%
%TO.N,GND*%
X270671858Y-119014000D03*
%TD*%
D16*
%TO.P,U2,1,A0/D0/DAC*%
%TO.N,unconnected-(U2-A0{slash}D0{slash}DAC-Pad1)*%
X164650000Y-81295000D03*
D17*
%TO.P,U2,2,A1/D1*%
%TO.N,unconnected-(U2-A1{slash}D1-Pad2)*%
X164650000Y-83835000D03*
%TO.P,U2,3,A2/D2*%
%TO.N,Net-(U2-A2{slash}D2)*%
X164650000Y-86375000D03*
%TO.P,U2,4,A3/D3*%
%TO.N,Net-(U2-A3{slash}D3)*%
X164650000Y-88915000D03*
%TO.P,U2,5,D4/SDA*%
%TO.N,Net-(U2-D4{slash}SDA)*%
X164650000Y-91455000D03*
%TO.P,U2,6,D5/SCL*%
%TO.N,Net-(U2-D5{slash}SCL)*%
X164650000Y-93995000D03*
%TO.P,U2,7,A6/D6/TX*%
%TO.N,unconnected-(U2-A6{slash}D6{slash}TX-Pad7)*%
X164650000Y-96535000D03*
%TO.P,U2,8,A7/D7/RX*%
%TO.N,Net-(U2-A7{slash}D7{slash}RX)*%
X179890000Y-96535000D03*
%TO.P,U2,9,A8/D8/SCK*%
%TO.N,Net-(U2-A8{slash}D8{slash}SCK)*%
X179890000Y-93995000D03*
%TO.P,U2,10,A9/D9/MISO*%
%TO.N,Net-(U2-A9{slash}D9{slash}MISO)*%
X179890000Y-91455000D03*
%TO.P,U2,11,A10/D10/MOSI*%
%TO.N,Net-(U2-A10{slash}D10{slash}MOSI)*%
X179890000Y-88915000D03*
%TO.P,U2,12,3V3*%
%TO.N,unconnected-(U2-3V3-Pad12)*%
X179890000Y-86375000D03*
%TO.P,U2,13,GND*%
%TO.N,GND*%
X179890000Y-83835000D03*
%TO.P,U2,14,5V*%
%TO.N,Net-(U2-5V)*%
X179890000Y-81295000D03*
%TD*%
D10*
%TO.P,,2*%
%TO.N,GND*%
X291372858Y-105425000D03*
%TD*%
D11*
%TO.P,,5*%
%TO.N,GND*%
X265277858Y-118887000D03*
%TD*%
%TO.P,,5*%
%TO.N,GND*%
X157786915Y-119014000D03*
%TD*%
%TO.P,,5*%
%TO.N,GND*%
X377699000Y-118852000D03*
%TD*%
D10*
%TO.P,,2*%
%TO.N,GND*%
X178487915Y-105425000D03*
%TD*%
D13*
%TO.P,H8,1,1*%
%TO.N,GND*%
X340205000Y-101580000D03*
D14*
%TO.P,H8,2,2*%
%TO.N,unconnected-(H8-Pad2)*%
X340205000Y-104120000D03*
%TO.P,H8,3,3*%
%TO.N,Net-(U8-A2{slash}D2)*%
X337665000Y-101580000D03*
%TO.P,H8,4,4*%
%TO.N,unconnected-(H8-Pad4)*%
X337665000Y-104120000D03*
%TO.P,H8,5,5*%
%TO.N,Net-(U8-A3{slash}D3)*%
X335125000Y-101580000D03*
%TO.P,H8,6,6*%
%TO.N,unconnected-(H8-Pad6)*%
X335125000Y-104120000D03*
%TO.P,H8,7,7*%
%TO.N,Net-(U8-D4{slash}SDA)*%
X332585000Y-101580000D03*
%TO.P,H8,8,8*%
%TO.N,unconnected-(H8-Pad8)*%
X332585000Y-104120000D03*
%TO.P,H8,9,9*%
%TO.N,Net-(U8-D5{slash}SCL)*%
X330045000Y-101580000D03*
%TO.P,H8,10,10*%
%TO.N,unconnected-(H8-Pad10)*%
X330045000Y-104120000D03*
%TD*%
D11*
%TO.P,,5*%
%TO.N,GND*%
X355093000Y-118979000D03*
%TD*%
D15*
%TO.P,P3,1,1*%
%TO.N,Net-(J3m1-Pad1)*%
X197122957Y-119268000D03*
D13*
%TO.P,P3,2,2*%
%TO.N,Net-(J3m1-Pad2)*%
X194582957Y-119268000D03*
%TO.P,P3,3,3*%
%TO.N,Net-(J3m1-Pad3)*%
X192042957Y-119268000D03*
%TD*%
D10*
%TO.P,,2*%
%TO.N,GND*%
X375794000Y-105390000D03*
%TD*%
D15*
%TO.P,P7,1,1*%
%TO.N,Net-(J7m1-Pad1)*%
X309542000Y-119262000D03*
D13*
%TO.P,P7,2,2*%
%TO.N,Net-(J7m1-Pad2)*%
X307002000Y-119262000D03*
%TO.P,P7,3,3*%
%TO.N,Net-(J7m1-Pad3)*%
X304462000Y-119262000D03*
%TD*%
%TO.P,H2,1,1*%
%TO.N,GND*%
X171248915Y-101615000D03*
D14*
%TO.P,H2,2,2*%
%TO.N,unconnected-(H2-Pad2)*%
X171248915Y-104155000D03*
%TO.P,H2,3,3*%
%TO.N,Net-(U2-A2{slash}D2)*%
X168708915Y-101615000D03*
%TO.P,H2,4,4*%
%TO.N,unconnected-(H2-Pad4)*%
X168708915Y-104155000D03*
%TO.P,H2,5,5*%
%TO.N,Net-(U2-A3{slash}D3)*%
X166168915Y-101615000D03*
%TO.P,H2,6,6*%
%TO.N,unconnected-(H2-Pad6)*%
X166168915Y-104155000D03*
%TO.P,H2,7,7*%
%TO.N,Net-(U2-D4{slash}SDA)*%
X163628915Y-101615000D03*
%TO.P,H2,8,8*%
%TO.N,unconnected-(H2-Pad8)*%
X163628915Y-104155000D03*
%TO.P,H2,9,9*%
%TO.N,Net-(U2-D5{slash}SCL)*%
X161088915Y-101615000D03*
%TO.P,H2,10,10*%
%TO.N,unconnected-(H2-Pad10)*%
X161088915Y-104155000D03*
%TD*%
D12*
%TO.P,J3s1,1,1*%
%TO.N,GND*%
X198484042Y-123690000D03*
%TO.P,J3s1,2,2*%
%TO.N,Net-(U3-A7{slash}D7{slash}RX)*%
X200484043Y-123690000D03*
%TO.P,J3s1,3,3*%
%TO.N,Net-(U3-A8{slash}D8{slash}SCK)*%
X202484042Y-123690000D03*
%TO.P,J3s1,4,4*%
%TO.N,Net-(U3-A10{slash}D10{slash}MOSI)*%
X204484043Y-123690000D03*
%TO.P,J3s1,5,5*%
%TO.N,Net-(U3-A9{slash}D9{slash}MISO)*%
X206484041Y-123690000D03*
%TO.P,J3s1,6,6*%
%TO.N,Net-(U3-5V)*%
X208484042Y-123690000D03*
%TD*%
D11*
%TO.P,,5*%
%TO.N,GND*%
X349349000Y-118852000D03*
%TD*%
D18*
%TO.P,J7m1,1,1*%
%TO.N,Net-(J7m1-Pad1)*%
X305373185Y-123263900D03*
%TO.P,J7m1,2,2*%
%TO.N,Net-(J7m1-Pad2)*%
X302873185Y-123263900D03*
%TO.P,J7m1,3,3*%
%TO.N,Net-(J7m1-Pad3)*%
X300373185Y-123263900D03*
%TD*%
D16*
%TO.P,U4,1,A0/D0/DAC*%
%TO.N,unconnected-(U4-A0{slash}D0{slash}DAC-Pad1)*%
X221452100Y-81295000D03*
D17*
%TO.P,U4,2,A1/D1*%
%TO.N,unconnected-(U4-A1{slash}D1-Pad2)*%
X221452100Y-83835000D03*
%TO.P,U4,3,A2/D2*%
%TO.N,Net-(U4-A2{slash}D2)*%
X221452100Y-86375000D03*
%TO.P,U4,4,A3/D3*%
%TO.N,Net-(U4-A3{slash}D3)*%
X221452100Y-88915000D03*
%TO.P,U4,5,D4/SDA*%
%TO.N,Net-(U4-D4{slash}SDA)*%
X221452100Y-91455000D03*
%TO.P,U4,6,D5/SCL*%
%TO.N,Net-(U4-D5{slash}SCL)*%
X221452100Y-93995000D03*
%TO.P,U4,7,A6/D6/TX*%
%TO.N,unconnected-(U4-A6{slash}D6{slash}TX-Pad7)*%
X221452100Y-96535000D03*
%TO.P,U4,8,A7/D7/RX*%
%TO.N,Net-(U4-A7{slash}D7{slash}RX)*%
X236692100Y-96535000D03*
%TO.P,U4,9,A8/D8/SCK*%
%TO.N,Net-(U4-A8{slash}D8{slash}SCK)*%
X236692100Y-93995000D03*
%TO.P,U4,10,A9/D9/MISO*%
%TO.N,Net-(U4-A9{slash}D9{slash}MISO)*%
X236692100Y-91455000D03*
%TO.P,U4,11,A10/D10/MOSI*%
%TO.N,Net-(U4-A10{slash}D10{slash}MOSI)*%
X236692100Y-88915000D03*
%TO.P,U4,12,3V3*%
%TO.N,unconnected-(U4-3V3-Pad12)*%
X236692100Y-86375000D03*
%TO.P,U4,13,GND*%
%TO.N,GND*%
X236692100Y-83835000D03*
%TO.P,U4,14,5V*%
%TO.N,Net-(U4-5V)*%
X236692100Y-81295000D03*
%TD*%
D11*
%TO.P,,5*%
%TO.N,GND*%
X406214000Y-101423000D03*
%TD*%
D22*
%TO.N,GND*%
X383608000Y-101296000D02*
X383608000Y-118949000D01*
X355093000Y-101326000D02*
X355093000Y-118979000D01*
X326743000Y-101326000D02*
X326743000Y-118979000D01*
X298620000Y-101355000D02*
X298620000Y-119008000D01*
X214589015Y-101361000D02*
X214589015Y-119014000D01*
X242671858Y-101361000D02*
X242671858Y-119014000D01*
X270671858Y-101361000D02*
X270671858Y-119014000D01*
X186200957Y-101361000D02*
X186200957Y-119014000D01*
X157786915Y-101361000D02*
X157786915Y-119014000D01*
D23*
%TO.N,Net-(U1-A9{slash}D9{slash}MISO)*%
X153925000Y-120025000D02*
X153925000Y-93520000D01*
X150175000Y-123775000D02*
X153925000Y-120025000D01*
X150124999Y-123775000D02*
X150175000Y-123775000D01*
X153925000Y-93520000D02*
X151945000Y-91540000D01*
%TO.N,Net-(U1-A8{slash}D8{slash}SCK)*%
X145190000Y-124710000D02*
X143737711Y-124710000D01*
X143737711Y-124710000D02*
X143190001Y-124162290D01*
X143190001Y-124162290D02*
X143190001Y-122684999D01*
X146125000Y-123775000D02*
X145190000Y-124710000D01*
X143190001Y-122684999D02*
X147625000Y-118250000D01*
X147625000Y-118250000D02*
X147625000Y-98400000D01*
X147625000Y-98400000D02*
X151945000Y-94080000D01*
%TO.N,Net-(U1-A10{slash}D10{slash}MOSI)*%
X141175000Y-124147290D02*
X141175000Y-122775000D01*
X146775000Y-94170000D02*
X151945000Y-89000000D01*
X146790001Y-125110000D02*
X142137710Y-125110000D01*
X141175000Y-122775000D02*
X146775000Y-117175000D01*
X146775000Y-117175000D02*
X146775000Y-94170000D01*
X142137710Y-125110000D02*
X141175000Y-124147290D01*
X148125001Y-123775000D02*
X146790001Y-125110000D01*
%TO.N,Net-(U1-A7{slash}D7{slash}RX)*%
X151945000Y-99030000D02*
X151945000Y-96620000D01*
X148625000Y-102350000D02*
X151945000Y-99030000D01*
X144125001Y-123775000D02*
X148625000Y-119275001D01*
X148625000Y-119275001D02*
X148625000Y-102350000D01*
%TO.N,Net-(U2-A3{slash}D3)*%
X167018915Y-100765000D02*
X167018915Y-91283915D01*
X167018915Y-91283915D02*
X164650000Y-88915000D01*
X166168915Y-101615000D02*
X167018915Y-100765000D01*
%TO.N,Net-(U1-D5{slash}SCL)*%
X133143915Y-97641085D02*
X136705000Y-94080000D01*
X133143915Y-101700000D02*
X133143915Y-97641085D01*
%TO.N,Net-(U1-A2{slash}D2)*%
X140763915Y-90518915D02*
X136705000Y-86460000D01*
X140763915Y-101700000D02*
X140763915Y-90518915D01*
%TO.N,Net-(U1-A3{slash}D3)*%
X138223915Y-101700000D02*
X139073915Y-100850000D01*
X139073915Y-100850000D02*
X139073915Y-91368915D01*
X139073915Y-91368915D02*
X136705000Y-89000000D01*
%TO.N,Net-(U1-D4{slash}SDA)*%
X135683915Y-101700000D02*
X137905000Y-99478915D01*
X137905000Y-92740000D02*
X136705000Y-91540000D01*
X137905000Y-99478915D02*
X137905000Y-92740000D01*
%TO.N,Net-(U1-5V)*%
X154325000Y-121575000D02*
X154325000Y-83760000D01*
X152125000Y-123775000D02*
X154325000Y-121575000D01*
X154325000Y-83760000D02*
X151945000Y-81380000D01*
%TO.N,Net-(U2-D5{slash}SCL)*%
X161088915Y-97556085D02*
X164650000Y-93995000D01*
X161088915Y-101615000D02*
X161088915Y-97556085D01*
%TO.N,Net-(U2-A2{slash}D2)*%
X168708915Y-101615000D02*
X168708915Y-90433915D01*
X168708915Y-90433915D02*
X164650000Y-86375000D01*
%TO.N,Net-(U2-D4{slash}SDA)*%
X163628915Y-101615000D02*
X165850000Y-99393915D01*
X165850000Y-92655000D02*
X164650000Y-91455000D01*
X165850000Y-99393915D02*
X165850000Y-92655000D01*
%TO.N,Net-(U3-A3{slash}D3)*%
X195432957Y-100765000D02*
X195432957Y-91283915D01*
X195432957Y-91283915D02*
X193064042Y-88915000D01*
X194582957Y-101615000D02*
X195432957Y-100765000D01*
%TO.N,Net-(U3-A2{slash}D2)*%
X197122957Y-101615000D02*
X197122957Y-90433915D01*
X197122957Y-90433915D02*
X193064042Y-86375000D01*
%TO.N,Net-(U3-D4{slash}SDA)*%
X192042957Y-101615000D02*
X194264042Y-99393915D01*
X194264042Y-92655000D02*
X193064042Y-91455000D01*
X194264042Y-99393915D02*
X194264042Y-92655000D01*
%TO.N,Net-(U3-D5{slash}SCL)*%
X189502957Y-101615000D02*
X189502957Y-97556085D01*
X189502957Y-97556085D02*
X193064042Y-93995000D01*
%TO.N,Net-(U4-A3{slash}D3)*%
X223821015Y-100765000D02*
X223821015Y-91283915D01*
X223821015Y-91283915D02*
X221452100Y-88915000D01*
X222971015Y-101615000D02*
X223821015Y-100765000D01*
%TO.N,Net-(U4-A2{slash}D2)*%
X225511015Y-101615000D02*
X225511015Y-90433915D01*
X225511015Y-90433915D02*
X221452100Y-86375000D01*
%TO.N,Net-(U4-D4{slash}SDA)*%
X222652100Y-92655000D02*
X221452100Y-91455000D01*
X220431015Y-101615000D02*
X222652100Y-99393915D01*
X222652100Y-99393915D02*
X222652100Y-92655000D01*
%TO.N,Net-(U4-D5{slash}SCL)*%
X217891015Y-97556085D02*
X221452100Y-93995000D01*
X217891015Y-101615000D02*
X217891015Y-97556085D01*
%TO.N,Net-(U5-A2{slash}D2)*%
X253593858Y-101615000D02*
X253593858Y-90433915D01*
X253593858Y-90433915D02*
X249534943Y-86375000D01*
%TO.N,Net-(U5-D4{slash}SDA)*%
X250734943Y-99393915D02*
X250734943Y-92655000D01*
X248513858Y-101615000D02*
X250734943Y-99393915D01*
X250734943Y-92655000D02*
X249534943Y-91455000D01*
%TO.N,Net-(U5-D5{slash}SCL)*%
X245973858Y-97556085D02*
X249534943Y-93995000D01*
X245973858Y-101615000D02*
X245973858Y-97556085D01*
%TO.N,Net-(U5-A3{slash}D3)*%
X251053858Y-101615000D02*
X251903858Y-100765000D01*
X251903858Y-91283915D02*
X249534943Y-88915000D01*
X251903858Y-100765000D02*
X251903858Y-91283915D01*
%TO.N,Net-(U6-A2{slash}D2)*%
X281593858Y-90433915D02*
X277534943Y-86375000D01*
X281593858Y-101615000D02*
X281593858Y-90433915D01*
%TO.N,Net-(U6-D4{slash}SDA)*%
X278734943Y-99393915D02*
X278734943Y-92655000D01*
X276513858Y-101615000D02*
X278734943Y-99393915D01*
X278734943Y-92655000D02*
X277534943Y-91455000D01*
%TO.N,Net-(U6-D5{slash}SCL)*%
X273973858Y-97556085D02*
X277534943Y-93995000D01*
X273973858Y-101615000D02*
X273973858Y-97556085D01*
%TO.N,Net-(U6-A3{slash}D3)*%
X279903858Y-100765000D02*
X279903858Y-91283915D01*
X279903858Y-91283915D02*
X277534943Y-88915000D01*
X279053858Y-101615000D02*
X279903858Y-100765000D01*
%TO.N,Net-(U7-A3{slash}D3)*%
X307852000Y-100759000D02*
X307852000Y-91277915D01*
X307002000Y-101609000D02*
X307852000Y-100759000D01*
X307852000Y-91277915D02*
X305483085Y-88909000D01*
%TO.N,Net-(U7-D5{slash}SCL)*%
X301922000Y-101609000D02*
X301922000Y-97550085D01*
X301922000Y-97550085D02*
X305483085Y-93989000D01*
%TO.N,Net-(U7-D4{slash}SDA)*%
X304462000Y-101609000D02*
X306683085Y-99387915D01*
X306683085Y-99387915D02*
X306683085Y-92649000D01*
X306683085Y-92649000D02*
X305483085Y-91449000D01*
%TO.N,Net-(U7-A2{slash}D2)*%
X309542000Y-90427915D02*
X305483085Y-86369000D01*
X309542000Y-101609000D02*
X309542000Y-90427915D01*
%TO.N,Net-(U8-A2{slash}D2)*%
X337665000Y-90398915D02*
X333606085Y-86340000D01*
X337665000Y-101580000D02*
X337665000Y-90398915D01*
%TO.N,Net-(U8-D5{slash}SCL)*%
X330045000Y-97521085D02*
X333606085Y-93960000D01*
X330045000Y-101580000D02*
X330045000Y-97521085D01*
%TO.N,Net-(U8-D4{slash}SDA)*%
X334806085Y-99358915D02*
X334806085Y-92620000D01*
X332585000Y-101580000D02*
X334806085Y-99358915D01*
X334806085Y-92620000D02*
X333606085Y-91420000D01*
%TO.N,Net-(U8-A3{slash}D3)*%
X335125000Y-101580000D02*
X335975000Y-100730000D01*
X335975000Y-91248915D02*
X333606085Y-88880000D01*
X335975000Y-100730000D02*
X335975000Y-91248915D01*
%TO.N,Net-(U9-A2{slash}D2)*%
X366015000Y-90398915D02*
X361956085Y-86340000D01*
X366015000Y-101580000D02*
X366015000Y-90398915D01*
%TO.N,Net-(U9-D4{slash}SDA)*%
X363156085Y-99358915D02*
X363156085Y-92620000D01*
X360935000Y-101580000D02*
X363156085Y-99358915D01*
X363156085Y-92620000D02*
X361956085Y-91420000D01*
%TO.N,Net-(U9-D5{slash}SCL)*%
X358395000Y-101580000D02*
X358395000Y-97521085D01*
X358395000Y-97521085D02*
X361956085Y-93960000D01*
%TO.N,Net-(U9-A3{slash}D3)*%
X363475000Y-101580000D02*
X364325000Y-100730000D01*
X364325000Y-100730000D02*
X364325000Y-91248915D01*
X364325000Y-91248915D02*
X361956085Y-88880000D01*
%TO.N,Net-(U10-A3{slash}D3)*%
X392840000Y-91218915D02*
X390471085Y-88850000D01*
X392840000Y-100700000D02*
X392840000Y-91218915D01*
X391990000Y-101550000D02*
X392840000Y-100700000D01*
%TO.N,Net-(U10-D5{slash}SCL)*%
X386910000Y-101550000D02*
X386910000Y-97491085D01*
X386910000Y-97491085D02*
X390471085Y-93930000D01*
%TO.N,Net-(U10-D4{slash}SDA)*%
X391671085Y-92590000D02*
X390471085Y-91390000D01*
X391671085Y-99328915D02*
X391671085Y-92590000D01*
X389450000Y-101550000D02*
X391671085Y-99328915D01*
%TO.N,Net-(U10-A2{slash}D2)*%
X394530000Y-90368915D02*
X390471085Y-86310000D01*
X394530000Y-101550000D02*
X394530000Y-90368915D01*
D22*
%TO.N,Net-(J1m1-Pad3)*%
X135683915Y-119353000D02*
X131682015Y-123354900D01*
D23*
X131682015Y-123354900D02*
X131595100Y-123354900D01*
D22*
%TO.N,Net-(J1m1-Pad2)*%
X138223915Y-119353000D02*
X134222015Y-123354900D01*
D23*
X134222015Y-123354900D02*
X134095100Y-123354900D01*
%TO.N,Net-(J1m1-Pad1)*%
X140763915Y-119353000D02*
X140597000Y-119353000D01*
D22*
X140597000Y-119353000D02*
X136595100Y-123354900D01*
D23*
%TO.N,Net-(J2m1-Pad2)*%
X162167015Y-123269900D02*
X162040100Y-123269900D01*
D22*
X166168915Y-119268000D02*
X162167015Y-123269900D01*
D23*
%TO.N,Net-(J2m1-Pad3)*%
X159627015Y-123269900D02*
X159540100Y-123269900D01*
D22*
X163628915Y-119268000D02*
X159627015Y-123269900D01*
%TO.N,Net-(J2m1-Pad1)*%
X168542000Y-119268000D02*
X164540100Y-123269900D01*
D23*
X168708915Y-119268000D02*
X168542000Y-119268000D01*
%TO.N,Net-(U2-A7{slash}D7{slash}RX)*%
X176570000Y-119190001D02*
X176570000Y-102005000D01*
X172070001Y-123690000D02*
X176570000Y-119190001D01*
X179890000Y-98685000D02*
X179890000Y-96535000D01*
X176570000Y-102005000D02*
X179890000Y-98685000D01*
%TO.N,Net-(U2-A10{slash}D10{slash}MOSI)*%
X176070001Y-123690000D02*
X174735001Y-125025000D01*
X174720000Y-117090000D02*
X174720000Y-94085000D01*
X174735001Y-125025000D02*
X170082710Y-125025000D01*
X170082710Y-125025000D02*
X169120000Y-124062290D01*
X169120000Y-122690000D02*
X174720000Y-117090000D01*
X169120000Y-124062290D02*
X169120000Y-122690000D01*
X174720000Y-94085000D02*
X179890000Y-88915000D01*
%TO.N,Net-(U2-A8{slash}D8{slash}SCK)*%
X171682711Y-124625000D02*
X171135001Y-124077290D01*
X175570000Y-98315000D02*
X179890000Y-93995000D01*
X174070000Y-123690000D02*
X173135000Y-124625000D01*
X175570000Y-118165000D02*
X175570000Y-98315000D01*
X171135001Y-122599999D02*
X175570000Y-118165000D01*
X173135000Y-124625000D02*
X171682711Y-124625000D01*
X171135001Y-124077290D02*
X171135001Y-122599999D01*
%TO.N,Net-(U2-A9{slash}D9{slash}MISO)*%
X181975000Y-93540000D02*
X179890000Y-91455000D01*
X181975000Y-119835000D02*
X181975000Y-93540000D01*
X178069999Y-123690000D02*
X178120000Y-123690000D01*
X178120000Y-123690000D02*
X181975000Y-119835000D01*
%TO.N,Net-(U2-5V)*%
X182425000Y-83830000D02*
X179890000Y-81295000D01*
X182425000Y-121335000D02*
X182425000Y-83830000D01*
X180070000Y-123690000D02*
X182425000Y-121335000D01*
D22*
%TO.N,Net-(J3m1-Pad2)*%
X194582957Y-119268000D02*
X190581057Y-123269900D01*
D23*
X190581057Y-123269900D02*
X190454142Y-123269900D01*
%TO.N,Net-(J3m1-Pad3)*%
X188041057Y-123269900D02*
X187954142Y-123269900D01*
D22*
X192042957Y-119268000D02*
X188041057Y-123269900D01*
D23*
%TO.N,Net-(J3m1-Pad1)*%
X197122957Y-119268000D02*
X196956042Y-119268000D01*
D22*
X196956042Y-119268000D02*
X192954142Y-123269900D01*
D23*
%TO.N,Net-(U3-5V)*%
X210850000Y-83840958D02*
X208304042Y-81295000D01*
X210850000Y-121324042D02*
X210850000Y-83840958D01*
X208484042Y-123690000D02*
X210850000Y-121324042D01*
%TO.N,Net-(U3-A7{slash}D7{slash}RX)*%
X208304042Y-99020958D02*
X208304042Y-96535000D01*
X200484043Y-123690000D02*
X204984042Y-119190001D01*
X204984042Y-119190001D02*
X204984042Y-102340958D01*
X204984042Y-102340958D02*
X208304042Y-99020958D01*
%TO.N,Net-(U3-A9{slash}D9{slash}MISO)*%
X210450000Y-93600958D02*
X208304042Y-91455000D01*
X206484041Y-123690000D02*
X206534042Y-123690000D01*
X206534042Y-123690000D02*
X210450000Y-119774042D01*
X210450000Y-119774042D02*
X210450000Y-93600958D01*
%TO.N,Net-(U3-A10{slash}D10{slash}MOSI)*%
X198496752Y-125025000D02*
X197534042Y-124062290D01*
X197534042Y-122690000D02*
X203134042Y-117090000D01*
X204484043Y-123690000D02*
X203149043Y-125025000D01*
X197534042Y-124062290D02*
X197534042Y-122690000D01*
X203149043Y-125025000D02*
X198496752Y-125025000D01*
X203134042Y-117090000D02*
X203134042Y-94085000D01*
X203134042Y-94085000D02*
X208304042Y-88915000D01*
%TO.N,Net-(U3-A8{slash}D8{slash}SCK)*%
X203984042Y-118165000D02*
X203984042Y-98315000D01*
X199549043Y-124077290D02*
X199549043Y-122599999D01*
X202484042Y-123690000D02*
X201549042Y-124625000D01*
X203984042Y-98315000D02*
X208304042Y-93995000D01*
X201549042Y-124625000D02*
X200096753Y-124625000D01*
X200096753Y-124625000D02*
X199549043Y-124077290D01*
X199549043Y-122599999D02*
X203984042Y-118165000D01*
D22*
%TO.N,Net-(J4m1-Pad2)*%
X222971015Y-119268000D02*
X218969115Y-123269900D01*
D23*
X218969115Y-123269900D02*
X218842200Y-123269900D01*
D22*
%TO.N,Net-(J4m1-Pad1)*%
X225344100Y-119268000D02*
X221342200Y-123269900D01*
D23*
X225511015Y-119268000D02*
X225344100Y-119268000D01*
%TO.N,Net-(J4m1-Pad3)*%
X216429115Y-123269900D02*
X216342200Y-123269900D01*
D22*
X220431015Y-119268000D02*
X216429115Y-123269900D01*
D23*
%TO.N,Net-(U4-A9{slash}D9{slash}MISO)*%
X234872099Y-123690000D02*
X234922100Y-123690000D01*
X238750000Y-119862100D02*
X238750000Y-93512900D01*
X238750000Y-93512900D02*
X236692100Y-91455000D01*
X234922100Y-123690000D02*
X238750000Y-119862100D01*
%TO.N,Net-(U4-A8{slash}D8{slash}SCK)*%
X228484811Y-124625000D02*
X227937101Y-124077290D01*
X227937101Y-124077290D02*
X227937101Y-122599999D01*
X230872100Y-123690000D02*
X229937100Y-124625000D01*
X232372100Y-98315000D02*
X236692100Y-93995000D01*
X229937100Y-124625000D02*
X228484811Y-124625000D01*
X232372100Y-118165000D02*
X232372100Y-98315000D01*
X227937101Y-122599999D02*
X232372100Y-118165000D01*
%TO.N,Net-(U4-5V)*%
X239175000Y-121387100D02*
X239175000Y-83777900D01*
X236872100Y-123690000D02*
X239175000Y-121387100D01*
X239175000Y-83777900D02*
X236692100Y-81295000D01*
%TO.N,Net-(U4-A10{slash}D10{slash}MOSI)*%
X231537101Y-125025000D02*
X226884810Y-125025000D01*
X225922100Y-122690000D02*
X231522100Y-117090000D01*
X232872101Y-123690000D02*
X231537101Y-125025000D01*
X226884810Y-125025000D02*
X225922100Y-124062290D01*
X231522100Y-117090000D02*
X231522100Y-94085000D01*
X231522100Y-94085000D02*
X236692100Y-88915000D01*
X225922100Y-124062290D02*
X225922100Y-122690000D01*
%TO.N,Net-(U4-A7{slash}D7{slash}RX)*%
X233372100Y-119190001D02*
X233372100Y-102502900D01*
X233372100Y-102502900D02*
X236692100Y-99182900D01*
X228872101Y-123690000D02*
X233372100Y-119190001D01*
X236692100Y-99182900D02*
X236692100Y-96535000D01*
D22*
%TO.N,Net-(J5m1-Pad2)*%
X251053858Y-119268000D02*
X247051958Y-123269900D01*
D23*
X247051958Y-123269900D02*
X246925043Y-123269900D01*
%TO.N,Net-(J5m1-Pad3)*%
X244511958Y-123269900D02*
X244425043Y-123269900D01*
D22*
X248513858Y-119268000D02*
X244511958Y-123269900D01*
%TO.N,Net-(J5m1-Pad1)*%
X253426943Y-119268000D02*
X249425043Y-123269900D01*
D23*
X253593858Y-119268000D02*
X253426943Y-119268000D01*
%TO.N,Net-(U5-A10{slash}D10{slash}MOSI)*%
X259604943Y-94085000D02*
X264774943Y-88915000D01*
X254004943Y-122690000D02*
X259604943Y-117090000D01*
X254004943Y-124062290D02*
X254004943Y-122690000D01*
X259604943Y-117090000D02*
X259604943Y-94085000D01*
X259619944Y-125025000D02*
X254967653Y-125025000D01*
X254967653Y-125025000D02*
X254004943Y-124062290D01*
X260954944Y-123690000D02*
X259619944Y-125025000D01*
%TO.N,Net-(U5-5V)*%
X264954943Y-123690000D02*
X267450000Y-121194943D01*
X267450000Y-121194943D02*
X267450000Y-83970057D01*
X267450000Y-83970057D02*
X264774943Y-81295000D01*
%TO.N,Net-(U5-A8{slash}D8{slash}SCK)*%
X258019943Y-124625000D02*
X256567654Y-124625000D01*
X258954943Y-123690000D02*
X258019943Y-124625000D01*
X256567654Y-124625000D02*
X256019944Y-124077290D01*
X260454943Y-118165000D02*
X260454943Y-98315000D01*
X260454943Y-98315000D02*
X264774943Y-93995000D01*
X256019944Y-122599999D02*
X260454943Y-118165000D01*
X256019944Y-124077290D02*
X256019944Y-122599999D01*
%TO.N,Net-(U5-A9{slash}D9{slash}MISO)*%
X262954942Y-123690000D02*
X263004943Y-123690000D01*
X263004943Y-123690000D02*
X266925000Y-119769943D01*
X266925000Y-93605057D02*
X264774943Y-91455000D01*
X266925000Y-119769943D02*
X266925000Y-93605057D01*
%TO.N,Net-(U5-A7{slash}D7{slash}RX)*%
X256954944Y-123690000D02*
X261454943Y-119190001D01*
X261454943Y-119190001D02*
X261454943Y-102495057D01*
X261454943Y-102495057D02*
X264774943Y-99175057D01*
X264774943Y-99175057D02*
X264774943Y-96535000D01*
%TO.N,Net-(J6m1-Pad1)*%
X281593858Y-119268000D02*
X281426943Y-119268000D01*
D22*
X281426943Y-119268000D02*
X277425043Y-123269900D01*
D23*
%TO.N,Net-(J6m1-Pad2)*%
X275051958Y-123269900D02*
X274925043Y-123269900D01*
D22*
X279053858Y-119268000D02*
X275051958Y-123269900D01*
%TO.N,Net-(J6m1-Pad3)*%
X276513858Y-119268000D02*
X272511958Y-123269900D01*
D23*
X272511958Y-123269900D02*
X272425043Y-123269900D01*
%TO.N,Net-(U6-A9{slash}D9{slash}MISO)*%
X295000000Y-93680057D02*
X292774943Y-91455000D01*
X291004943Y-123690000D02*
X295000000Y-119694943D01*
X295000000Y-119694943D02*
X295000000Y-93680057D01*
X290954942Y-123690000D02*
X291004943Y-123690000D01*
%TO.N,Net-(U6-A10{slash}D10{slash}MOSI)*%
X282004943Y-124062290D02*
X282004943Y-122690000D01*
X287619944Y-125025000D02*
X282967653Y-125025000D01*
X282967653Y-125025000D02*
X282004943Y-124062290D01*
X287604943Y-117090000D02*
X287604943Y-94085000D01*
X287604943Y-94085000D02*
X292774943Y-88915000D01*
X282004943Y-122690000D02*
X287604943Y-117090000D01*
X288954944Y-123690000D02*
X287619944Y-125025000D01*
%TO.N,Net-(U6-A8{slash}D8{slash}SCK)*%
X288454943Y-118165000D02*
X288454943Y-98315000D01*
X286954943Y-123690000D02*
X286019943Y-124625000D01*
X286019943Y-124625000D02*
X284567654Y-124625000D01*
X284019944Y-124077290D02*
X284019944Y-122599999D01*
X284567654Y-124625000D02*
X284019944Y-124077290D01*
X288454943Y-98315000D02*
X292774943Y-93995000D01*
X284019944Y-122599999D02*
X288454943Y-118165000D01*
%TO.N,Net-(U6-A7{slash}D7{slash}RX)*%
X289454943Y-102570057D02*
X292774943Y-99250057D01*
X292774943Y-99250057D02*
X292774943Y-96535000D01*
X284954944Y-123690000D02*
X289454943Y-119190001D01*
X289454943Y-119190001D02*
X289454943Y-102570057D01*
%TO.N,Net-(U6-5V)*%
X292954943Y-123690000D02*
X295425000Y-121219943D01*
X295425000Y-83945057D02*
X292774943Y-81295000D01*
X295425000Y-121219943D02*
X295425000Y-83945057D01*
%TO.N,Net-(J7m1-Pad1)*%
X309542000Y-119262000D02*
X309375085Y-119262000D01*
D22*
X309375085Y-119262000D02*
X305373185Y-123263900D01*
D23*
%TO.N,Net-(J7m1-Pad3)*%
X300460100Y-123263900D02*
X300373185Y-123263900D01*
D22*
X304462000Y-119262000D02*
X300460100Y-123263900D01*
%TO.N,Net-(J7m1-Pad2)*%
X307002000Y-119262000D02*
X303000100Y-123263900D01*
D23*
X303000100Y-123263900D02*
X302873185Y-123263900D01*
%TO.N,Net-(U7-A10{slash}D10{slash}MOSI)*%
X309953085Y-122684000D02*
X315553085Y-117084000D01*
X309953085Y-124056290D02*
X309953085Y-122684000D01*
X315553085Y-117084000D02*
X315553085Y-94079000D01*
X316903086Y-123684000D02*
X315568086Y-125019000D01*
X315553085Y-94079000D02*
X320723085Y-88909000D01*
X315568086Y-125019000D02*
X310915795Y-125019000D01*
X310915795Y-125019000D02*
X309953085Y-124056290D01*
%TO.N,Net-(U7-A8{slash}D8{slash}SCK)*%
X316403085Y-98309000D02*
X320723085Y-93989000D01*
X316403085Y-118159000D02*
X316403085Y-98309000D01*
X314903085Y-123684000D02*
X313968085Y-124619000D01*
X311968086Y-124071290D02*
X311968086Y-122593999D01*
X311968086Y-122593999D02*
X316403085Y-118159000D01*
X313968085Y-124619000D02*
X312515796Y-124619000D01*
X312515796Y-124619000D02*
X311968086Y-124071290D01*
%TO.N,Net-(U7-A9{slash}D9{slash}MISO)*%
X322800000Y-93525915D02*
X320723085Y-91449000D01*
X318953085Y-123684000D02*
X322800000Y-119837085D01*
X322800000Y-119837085D02*
X322800000Y-93525915D01*
X318903084Y-123684000D02*
X318953085Y-123684000D01*
%TO.N,Net-(U7-5V)*%
X320903085Y-123684000D02*
X323400000Y-121187085D01*
X323400000Y-121187085D02*
X323400000Y-83965915D01*
X323400000Y-83965915D02*
X320723085Y-81289000D01*
%TO.N,Net-(U7-A7{slash}D7{slash}RX)*%
X317403085Y-102721915D02*
X320723085Y-99401915D01*
X320723085Y-99401915D02*
X320723085Y-96529000D01*
X312903086Y-123684000D02*
X317403085Y-119184001D01*
X317403085Y-119184001D02*
X317403085Y-102721915D01*
D22*
%TO.N,Net-(J8m1-Pad2)*%
X335125000Y-119233000D02*
X331123100Y-123234900D01*
D23*
X331123100Y-123234900D02*
X330996185Y-123234900D01*
D22*
%TO.N,Net-(J8m1-Pad1)*%
X337498085Y-119233000D02*
X333496185Y-123234900D01*
D23*
X337665000Y-119233000D02*
X337498085Y-119233000D01*
%TO.N,Net-(J8m1-Pad3)*%
X328583100Y-123234900D02*
X328496185Y-123234900D01*
D22*
X332585000Y-119233000D02*
X328583100Y-123234900D01*
D23*
%TO.N,Net-(U8-A7{slash}D7{slash}RX)*%
X348846085Y-99178915D02*
X348846085Y-96500000D01*
X345526085Y-119155001D02*
X345526085Y-102498915D01*
X341026086Y-123655000D02*
X345526085Y-119155001D01*
X345526085Y-102498915D02*
X348846085Y-99178915D01*
%TO.N,Net-(U8-5V)*%
X349026085Y-123655000D02*
X351375000Y-121306085D01*
X351375000Y-83788915D02*
X348846085Y-81260000D01*
X351375000Y-121306085D02*
X351375000Y-83788915D01*
%TO.N,Net-(U8-A10{slash}D10{slash}MOSI)*%
X345026086Y-123655000D02*
X343691086Y-124990000D01*
X343676085Y-117055000D02*
X343676085Y-94050000D01*
X338076085Y-122655000D02*
X343676085Y-117055000D01*
X338076085Y-124027290D02*
X338076085Y-122655000D01*
X339038795Y-124990000D02*
X338076085Y-124027290D01*
X343676085Y-94050000D02*
X348846085Y-88880000D01*
X343691086Y-124990000D02*
X339038795Y-124990000D01*
%TO.N,Net-(U8-A8{slash}D8{slash}SCK)*%
X340091086Y-122564999D02*
X344526085Y-118130000D01*
X344526085Y-118130000D02*
X344526085Y-98280000D01*
X343026085Y-123655000D02*
X342091085Y-124590000D01*
X340638796Y-124590000D02*
X340091086Y-124042290D01*
X342091085Y-124590000D02*
X340638796Y-124590000D01*
X340091086Y-124042290D02*
X340091086Y-122564999D01*
X344526085Y-98280000D02*
X348846085Y-93960000D01*
%TO.N,Net-(U8-A9{slash}D9{slash}MISO)*%
X350950000Y-93523915D02*
X348846085Y-91420000D01*
X347026084Y-123655000D02*
X347076085Y-123655000D01*
X347076085Y-123655000D02*
X350950000Y-119781085D01*
X350950000Y-119781085D02*
X350950000Y-93523915D01*
%TO.N,Net-(J9m1-Pad2)*%
X359473100Y-123234900D02*
X359346185Y-123234900D01*
D22*
X363475000Y-119233000D02*
X359473100Y-123234900D01*
%TO.N,Net-(J9m1-Pad3)*%
X360935000Y-119233000D02*
X356933100Y-123234900D01*
D23*
X356933100Y-123234900D02*
X356846185Y-123234900D01*
%TO.N,Net-(J9m1-Pad1)*%
X366015000Y-119233000D02*
X365848085Y-119233000D01*
D22*
X365848085Y-119233000D02*
X361846185Y-123234900D01*
D23*
%TO.N,Net-(U9-5V)*%
X379875000Y-83938915D02*
X377196085Y-81260000D01*
X379875000Y-121156085D02*
X379875000Y-83938915D01*
X377376085Y-123655000D02*
X379875000Y-121156085D01*
%TO.N,Net-(U9-A9{slash}D9{slash}MISO)*%
X379275000Y-93498915D02*
X377196085Y-91420000D01*
X375426085Y-123655000D02*
X379275000Y-119806085D01*
X379275000Y-119806085D02*
X379275000Y-93498915D01*
X375376084Y-123655000D02*
X375426085Y-123655000D01*
%TO.N,Net-(U9-A7{slash}D7{slash}RX)*%
X369376086Y-123655000D02*
X373876085Y-119155001D01*
X373876085Y-102798915D02*
X377196085Y-99478915D01*
X377196085Y-99478915D02*
X377196085Y-96500000D01*
X373876085Y-119155001D02*
X373876085Y-102798915D01*
%TO.N,Net-(U9-A8{slash}D8{slash}SCK)*%
X370441085Y-124590000D02*
X368988796Y-124590000D01*
X368988796Y-124590000D02*
X368441086Y-124042290D01*
X372876085Y-118130000D02*
X372876085Y-98280000D01*
X368441086Y-124042290D02*
X368441086Y-122564999D01*
X371376085Y-123655000D02*
X370441085Y-124590000D01*
X368441086Y-122564999D02*
X372876085Y-118130000D01*
X372876085Y-98280000D02*
X377196085Y-93960000D01*
%TO.N,Net-(U9-A10{slash}D10{slash}MOSI)*%
X366426085Y-124027290D02*
X366426085Y-122655000D01*
X366426085Y-122655000D02*
X372026085Y-117055000D01*
X372026085Y-94050000D02*
X377196085Y-88880000D01*
X372041086Y-124990000D02*
X367388795Y-124990000D01*
X367388795Y-124990000D02*
X366426085Y-124027290D01*
X373376086Y-123655000D02*
X372041086Y-124990000D01*
X372026085Y-117055000D02*
X372026085Y-94050000D01*
%TO.N,Net-(J10m1-Pad2)*%
X387988100Y-123204900D02*
X387861185Y-123204900D01*
D22*
X391990000Y-119203000D02*
X387988100Y-123204900D01*
D23*
%TO.N,Net-(J10m1-Pad1)*%
X394530000Y-119203000D02*
X394363085Y-119203000D01*
D22*
X394363085Y-119203000D02*
X390361185Y-123204900D01*
%TO.N,Net-(J10m1-Pad3)*%
X389450000Y-119203000D02*
X385448100Y-123204900D01*
D23*
X385448100Y-123204900D02*
X385361185Y-123204900D01*
%TO.N,Net-(U10-A7{slash}D7{slash}RX)*%
X402391085Y-102533915D02*
X405711085Y-99213915D01*
X405711085Y-99213915D02*
X405711085Y-96470000D01*
X402391085Y-119125001D02*
X402391085Y-102533915D01*
X397891086Y-123625000D02*
X402391085Y-119125001D01*
%TO.N,Net-(U10-A9{slash}D9{slash}MISO)*%
X403941085Y-123625000D02*
X407800000Y-119766085D01*
X407800000Y-119766085D02*
X407800000Y-93478915D01*
X403891084Y-123625000D02*
X403941085Y-123625000D01*
X407800000Y-93478915D02*
X405711085Y-91390000D01*
%TO.N,Net-(U10-5V)*%
X408250000Y-83768915D02*
X405711085Y-81230000D01*
X405891085Y-123625000D02*
X408250000Y-121266085D01*
X408250000Y-121266085D02*
X408250000Y-83768915D01*
%TO.N,Net-(U10-A8{slash}D8{slash}SCK)*%
X398956085Y-124560000D02*
X397503796Y-124560000D01*
X401391085Y-118100000D02*
X401391085Y-98250000D01*
X399891085Y-123625000D02*
X398956085Y-124560000D01*
X397503796Y-124560000D02*
X396956086Y-124012290D01*
X396956086Y-122534999D02*
X401391085Y-118100000D01*
X401391085Y-98250000D02*
X405711085Y-93930000D01*
X396956086Y-124012290D02*
X396956086Y-122534999D01*
%TO.N,Net-(U10-A10{slash}D10{slash}MOSI)*%
X400541085Y-94020000D02*
X405711085Y-88850000D01*
X401891086Y-123625000D02*
X400556086Y-124960000D01*
X395903795Y-124960000D02*
X394941085Y-123997290D01*
X394941085Y-123997290D02*
X394941085Y-122625000D01*
X400556086Y-124960000D02*
X395903795Y-124960000D01*
X400541085Y-117025000D02*
X400541085Y-94020000D01*
X394941085Y-122625000D02*
X400541085Y-117025000D01*
%TD*%
M02*
