%TF.GenerationSoftware,KiCad,Pcbnew,8.0.6*%
%TF.CreationDate,2024-11-22T20:17:54-05:00*%
%TF.ProjectId,exosuit_modular_board,65786f73-7569-4745-9f6d-6f64756c6172,rev?*%
%TF.SameCoordinates,Original*%
%TF.FileFunction,Drillmap*%
%TF.FilePolarity,Positive*%
%FSLAX45Y45*%
G04 Gerber Fmt 4.5, Leading zero omitted, Abs format (unit mm)*
G04 Created by KiCad (PCBNEW 8.0.6) date 2024-11-22 20:17:54*
%MOMM*%
%LPD*%
G01*
G04 APERTURE LIST*
%ADD10C,0.050000*%
%ADD11C,0.200000*%
%ADD12C,0.100000*%
%ADD13C,0.102000*%
%ADD14C,0.110000*%
%ADD15C,0.120000*%
G04 APERTURE END LIST*
D10*
X12145000Y-7697500D02*
X40905000Y-7697500D01*
X40905000Y-13065000D01*
X12145000Y-13065000D01*
X12145000Y-7697500D01*
D11*
D12*
X14174400Y-12339400D02*
X14250600Y-12415600D01*
X14250600Y-12339400D02*
X14174400Y-12415600D01*
X14374400Y-12339400D02*
X14450600Y-12415600D01*
X14450600Y-12339400D02*
X14374400Y-12415600D01*
X14574400Y-12339400D02*
X14650600Y-12415600D01*
X14650600Y-12339400D02*
X14574400Y-12415600D01*
X14774400Y-12339400D02*
X14850600Y-12415600D01*
X14850600Y-12339400D02*
X14774400Y-12415600D01*
X14974400Y-12339400D02*
X15050600Y-12415600D01*
X15050600Y-12339400D02*
X14974400Y-12415600D01*
X15174400Y-12339400D02*
X15250600Y-12415600D01*
X15250600Y-12339400D02*
X15174400Y-12415600D01*
X16968900Y-12330900D02*
X17045100Y-12407100D01*
X17045100Y-12330900D02*
X16968900Y-12407100D01*
X17168900Y-12330900D02*
X17245100Y-12407100D01*
X17245100Y-12330900D02*
X17168900Y-12407100D01*
X17368900Y-12330900D02*
X17445100Y-12407100D01*
X17445100Y-12330900D02*
X17368900Y-12407100D01*
X17568900Y-12330900D02*
X17645100Y-12407100D01*
X17645100Y-12330900D02*
X17568900Y-12407100D01*
X17768900Y-12330900D02*
X17845100Y-12407100D01*
X17845100Y-12330900D02*
X17768900Y-12407100D01*
X17968900Y-12330900D02*
X18045100Y-12407100D01*
X18045100Y-12330900D02*
X17968900Y-12407100D01*
X19810304Y-12330900D02*
X19886504Y-12407100D01*
X19886504Y-12330900D02*
X19810304Y-12407100D01*
X20010304Y-12330900D02*
X20086504Y-12407100D01*
X20086504Y-12330900D02*
X20010304Y-12407100D01*
X20210304Y-12330900D02*
X20286504Y-12407100D01*
X20286504Y-12330900D02*
X20210304Y-12407100D01*
X20410304Y-12330900D02*
X20486504Y-12407100D01*
X20486504Y-12330900D02*
X20410304Y-12407100D01*
X20610304Y-12330900D02*
X20686504Y-12407100D01*
X20686504Y-12330900D02*
X20610304Y-12407100D01*
X20810304Y-12330900D02*
X20886504Y-12407100D01*
X20886504Y-12330900D02*
X20810304Y-12407100D01*
X22649110Y-12330900D02*
X22725310Y-12407100D01*
X22725310Y-12330900D02*
X22649110Y-12407100D01*
X22849110Y-12330900D02*
X22925310Y-12407100D01*
X22925310Y-12330900D02*
X22849110Y-12407100D01*
X23049110Y-12330900D02*
X23125310Y-12407100D01*
X23125310Y-12330900D02*
X23049110Y-12407100D01*
X23249110Y-12330900D02*
X23325310Y-12407100D01*
X23325310Y-12330900D02*
X23249110Y-12407100D01*
X23449110Y-12330900D02*
X23525310Y-12407100D01*
X23525310Y-12330900D02*
X23449110Y-12407100D01*
X23649110Y-12330900D02*
X23725310Y-12407100D01*
X23725310Y-12330900D02*
X23649110Y-12407100D01*
X25457394Y-12330900D02*
X25533594Y-12407100D01*
X25533594Y-12330900D02*
X25457394Y-12407100D01*
X25657394Y-12330900D02*
X25733594Y-12407100D01*
X25733594Y-12330900D02*
X25657394Y-12407100D01*
X25857394Y-12330900D02*
X25933594Y-12407100D01*
X25933594Y-12330900D02*
X25857394Y-12407100D01*
X26057394Y-12330900D02*
X26133594Y-12407100D01*
X26133594Y-12330900D02*
X26057394Y-12407100D01*
X26257394Y-12330900D02*
X26333594Y-12407100D01*
X26333594Y-12330900D02*
X26257394Y-12407100D01*
X26457394Y-12330900D02*
X26533594Y-12407100D01*
X26533594Y-12330900D02*
X26457394Y-12407100D01*
X28257394Y-12330900D02*
X28333594Y-12407100D01*
X28333594Y-12330900D02*
X28257394Y-12407100D01*
X28457394Y-12330900D02*
X28533594Y-12407100D01*
X28533594Y-12330900D02*
X28457394Y-12407100D01*
X28657394Y-12330900D02*
X28733594Y-12407100D01*
X28733594Y-12330900D02*
X28657394Y-12407100D01*
X28857394Y-12330900D02*
X28933594Y-12407100D01*
X28933594Y-12330900D02*
X28857394Y-12407100D01*
X29057394Y-12330900D02*
X29133594Y-12407100D01*
X29133594Y-12330900D02*
X29057394Y-12407100D01*
X29257394Y-12330900D02*
X29333594Y-12407100D01*
X29333594Y-12330900D02*
X29257394Y-12407100D01*
X31052208Y-12330300D02*
X31128408Y-12406500D01*
X31128408Y-12330300D02*
X31052208Y-12406500D01*
X31252209Y-12330300D02*
X31328409Y-12406500D01*
X31328409Y-12330300D02*
X31252209Y-12406500D01*
X31452208Y-12330300D02*
X31528408Y-12406500D01*
X31528408Y-12330300D02*
X31452208Y-12406500D01*
X31652209Y-12330300D02*
X31728409Y-12406500D01*
X31728409Y-12330300D02*
X31652209Y-12406500D01*
X31852208Y-12330300D02*
X31928408Y-12406500D01*
X31928408Y-12330300D02*
X31852208Y-12406500D01*
X32052208Y-12330300D02*
X32128408Y-12406500D01*
X32128408Y-12330300D02*
X32052208Y-12406500D01*
X33864509Y-12327400D02*
X33940709Y-12403600D01*
X33940709Y-12327400D02*
X33864509Y-12403600D01*
X34064509Y-12327400D02*
X34140709Y-12403600D01*
X34140709Y-12327400D02*
X34064509Y-12403600D01*
X34264509Y-12327400D02*
X34340709Y-12403600D01*
X34340709Y-12327400D02*
X34264509Y-12403600D01*
X34464509Y-12327400D02*
X34540709Y-12403600D01*
X34540709Y-12327400D02*
X34464509Y-12403600D01*
X34664508Y-12327400D02*
X34740708Y-12403600D01*
X34740708Y-12327400D02*
X34664508Y-12403600D01*
X34864509Y-12327400D02*
X34940709Y-12403600D01*
X34940709Y-12327400D02*
X34864509Y-12403600D01*
X36699509Y-12327400D02*
X36775709Y-12403600D01*
X36775709Y-12327400D02*
X36699509Y-12403600D01*
X36899509Y-12327400D02*
X36975709Y-12403600D01*
X36975709Y-12327400D02*
X36899509Y-12403600D01*
X37099509Y-12327400D02*
X37175709Y-12403600D01*
X37175709Y-12327400D02*
X37099509Y-12403600D01*
X37299509Y-12327400D02*
X37375709Y-12403600D01*
X37375709Y-12327400D02*
X37299509Y-12403600D01*
X37499508Y-12327400D02*
X37575708Y-12403600D01*
X37575708Y-12327400D02*
X37499508Y-12403600D01*
X37699509Y-12327400D02*
X37775709Y-12403600D01*
X37775709Y-12327400D02*
X37699509Y-12403600D01*
X39551009Y-12324400D02*
X39627209Y-12400600D01*
X39627209Y-12324400D02*
X39551009Y-12400600D01*
X39751009Y-12324400D02*
X39827209Y-12400600D01*
X39827209Y-12324400D02*
X39751009Y-12400600D01*
X39951009Y-12324400D02*
X40027209Y-12400600D01*
X40027209Y-12324400D02*
X39951009Y-12400600D01*
X40151009Y-12324400D02*
X40227209Y-12400600D01*
X40227209Y-12324400D02*
X40151009Y-12400600D01*
X40351008Y-12324400D02*
X40427208Y-12400600D01*
X40427208Y-12324400D02*
X40351008Y-12400600D01*
X40551009Y-12324400D02*
X40627209Y-12400600D01*
X40627209Y-12324400D02*
X40551009Y-12400600D01*
X13209040Y-12335490D02*
G75*
G02*
X13109980Y-12335490I-49530J0D01*
G01*
X13109980Y-12335490D02*
G75*
G02*
X13209040Y-12335490I49530J0D01*
G01*
X13459040Y-12335490D02*
G75*
G02*
X13359980Y-12335490I-49530J0D01*
G01*
X13359980Y-12335490D02*
G75*
G02*
X13459040Y-12335490I49530J0D01*
G01*
X13709040Y-12335490D02*
G75*
G02*
X13609980Y-12335490I-49530J0D01*
G01*
X13609980Y-12335490D02*
G75*
G02*
X13709040Y-12335490I49530J0D01*
G01*
X16003540Y-12326990D02*
G75*
G02*
X15904480Y-12326990I-49530J0D01*
G01*
X15904480Y-12326990D02*
G75*
G02*
X16003540Y-12326990I49530J0D01*
G01*
X16253540Y-12326990D02*
G75*
G02*
X16154480Y-12326990I-49530J0D01*
G01*
X16154480Y-12326990D02*
G75*
G02*
X16253540Y-12326990I49530J0D01*
G01*
X16503540Y-12326990D02*
G75*
G02*
X16404480Y-12326990I-49530J0D01*
G01*
X16404480Y-12326990D02*
G75*
G02*
X16503540Y-12326990I49530J0D01*
G01*
X18844944Y-12326990D02*
G75*
G02*
X18745884Y-12326990I-49530J0D01*
G01*
X18745884Y-12326990D02*
G75*
G02*
X18844944Y-12326990I49530J0D01*
G01*
X19094944Y-12326990D02*
G75*
G02*
X18995884Y-12326990I-49530J0D01*
G01*
X18995884Y-12326990D02*
G75*
G02*
X19094944Y-12326990I49530J0D01*
G01*
X19344944Y-12326990D02*
G75*
G02*
X19245884Y-12326990I-49530J0D01*
G01*
X19245884Y-12326990D02*
G75*
G02*
X19344944Y-12326990I49530J0D01*
G01*
X21683750Y-12326990D02*
G75*
G02*
X21584690Y-12326990I-49530J0D01*
G01*
X21584690Y-12326990D02*
G75*
G02*
X21683750Y-12326990I49530J0D01*
G01*
X21933750Y-12326990D02*
G75*
G02*
X21834690Y-12326990I-49530J0D01*
G01*
X21834690Y-12326990D02*
G75*
G02*
X21933750Y-12326990I49530J0D01*
G01*
X22183750Y-12326990D02*
G75*
G02*
X22084690Y-12326990I-49530J0D01*
G01*
X22084690Y-12326990D02*
G75*
G02*
X22183750Y-12326990I49530J0D01*
G01*
X24492034Y-12326990D02*
G75*
G02*
X24392974Y-12326990I-49530J0D01*
G01*
X24392974Y-12326990D02*
G75*
G02*
X24492034Y-12326990I49530J0D01*
G01*
X24742034Y-12326990D02*
G75*
G02*
X24642974Y-12326990I-49530J0D01*
G01*
X24642974Y-12326990D02*
G75*
G02*
X24742034Y-12326990I49530J0D01*
G01*
X24992034Y-12326990D02*
G75*
G02*
X24892974Y-12326990I-49530J0D01*
G01*
X24892974Y-12326990D02*
G75*
G02*
X24992034Y-12326990I49530J0D01*
G01*
X27292034Y-12326990D02*
G75*
G02*
X27192974Y-12326990I-49530J0D01*
G01*
X27192974Y-12326990D02*
G75*
G02*
X27292034Y-12326990I49530J0D01*
G01*
X27542034Y-12326990D02*
G75*
G02*
X27442974Y-12326990I-49530J0D01*
G01*
X27442974Y-12326990D02*
G75*
G02*
X27542034Y-12326990I49530J0D01*
G01*
X27792034Y-12326990D02*
G75*
G02*
X27692974Y-12326990I-49530J0D01*
G01*
X27692974Y-12326990D02*
G75*
G02*
X27792034Y-12326990I49530J0D01*
G01*
X30086848Y-12326390D02*
G75*
G02*
X29987788Y-12326390I-49530J0D01*
G01*
X29987788Y-12326390D02*
G75*
G02*
X30086848Y-12326390I49530J0D01*
G01*
X30336848Y-12326390D02*
G75*
G02*
X30237788Y-12326390I-49530J0D01*
G01*
X30237788Y-12326390D02*
G75*
G02*
X30336848Y-12326390I49530J0D01*
G01*
X30586848Y-12326390D02*
G75*
G02*
X30487788Y-12326390I-49530J0D01*
G01*
X30487788Y-12326390D02*
G75*
G02*
X30586848Y-12326390I49530J0D01*
G01*
X32899148Y-12323490D02*
G75*
G02*
X32800088Y-12323490I-49530J0D01*
G01*
X32800088Y-12323490D02*
G75*
G02*
X32899148Y-12323490I49530J0D01*
G01*
X33149148Y-12323490D02*
G75*
G02*
X33050088Y-12323490I-49530J0D01*
G01*
X33050088Y-12323490D02*
G75*
G02*
X33149148Y-12323490I49530J0D01*
G01*
X33399148Y-12323490D02*
G75*
G02*
X33300088Y-12323490I-49530J0D01*
G01*
X33300088Y-12323490D02*
G75*
G02*
X33399148Y-12323490I49530J0D01*
G01*
X35734149Y-12323490D02*
G75*
G02*
X35635089Y-12323490I-49530J0D01*
G01*
X35635089Y-12323490D02*
G75*
G02*
X35734149Y-12323490I49530J0D01*
G01*
X35984149Y-12323490D02*
G75*
G02*
X35885089Y-12323490I-49530J0D01*
G01*
X35885089Y-12323490D02*
G75*
G02*
X35984149Y-12323490I49530J0D01*
G01*
X36234149Y-12323490D02*
G75*
G02*
X36135089Y-12323490I-49530J0D01*
G01*
X36135089Y-12323490D02*
G75*
G02*
X36234149Y-12323490I49530J0D01*
G01*
X38585649Y-12320490D02*
G75*
G02*
X38486589Y-12320490I-49530J0D01*
G01*
X38486589Y-12320490D02*
G75*
G02*
X38585649Y-12320490I49530J0D01*
G01*
X38835649Y-12320490D02*
G75*
G02*
X38736589Y-12320490I-49530J0D01*
G01*
X38736589Y-12320490D02*
G75*
G02*
X38835649Y-12320490I49530J0D01*
G01*
X39085649Y-12320490D02*
G75*
G02*
X38986589Y-12320490I-49530J0D01*
G01*
X38986589Y-12320490D02*
G75*
G02*
X39085649Y-12320490I49530J0D01*
G01*
X12512500Y-8795000D02*
X12512500Y-8895000D01*
X12462500Y-8845000D02*
X12562500Y-8845000D01*
X12462500Y-8745000D02*
X12462500Y-8945000D01*
X12562500Y-8945000D02*
G75*
G02*
X12462500Y-8945000I-50000J0D01*
G01*
X12562500Y-8945000D02*
X12562500Y-8745000D01*
X12562500Y-8745000D02*
G75*
G03*
X12462500Y-8745000I-50000J0D01*
G01*
X12982500Y-8495000D02*
X12982500Y-8595000D01*
X12932500Y-8545000D02*
X13032500Y-8545000D01*
X13082500Y-8495000D02*
X12882500Y-8495000D01*
X12882500Y-8595000D02*
G75*
G02*
X12882500Y-8495000I0J50000D01*
G01*
X12882500Y-8595000D02*
X13082500Y-8595000D01*
X13082500Y-8595000D02*
G75*
G03*
X13082500Y-8495000I0J50000D01*
G01*
X12982500Y-9095000D02*
X12982500Y-9195000D01*
X12932500Y-9145000D02*
X13032500Y-9145000D01*
X13082500Y-9095000D02*
X12882500Y-9095000D01*
X12882500Y-9195000D02*
G75*
G02*
X12882500Y-9095000I0J50000D01*
G01*
X12882500Y-9195000D02*
X13082500Y-9195000D01*
X13082500Y-9195000D02*
G75*
G03*
X13082500Y-9095000I0J50000D01*
G01*
D13*
X13604454Y-11971363D02*
X13604454Y-11899237D01*
X13532329Y-11899237D01*
X13532329Y-11971363D01*
X13604454Y-11971363D01*
X13858454Y-11971363D02*
X13858454Y-11899237D01*
X13786329Y-11899237D01*
X13786329Y-11971363D01*
X13858454Y-11971363D01*
X14112454Y-11971363D02*
X14112454Y-11899237D01*
X14040329Y-11899237D01*
X14040329Y-11971363D01*
X14112454Y-11971363D01*
X16398954Y-11962863D02*
X16398954Y-11890737D01*
X16326829Y-11890737D01*
X16326829Y-11962863D01*
X16398954Y-11962863D01*
X16652954Y-11962863D02*
X16652954Y-11890737D01*
X16580829Y-11890737D01*
X16580829Y-11962863D01*
X16652954Y-11962863D01*
X16906954Y-11962863D02*
X16906954Y-11890737D01*
X16834829Y-11890737D01*
X16834829Y-11962863D01*
X16906954Y-11962863D01*
X19240359Y-11962863D02*
X19240359Y-11890737D01*
X19168233Y-11890737D01*
X19168233Y-11962863D01*
X19240359Y-11962863D01*
X19494359Y-11962863D02*
X19494359Y-11890737D01*
X19422233Y-11890737D01*
X19422233Y-11962863D01*
X19494359Y-11962863D01*
X19748359Y-11962863D02*
X19748359Y-11890737D01*
X19676233Y-11890737D01*
X19676233Y-11962863D01*
X19748359Y-11962863D01*
X22079164Y-11962863D02*
X22079164Y-11890737D01*
X22007039Y-11890737D01*
X22007039Y-11962863D01*
X22079164Y-11962863D01*
X22333164Y-11962863D02*
X22333164Y-11890737D01*
X22261039Y-11890737D01*
X22261039Y-11962863D01*
X22333164Y-11962863D01*
X22587164Y-11962863D02*
X22587164Y-11890737D01*
X22515039Y-11890737D01*
X22515039Y-11962863D01*
X22587164Y-11962863D01*
X24887449Y-11962863D02*
X24887449Y-11890737D01*
X24815323Y-11890737D01*
X24815323Y-11962863D01*
X24887449Y-11962863D01*
X25141449Y-11962863D02*
X25141449Y-11890737D01*
X25069323Y-11890737D01*
X25069323Y-11962863D01*
X25141449Y-11962863D01*
X25395449Y-11962863D02*
X25395449Y-11890737D01*
X25323323Y-11890737D01*
X25323323Y-11962863D01*
X25395449Y-11962863D01*
X27687449Y-11962863D02*
X27687449Y-11890737D01*
X27615323Y-11890737D01*
X27615323Y-11962863D01*
X27687449Y-11962863D01*
X27941449Y-11962863D02*
X27941449Y-11890737D01*
X27869323Y-11890737D01*
X27869323Y-11962863D01*
X27941449Y-11962863D01*
X28195449Y-11962863D02*
X28195449Y-11890737D01*
X28123323Y-11890737D01*
X28123323Y-11962863D01*
X28195449Y-11962863D01*
X30482263Y-11962263D02*
X30482263Y-11890137D01*
X30410137Y-11890137D01*
X30410137Y-11962263D01*
X30482263Y-11962263D01*
X30736263Y-11962263D02*
X30736263Y-11890137D01*
X30664137Y-11890137D01*
X30664137Y-11962263D01*
X30736263Y-11962263D01*
X30990263Y-11962263D02*
X30990263Y-11890137D01*
X30918137Y-11890137D01*
X30918137Y-11962263D01*
X30990263Y-11962263D01*
X33294563Y-11959363D02*
X33294563Y-11887237D01*
X33222437Y-11887237D01*
X33222437Y-11959363D01*
X33294563Y-11959363D01*
X33548563Y-11959363D02*
X33548563Y-11887237D01*
X33476437Y-11887237D01*
X33476437Y-11959363D01*
X33548563Y-11959363D01*
X33802563Y-11959363D02*
X33802563Y-11887237D01*
X33730437Y-11887237D01*
X33730437Y-11959363D01*
X33802563Y-11959363D01*
X36129563Y-11959363D02*
X36129563Y-11887237D01*
X36057437Y-11887237D01*
X36057437Y-11959363D01*
X36129563Y-11959363D01*
X36383563Y-11959363D02*
X36383563Y-11887237D01*
X36311437Y-11887237D01*
X36311437Y-11959363D01*
X36383563Y-11959363D01*
X36637563Y-11959363D02*
X36637563Y-11887237D01*
X36565437Y-11887237D01*
X36565437Y-11959363D01*
X36637563Y-11959363D01*
X38981063Y-11956363D02*
X38981063Y-11884237D01*
X38908937Y-11884237D01*
X38908937Y-11956363D01*
X38981063Y-11956363D01*
X39235063Y-11956363D02*
X39235063Y-11884237D01*
X39162937Y-11884237D01*
X39162937Y-11956363D01*
X39235063Y-11956363D01*
X39489063Y-11956363D02*
X39489063Y-11884237D01*
X39416937Y-11884237D01*
X39416937Y-11956363D01*
X39489063Y-11956363D01*
D14*
X13314391Y-10225000D02*
X13369391Y-10170000D01*
X13314391Y-10115000D01*
X13259391Y-10170000D01*
X13314391Y-10225000D01*
X13314391Y-10479000D02*
X13369391Y-10424000D01*
X13314391Y-10369000D01*
X13259391Y-10424000D01*
X13314391Y-10479000D01*
X13568391Y-10225000D02*
X13623391Y-10170000D01*
X13568391Y-10115000D01*
X13513391Y-10170000D01*
X13568391Y-10225000D01*
X13568391Y-10479000D02*
X13623391Y-10424000D01*
X13568391Y-10369000D01*
X13513391Y-10424000D01*
X13568391Y-10479000D01*
X13822391Y-10225000D02*
X13877391Y-10170000D01*
X13822391Y-10115000D01*
X13767391Y-10170000D01*
X13822391Y-10225000D01*
X13822391Y-10479000D02*
X13877391Y-10424000D01*
X13822391Y-10369000D01*
X13767391Y-10424000D01*
X13822391Y-10479000D01*
X14076391Y-10225000D02*
X14131391Y-10170000D01*
X14076391Y-10115000D01*
X14021391Y-10170000D01*
X14076391Y-10225000D01*
X14076391Y-10479000D02*
X14131391Y-10424000D01*
X14076391Y-10369000D01*
X14021391Y-10424000D01*
X14076391Y-10479000D01*
X14330391Y-10225000D02*
X14385391Y-10170000D01*
X14330391Y-10115000D01*
X14275391Y-10170000D01*
X14330391Y-10225000D01*
X14330391Y-10479000D02*
X14385391Y-10424000D01*
X14330391Y-10369000D01*
X14275391Y-10424000D01*
X14330391Y-10479000D01*
X15054291Y-10606000D02*
X15109291Y-10551000D01*
X15054291Y-10496000D01*
X14999291Y-10551000D01*
X15054291Y-10606000D01*
X15054291Y-11101300D02*
X15109291Y-11046300D01*
X15054291Y-10991300D01*
X14999291Y-11046300D01*
X15054291Y-11101300D01*
X16108891Y-10216500D02*
X16163891Y-10161500D01*
X16108891Y-10106500D01*
X16053891Y-10161500D01*
X16108891Y-10216500D01*
X16108891Y-10470500D02*
X16163891Y-10415500D01*
X16108891Y-10360500D01*
X16053891Y-10415500D01*
X16108891Y-10470500D01*
X16362891Y-10216500D02*
X16417891Y-10161500D01*
X16362891Y-10106500D01*
X16307891Y-10161500D01*
X16362891Y-10216500D01*
X16362891Y-10470500D02*
X16417891Y-10415500D01*
X16362891Y-10360500D01*
X16307891Y-10415500D01*
X16362891Y-10470500D01*
X16616891Y-10216500D02*
X16671891Y-10161500D01*
X16616891Y-10106500D01*
X16561891Y-10161500D01*
X16616891Y-10216500D01*
X16616891Y-10470500D02*
X16671891Y-10415500D01*
X16616891Y-10360500D01*
X16561891Y-10415500D01*
X16616891Y-10470500D01*
X16870892Y-10216500D02*
X16925892Y-10161500D01*
X16870892Y-10106500D01*
X16815892Y-10161500D01*
X16870892Y-10216500D01*
X16870892Y-10470500D02*
X16925892Y-10415500D01*
X16870892Y-10360500D01*
X16815892Y-10415500D01*
X16870892Y-10470500D01*
X17124892Y-10216500D02*
X17179892Y-10161500D01*
X17124892Y-10106500D01*
X17069892Y-10161500D01*
X17124892Y-10216500D01*
X17124892Y-10470500D02*
X17179892Y-10415500D01*
X17124892Y-10360500D01*
X17069892Y-10415500D01*
X17124892Y-10470500D01*
X17848792Y-10597500D02*
X17903792Y-10542500D01*
X17848792Y-10487500D01*
X17793792Y-10542500D01*
X17848792Y-10597500D01*
X17848792Y-11092800D02*
X17903792Y-11037800D01*
X17848792Y-10982800D01*
X17793792Y-11037800D01*
X17848792Y-11092800D01*
X18950296Y-10216500D02*
X19005296Y-10161500D01*
X18950296Y-10106500D01*
X18895296Y-10161500D01*
X18950296Y-10216500D01*
X18950296Y-10470500D02*
X19005296Y-10415500D01*
X18950296Y-10360500D01*
X18895296Y-10415500D01*
X18950296Y-10470500D01*
X19204296Y-10216500D02*
X19259296Y-10161500D01*
X19204296Y-10106500D01*
X19149296Y-10161500D01*
X19204296Y-10216500D01*
X19204296Y-10470500D02*
X19259296Y-10415500D01*
X19204296Y-10360500D01*
X19149296Y-10415500D01*
X19204296Y-10470500D01*
X19458296Y-10216500D02*
X19513296Y-10161500D01*
X19458296Y-10106500D01*
X19403296Y-10161500D01*
X19458296Y-10216500D01*
X19458296Y-10470500D02*
X19513296Y-10415500D01*
X19458296Y-10360500D01*
X19403296Y-10415500D01*
X19458296Y-10470500D01*
X19712296Y-10216500D02*
X19767296Y-10161500D01*
X19712296Y-10106500D01*
X19657296Y-10161500D01*
X19712296Y-10216500D01*
X19712296Y-10470500D02*
X19767296Y-10415500D01*
X19712296Y-10360500D01*
X19657296Y-10415500D01*
X19712296Y-10470500D01*
X19966296Y-10216500D02*
X20021296Y-10161500D01*
X19966296Y-10106500D01*
X19911296Y-10161500D01*
X19966296Y-10216500D01*
X19966296Y-10470500D02*
X20021296Y-10415500D01*
X19966296Y-10360500D01*
X19911296Y-10415500D01*
X19966296Y-10470500D01*
X20690196Y-10597500D02*
X20745196Y-10542500D01*
X20690196Y-10487500D01*
X20635196Y-10542500D01*
X20690196Y-10597500D01*
X20690196Y-11092800D02*
X20745196Y-11037800D01*
X20690196Y-10982800D01*
X20635196Y-11037800D01*
X20690196Y-11092800D01*
X21789102Y-10216500D02*
X21844102Y-10161500D01*
X21789102Y-10106500D01*
X21734102Y-10161500D01*
X21789102Y-10216500D01*
X21789102Y-10470500D02*
X21844102Y-10415500D01*
X21789102Y-10360500D01*
X21734102Y-10415500D01*
X21789102Y-10470500D01*
X22043102Y-10216500D02*
X22098102Y-10161500D01*
X22043102Y-10106500D01*
X21988102Y-10161500D01*
X22043102Y-10216500D01*
X22043102Y-10470500D02*
X22098102Y-10415500D01*
X22043102Y-10360500D01*
X21988102Y-10415500D01*
X22043102Y-10470500D01*
X22297102Y-10216500D02*
X22352102Y-10161500D01*
X22297102Y-10106500D01*
X22242102Y-10161500D01*
X22297102Y-10216500D01*
X22297102Y-10470500D02*
X22352102Y-10415500D01*
X22297102Y-10360500D01*
X22242102Y-10415500D01*
X22297102Y-10470500D01*
X22551101Y-10216500D02*
X22606101Y-10161500D01*
X22551101Y-10106500D01*
X22496101Y-10161500D01*
X22551101Y-10216500D01*
X22551101Y-10470500D02*
X22606101Y-10415500D01*
X22551101Y-10360500D01*
X22496101Y-10415500D01*
X22551101Y-10470500D01*
X22805101Y-10216500D02*
X22860101Y-10161500D01*
X22805101Y-10106500D01*
X22750101Y-10161500D01*
X22805101Y-10216500D01*
X22805101Y-10470500D02*
X22860101Y-10415500D01*
X22805101Y-10360500D01*
X22750101Y-10415500D01*
X22805101Y-10470500D01*
X23529001Y-10597500D02*
X23584001Y-10542500D01*
X23529001Y-10487500D01*
X23474001Y-10542500D01*
X23529001Y-10597500D01*
X23529001Y-11092800D02*
X23584001Y-11037800D01*
X23529001Y-10982800D01*
X23474001Y-11037800D01*
X23529001Y-11092800D01*
X24597386Y-10216500D02*
X24652386Y-10161500D01*
X24597386Y-10106500D01*
X24542386Y-10161500D01*
X24597386Y-10216500D01*
X24597386Y-10470500D02*
X24652386Y-10415500D01*
X24597386Y-10360500D01*
X24542386Y-10415500D01*
X24597386Y-10470500D01*
X24851386Y-10216500D02*
X24906386Y-10161500D01*
X24851386Y-10106500D01*
X24796386Y-10161500D01*
X24851386Y-10216500D01*
X24851386Y-10470500D02*
X24906386Y-10415500D01*
X24851386Y-10360500D01*
X24796386Y-10415500D01*
X24851386Y-10470500D01*
X25105386Y-10216500D02*
X25160386Y-10161500D01*
X25105386Y-10106500D01*
X25050386Y-10161500D01*
X25105386Y-10216500D01*
X25105386Y-10470500D02*
X25160386Y-10415500D01*
X25105386Y-10360500D01*
X25050386Y-10415500D01*
X25105386Y-10470500D01*
X25359386Y-10216500D02*
X25414386Y-10161500D01*
X25359386Y-10106500D01*
X25304386Y-10161500D01*
X25359386Y-10216500D01*
X25359386Y-10470500D02*
X25414386Y-10415500D01*
X25359386Y-10360500D01*
X25304386Y-10415500D01*
X25359386Y-10470500D01*
X25613386Y-10216500D02*
X25668386Y-10161500D01*
X25613386Y-10106500D01*
X25558386Y-10161500D01*
X25613386Y-10216500D01*
X25613386Y-10470500D02*
X25668386Y-10415500D01*
X25613386Y-10360500D01*
X25558386Y-10415500D01*
X25613386Y-10470500D01*
X26337286Y-10597500D02*
X26392286Y-10542500D01*
X26337286Y-10487500D01*
X26282286Y-10542500D01*
X26337286Y-10597500D01*
X26337286Y-11092800D02*
X26392286Y-11037800D01*
X26337286Y-10982800D01*
X26282286Y-11037800D01*
X26337286Y-11092800D01*
X27397386Y-10216500D02*
X27452386Y-10161500D01*
X27397386Y-10106500D01*
X27342386Y-10161500D01*
X27397386Y-10216500D01*
X27397386Y-10470500D02*
X27452386Y-10415500D01*
X27397386Y-10360500D01*
X27342386Y-10415500D01*
X27397386Y-10470500D01*
X27651386Y-10216500D02*
X27706386Y-10161500D01*
X27651386Y-10106500D01*
X27596386Y-10161500D01*
X27651386Y-10216500D01*
X27651386Y-10470500D02*
X27706386Y-10415500D01*
X27651386Y-10360500D01*
X27596386Y-10415500D01*
X27651386Y-10470500D01*
X27905386Y-10216500D02*
X27960386Y-10161500D01*
X27905386Y-10106500D01*
X27850386Y-10161500D01*
X27905386Y-10216500D01*
X27905386Y-10470500D02*
X27960386Y-10415500D01*
X27905386Y-10360500D01*
X27850386Y-10415500D01*
X27905386Y-10470500D01*
X28159386Y-10216500D02*
X28214386Y-10161500D01*
X28159386Y-10106500D01*
X28104386Y-10161500D01*
X28159386Y-10216500D01*
X28159386Y-10470500D02*
X28214386Y-10415500D01*
X28159386Y-10360500D01*
X28104386Y-10415500D01*
X28159386Y-10470500D01*
X28413386Y-10216500D02*
X28468386Y-10161500D01*
X28413386Y-10106500D01*
X28358386Y-10161500D01*
X28413386Y-10216500D01*
X28413386Y-10470500D02*
X28468386Y-10415500D01*
X28413386Y-10360500D01*
X28358386Y-10415500D01*
X28413386Y-10470500D01*
X29137286Y-10597500D02*
X29192286Y-10542500D01*
X29137286Y-10487500D01*
X29082286Y-10542500D01*
X29137286Y-10597500D01*
X29137286Y-11092800D02*
X29192286Y-11037800D01*
X29137286Y-10982800D01*
X29082286Y-11037800D01*
X29137286Y-11092800D01*
X30192200Y-10215900D02*
X30247200Y-10160900D01*
X30192200Y-10105900D01*
X30137200Y-10160900D01*
X30192200Y-10215900D01*
X30192200Y-10469900D02*
X30247200Y-10414900D01*
X30192200Y-10359900D01*
X30137200Y-10414900D01*
X30192200Y-10469900D01*
X30446200Y-10215900D02*
X30501200Y-10160900D01*
X30446200Y-10105900D01*
X30391200Y-10160900D01*
X30446200Y-10215900D01*
X30446200Y-10469900D02*
X30501200Y-10414900D01*
X30446200Y-10359900D01*
X30391200Y-10414900D01*
X30446200Y-10469900D01*
X30700200Y-10215900D02*
X30755200Y-10160900D01*
X30700200Y-10105900D01*
X30645200Y-10160900D01*
X30700200Y-10215900D01*
X30700200Y-10469900D02*
X30755200Y-10414900D01*
X30700200Y-10359900D01*
X30645200Y-10414900D01*
X30700200Y-10469900D01*
X30954200Y-10215900D02*
X31009200Y-10160900D01*
X30954200Y-10105900D01*
X30899200Y-10160900D01*
X30954200Y-10215900D01*
X30954200Y-10469900D02*
X31009200Y-10414900D01*
X30954200Y-10359900D01*
X30899200Y-10414900D01*
X30954200Y-10469900D01*
X31208200Y-10215900D02*
X31263200Y-10160900D01*
X31208200Y-10105900D01*
X31153200Y-10160900D01*
X31208200Y-10215900D01*
X31208200Y-10469900D02*
X31263200Y-10414900D01*
X31208200Y-10359900D01*
X31153200Y-10414900D01*
X31208200Y-10469900D01*
X31932100Y-10596900D02*
X31987100Y-10541900D01*
X31932100Y-10486900D01*
X31877100Y-10541900D01*
X31932100Y-10596900D01*
X31932100Y-11092200D02*
X31987100Y-11037200D01*
X31932100Y-10982200D01*
X31877100Y-11037200D01*
X31932100Y-11092200D01*
X33004500Y-10213000D02*
X33059500Y-10158000D01*
X33004500Y-10103000D01*
X32949500Y-10158000D01*
X33004500Y-10213000D01*
X33004500Y-10467000D02*
X33059500Y-10412000D01*
X33004500Y-10357000D01*
X32949500Y-10412000D01*
X33004500Y-10467000D01*
X33258500Y-10213000D02*
X33313500Y-10158000D01*
X33258500Y-10103000D01*
X33203500Y-10158000D01*
X33258500Y-10213000D01*
X33258500Y-10467000D02*
X33313500Y-10412000D01*
X33258500Y-10357000D01*
X33203500Y-10412000D01*
X33258500Y-10467000D01*
X33512500Y-10213000D02*
X33567500Y-10158000D01*
X33512500Y-10103000D01*
X33457500Y-10158000D01*
X33512500Y-10213000D01*
X33512500Y-10467000D02*
X33567500Y-10412000D01*
X33512500Y-10357000D01*
X33457500Y-10412000D01*
X33512500Y-10467000D01*
X33766500Y-10213000D02*
X33821500Y-10158000D01*
X33766500Y-10103000D01*
X33711500Y-10158000D01*
X33766500Y-10213000D01*
X33766500Y-10467000D02*
X33821500Y-10412000D01*
X33766500Y-10357000D01*
X33711500Y-10412000D01*
X33766500Y-10467000D01*
X34020500Y-10213000D02*
X34075500Y-10158000D01*
X34020500Y-10103000D01*
X33965500Y-10158000D01*
X34020500Y-10213000D01*
X34020500Y-10467000D02*
X34075500Y-10412000D01*
X34020500Y-10357000D01*
X33965500Y-10412000D01*
X34020500Y-10467000D01*
X34744400Y-10594000D02*
X34799400Y-10539000D01*
X34744400Y-10484000D01*
X34689400Y-10539000D01*
X34744400Y-10594000D01*
X34744400Y-11089300D02*
X34799400Y-11034300D01*
X34744400Y-10979300D01*
X34689400Y-11034300D01*
X34744400Y-11089300D01*
X35839500Y-10213000D02*
X35894500Y-10158000D01*
X35839500Y-10103000D01*
X35784500Y-10158000D01*
X35839500Y-10213000D01*
X35839500Y-10467000D02*
X35894500Y-10412000D01*
X35839500Y-10357000D01*
X35784500Y-10412000D01*
X35839500Y-10467000D01*
X36093500Y-10213000D02*
X36148500Y-10158000D01*
X36093500Y-10103000D01*
X36038500Y-10158000D01*
X36093500Y-10213000D01*
X36093500Y-10467000D02*
X36148500Y-10412000D01*
X36093500Y-10357000D01*
X36038500Y-10412000D01*
X36093500Y-10467000D01*
X36347500Y-10213000D02*
X36402500Y-10158000D01*
X36347500Y-10103000D01*
X36292500Y-10158000D01*
X36347500Y-10213000D01*
X36347500Y-10467000D02*
X36402500Y-10412000D01*
X36347500Y-10357000D01*
X36292500Y-10412000D01*
X36347500Y-10467000D01*
X36601500Y-10213000D02*
X36656500Y-10158000D01*
X36601500Y-10103000D01*
X36546500Y-10158000D01*
X36601500Y-10213000D01*
X36601500Y-10467000D02*
X36656500Y-10412000D01*
X36601500Y-10357000D01*
X36546500Y-10412000D01*
X36601500Y-10467000D01*
X36855500Y-10213000D02*
X36910500Y-10158000D01*
X36855500Y-10103000D01*
X36800500Y-10158000D01*
X36855500Y-10213000D01*
X36855500Y-10467000D02*
X36910500Y-10412000D01*
X36855500Y-10357000D01*
X36800500Y-10412000D01*
X36855500Y-10467000D01*
X37579400Y-10594000D02*
X37634400Y-10539000D01*
X37579400Y-10484000D01*
X37524400Y-10539000D01*
X37579400Y-10594000D01*
X37579400Y-11089300D02*
X37634400Y-11034300D01*
X37579400Y-10979300D01*
X37524400Y-11034300D01*
X37579400Y-11089300D01*
X38691000Y-10210000D02*
X38746000Y-10155000D01*
X38691000Y-10100000D01*
X38636000Y-10155000D01*
X38691000Y-10210000D01*
X38691000Y-10464000D02*
X38746000Y-10409000D01*
X38691000Y-10354000D01*
X38636000Y-10409000D01*
X38691000Y-10464000D01*
X38945000Y-10210000D02*
X39000000Y-10155000D01*
X38945000Y-10100000D01*
X38890000Y-10155000D01*
X38945000Y-10210000D01*
X38945000Y-10464000D02*
X39000000Y-10409000D01*
X38945000Y-10354000D01*
X38890000Y-10409000D01*
X38945000Y-10464000D01*
X39199000Y-10210000D02*
X39254000Y-10155000D01*
X39199000Y-10100000D01*
X39144000Y-10155000D01*
X39199000Y-10210000D01*
X39199000Y-10464000D02*
X39254000Y-10409000D01*
X39199000Y-10354000D01*
X39144000Y-10409000D01*
X39199000Y-10464000D01*
X39453000Y-10210000D02*
X39508000Y-10155000D01*
X39453000Y-10100000D01*
X39398000Y-10155000D01*
X39453000Y-10210000D01*
X39453000Y-10464000D02*
X39508000Y-10409000D01*
X39453000Y-10354000D01*
X39398000Y-10409000D01*
X39453000Y-10464000D01*
X39707000Y-10210000D02*
X39762000Y-10155000D01*
X39707000Y-10100000D01*
X39652000Y-10155000D01*
X39707000Y-10210000D01*
X39707000Y-10464000D02*
X39762000Y-10409000D01*
X39707000Y-10354000D01*
X39652000Y-10409000D01*
X39707000Y-10464000D01*
X40430900Y-10591000D02*
X40485900Y-10536000D01*
X40430900Y-10481000D01*
X40375900Y-10536000D01*
X40430900Y-10591000D01*
X40430900Y-11086300D02*
X40485900Y-11031300D01*
X40430900Y-10976300D01*
X40375900Y-11031300D01*
X40430900Y-11086300D01*
D15*
X13610500Y-8078000D02*
X13730500Y-8198000D01*
X13730500Y-8078000D02*
X13610500Y-8198000D01*
X13730500Y-8138000D02*
G75*
G02*
X13610500Y-8138000I-60000J0D01*
G01*
X13610500Y-8138000D02*
G75*
G02*
X13730500Y-8138000I60000J0D01*
G01*
X13610500Y-8332000D02*
X13730500Y-8452000D01*
X13730500Y-8332000D02*
X13610500Y-8452000D01*
X13730500Y-8392000D02*
G75*
G02*
X13610500Y-8392000I-60000J0D01*
G01*
X13610500Y-8392000D02*
G75*
G02*
X13730500Y-8392000I60000J0D01*
G01*
X13610500Y-8586000D02*
X13730500Y-8706000D01*
X13730500Y-8586000D02*
X13610500Y-8706000D01*
X13730500Y-8646000D02*
G75*
G02*
X13610500Y-8646000I-60000J0D01*
G01*
X13610500Y-8646000D02*
G75*
G02*
X13730500Y-8646000I60000J0D01*
G01*
X13610500Y-8840000D02*
X13730500Y-8960000D01*
X13730500Y-8840000D02*
X13610500Y-8960000D01*
X13730500Y-8900000D02*
G75*
G02*
X13610500Y-8900000I-60000J0D01*
G01*
X13610500Y-8900000D02*
G75*
G02*
X13730500Y-8900000I60000J0D01*
G01*
X13610500Y-9094000D02*
X13730500Y-9214000D01*
X13730500Y-9094000D02*
X13610500Y-9214000D01*
X13730500Y-9154000D02*
G75*
G02*
X13610500Y-9154000I-60000J0D01*
G01*
X13610500Y-9154000D02*
G75*
G02*
X13730500Y-9154000I60000J0D01*
G01*
X13610500Y-9348000D02*
X13730500Y-9468000D01*
X13730500Y-9348000D02*
X13610500Y-9468000D01*
X13730500Y-9408000D02*
G75*
G02*
X13610500Y-9408000I-60000J0D01*
G01*
X13610500Y-9408000D02*
G75*
G02*
X13730500Y-9408000I60000J0D01*
G01*
X13610500Y-9602000D02*
X13730500Y-9722000D01*
X13730500Y-9602000D02*
X13610500Y-9722000D01*
X13730500Y-9662000D02*
G75*
G02*
X13610500Y-9662000I-60000J0D01*
G01*
X13610500Y-9662000D02*
G75*
G02*
X13730500Y-9662000I60000J0D01*
G01*
X15134500Y-8078000D02*
X15254500Y-8198000D01*
X15254500Y-8078000D02*
X15134500Y-8198000D01*
X15254500Y-8138000D02*
G75*
G02*
X15134500Y-8138000I-60000J0D01*
G01*
X15134500Y-8138000D02*
G75*
G02*
X15254500Y-8138000I60000J0D01*
G01*
X15134500Y-8332000D02*
X15254500Y-8452000D01*
X15254500Y-8332000D02*
X15134500Y-8452000D01*
X15254500Y-8392000D02*
G75*
G02*
X15134500Y-8392000I-60000J0D01*
G01*
X15134500Y-8392000D02*
G75*
G02*
X15254500Y-8392000I60000J0D01*
G01*
X15134500Y-8586000D02*
X15254500Y-8706000D01*
X15254500Y-8586000D02*
X15134500Y-8706000D01*
X15254500Y-8646000D02*
G75*
G02*
X15134500Y-8646000I-60000J0D01*
G01*
X15134500Y-8646000D02*
G75*
G02*
X15254500Y-8646000I60000J0D01*
G01*
X15134500Y-8840000D02*
X15254500Y-8960000D01*
X15254500Y-8840000D02*
X15134500Y-8960000D01*
X15254500Y-8900000D02*
G75*
G02*
X15134500Y-8900000I-60000J0D01*
G01*
X15134500Y-8900000D02*
G75*
G02*
X15254500Y-8900000I60000J0D01*
G01*
X15134500Y-9094000D02*
X15254500Y-9214000D01*
X15254500Y-9094000D02*
X15134500Y-9214000D01*
X15254500Y-9154000D02*
G75*
G02*
X15134500Y-9154000I-60000J0D01*
G01*
X15134500Y-9154000D02*
G75*
G02*
X15254500Y-9154000I60000J0D01*
G01*
X15134500Y-9348000D02*
X15254500Y-9468000D01*
X15254500Y-9348000D02*
X15134500Y-9468000D01*
X15254500Y-9408000D02*
G75*
G02*
X15134500Y-9408000I-60000J0D01*
G01*
X15134500Y-9408000D02*
G75*
G02*
X15254500Y-9408000I60000J0D01*
G01*
X15134500Y-9602000D02*
X15254500Y-9722000D01*
X15254500Y-9602000D02*
X15134500Y-9722000D01*
X15254500Y-9662000D02*
G75*
G02*
X15134500Y-9662000I-60000J0D01*
G01*
X15134500Y-9662000D02*
G75*
G02*
X15254500Y-9662000I60000J0D01*
G01*
X16405000Y-8069500D02*
X16525000Y-8189500D01*
X16525000Y-8069500D02*
X16405000Y-8189500D01*
X16525000Y-8129500D02*
G75*
G02*
X16405000Y-8129500I-60000J0D01*
G01*
X16405000Y-8129500D02*
G75*
G02*
X16525000Y-8129500I60000J0D01*
G01*
X16405000Y-8323500D02*
X16525000Y-8443500D01*
X16525000Y-8323500D02*
X16405000Y-8443500D01*
X16525000Y-8383500D02*
G75*
G02*
X16405000Y-8383500I-60000J0D01*
G01*
X16405000Y-8383500D02*
G75*
G02*
X16525000Y-8383500I60000J0D01*
G01*
X16405000Y-8577500D02*
X16525000Y-8697500D01*
X16525000Y-8577500D02*
X16405000Y-8697500D01*
X16525000Y-8637500D02*
G75*
G02*
X16405000Y-8637500I-60000J0D01*
G01*
X16405000Y-8637500D02*
G75*
G02*
X16525000Y-8637500I60000J0D01*
G01*
X16405000Y-8831500D02*
X16525000Y-8951500D01*
X16525000Y-8831500D02*
X16405000Y-8951500D01*
X16525000Y-8891500D02*
G75*
G02*
X16405000Y-8891500I-60000J0D01*
G01*
X16405000Y-8891500D02*
G75*
G02*
X16525000Y-8891500I60000J0D01*
G01*
X16405000Y-9085500D02*
X16525000Y-9205500D01*
X16525000Y-9085500D02*
X16405000Y-9205500D01*
X16525000Y-9145500D02*
G75*
G02*
X16405000Y-9145500I-60000J0D01*
G01*
X16405000Y-9145500D02*
G75*
G02*
X16525000Y-9145500I60000J0D01*
G01*
X16405000Y-9339500D02*
X16525000Y-9459500D01*
X16525000Y-9339500D02*
X16405000Y-9459500D01*
X16525000Y-9399500D02*
G75*
G02*
X16405000Y-9399500I-60000J0D01*
G01*
X16405000Y-9399500D02*
G75*
G02*
X16525000Y-9399500I60000J0D01*
G01*
X16405000Y-9593500D02*
X16525000Y-9713500D01*
X16525000Y-9593500D02*
X16405000Y-9713500D01*
X16525000Y-9653500D02*
G75*
G02*
X16405000Y-9653500I-60000J0D01*
G01*
X16405000Y-9653500D02*
G75*
G02*
X16525000Y-9653500I60000J0D01*
G01*
X17929000Y-8069500D02*
X18049000Y-8189500D01*
X18049000Y-8069500D02*
X17929000Y-8189500D01*
X18049000Y-8129500D02*
G75*
G02*
X17929000Y-8129500I-60000J0D01*
G01*
X17929000Y-8129500D02*
G75*
G02*
X18049000Y-8129500I60000J0D01*
G01*
X17929000Y-8323500D02*
X18049000Y-8443500D01*
X18049000Y-8323500D02*
X17929000Y-8443500D01*
X18049000Y-8383500D02*
G75*
G02*
X17929000Y-8383500I-60000J0D01*
G01*
X17929000Y-8383500D02*
G75*
G02*
X18049000Y-8383500I60000J0D01*
G01*
X17929000Y-8577500D02*
X18049000Y-8697500D01*
X18049000Y-8577500D02*
X17929000Y-8697500D01*
X18049000Y-8637500D02*
G75*
G02*
X17929000Y-8637500I-60000J0D01*
G01*
X17929000Y-8637500D02*
G75*
G02*
X18049000Y-8637500I60000J0D01*
G01*
X17929000Y-8831500D02*
X18049000Y-8951500D01*
X18049000Y-8831500D02*
X17929000Y-8951500D01*
X18049000Y-8891500D02*
G75*
G02*
X17929000Y-8891500I-60000J0D01*
G01*
X17929000Y-8891500D02*
G75*
G02*
X18049000Y-8891500I60000J0D01*
G01*
X17929000Y-9085500D02*
X18049000Y-9205500D01*
X18049000Y-9085500D02*
X17929000Y-9205500D01*
X18049000Y-9145500D02*
G75*
G02*
X17929000Y-9145500I-60000J0D01*
G01*
X17929000Y-9145500D02*
G75*
G02*
X18049000Y-9145500I60000J0D01*
G01*
X17929000Y-9339500D02*
X18049000Y-9459500D01*
X18049000Y-9339500D02*
X17929000Y-9459500D01*
X18049000Y-9399500D02*
G75*
G02*
X17929000Y-9399500I-60000J0D01*
G01*
X17929000Y-9399500D02*
G75*
G02*
X18049000Y-9399500I60000J0D01*
G01*
X17929000Y-9593500D02*
X18049000Y-9713500D01*
X18049000Y-9593500D02*
X17929000Y-9713500D01*
X18049000Y-9653500D02*
G75*
G02*
X17929000Y-9653500I-60000J0D01*
G01*
X17929000Y-9653500D02*
G75*
G02*
X18049000Y-9653500I60000J0D01*
G01*
X19246404Y-8069500D02*
X19366404Y-8189500D01*
X19366404Y-8069500D02*
X19246404Y-8189500D01*
X19366404Y-8129500D02*
G75*
G02*
X19246404Y-8129500I-60000J0D01*
G01*
X19246404Y-8129500D02*
G75*
G02*
X19366404Y-8129500I60000J0D01*
G01*
X19246404Y-8323500D02*
X19366404Y-8443500D01*
X19366404Y-8323500D02*
X19246404Y-8443500D01*
X19366404Y-8383500D02*
G75*
G02*
X19246404Y-8383500I-60000J0D01*
G01*
X19246404Y-8383500D02*
G75*
G02*
X19366404Y-8383500I60000J0D01*
G01*
X19246404Y-8577500D02*
X19366404Y-8697500D01*
X19366404Y-8577500D02*
X19246404Y-8697500D01*
X19366404Y-8637500D02*
G75*
G02*
X19246404Y-8637500I-60000J0D01*
G01*
X19246404Y-8637500D02*
G75*
G02*
X19366404Y-8637500I60000J0D01*
G01*
X19246404Y-8831500D02*
X19366404Y-8951500D01*
X19366404Y-8831500D02*
X19246404Y-8951500D01*
X19366404Y-8891500D02*
G75*
G02*
X19246404Y-8891500I-60000J0D01*
G01*
X19246404Y-8891500D02*
G75*
G02*
X19366404Y-8891500I60000J0D01*
G01*
X19246404Y-9085500D02*
X19366404Y-9205500D01*
X19366404Y-9085500D02*
X19246404Y-9205500D01*
X19366404Y-9145500D02*
G75*
G02*
X19246404Y-9145500I-60000J0D01*
G01*
X19246404Y-9145500D02*
G75*
G02*
X19366404Y-9145500I60000J0D01*
G01*
X19246404Y-9339500D02*
X19366404Y-9459500D01*
X19366404Y-9339500D02*
X19246404Y-9459500D01*
X19366404Y-9399500D02*
G75*
G02*
X19246404Y-9399500I-60000J0D01*
G01*
X19246404Y-9399500D02*
G75*
G02*
X19366404Y-9399500I60000J0D01*
G01*
X19246404Y-9593500D02*
X19366404Y-9713500D01*
X19366404Y-9593500D02*
X19246404Y-9713500D01*
X19366404Y-9653500D02*
G75*
G02*
X19246404Y-9653500I-60000J0D01*
G01*
X19246404Y-9653500D02*
G75*
G02*
X19366404Y-9653500I60000J0D01*
G01*
X20770404Y-8069500D02*
X20890404Y-8189500D01*
X20890404Y-8069500D02*
X20770404Y-8189500D01*
X20890404Y-8129500D02*
G75*
G02*
X20770404Y-8129500I-60000J0D01*
G01*
X20770404Y-8129500D02*
G75*
G02*
X20890404Y-8129500I60000J0D01*
G01*
X20770404Y-8323500D02*
X20890404Y-8443500D01*
X20890404Y-8323500D02*
X20770404Y-8443500D01*
X20890404Y-8383500D02*
G75*
G02*
X20770404Y-8383500I-60000J0D01*
G01*
X20770404Y-8383500D02*
G75*
G02*
X20890404Y-8383500I60000J0D01*
G01*
X20770404Y-8577500D02*
X20890404Y-8697500D01*
X20890404Y-8577500D02*
X20770404Y-8697500D01*
X20890404Y-8637500D02*
G75*
G02*
X20770404Y-8637500I-60000J0D01*
G01*
X20770404Y-8637500D02*
G75*
G02*
X20890404Y-8637500I60000J0D01*
G01*
X20770404Y-8831500D02*
X20890404Y-8951500D01*
X20890404Y-8831500D02*
X20770404Y-8951500D01*
X20890404Y-8891500D02*
G75*
G02*
X20770404Y-8891500I-60000J0D01*
G01*
X20770404Y-8891500D02*
G75*
G02*
X20890404Y-8891500I60000J0D01*
G01*
X20770404Y-9085500D02*
X20890404Y-9205500D01*
X20890404Y-9085500D02*
X20770404Y-9205500D01*
X20890404Y-9145500D02*
G75*
G02*
X20770404Y-9145500I-60000J0D01*
G01*
X20770404Y-9145500D02*
G75*
G02*
X20890404Y-9145500I60000J0D01*
G01*
X20770404Y-9339500D02*
X20890404Y-9459500D01*
X20890404Y-9339500D02*
X20770404Y-9459500D01*
X20890404Y-9399500D02*
G75*
G02*
X20770404Y-9399500I-60000J0D01*
G01*
X20770404Y-9399500D02*
G75*
G02*
X20890404Y-9399500I60000J0D01*
G01*
X20770404Y-9593500D02*
X20890404Y-9713500D01*
X20890404Y-9593500D02*
X20770404Y-9713500D01*
X20890404Y-9653500D02*
G75*
G02*
X20770404Y-9653500I-60000J0D01*
G01*
X20770404Y-9653500D02*
G75*
G02*
X20890404Y-9653500I60000J0D01*
G01*
X22085210Y-8069500D02*
X22205210Y-8189500D01*
X22205210Y-8069500D02*
X22085210Y-8189500D01*
X22205210Y-8129500D02*
G75*
G02*
X22085210Y-8129500I-60000J0D01*
G01*
X22085210Y-8129500D02*
G75*
G02*
X22205210Y-8129500I60000J0D01*
G01*
X22085210Y-8323500D02*
X22205210Y-8443500D01*
X22205210Y-8323500D02*
X22085210Y-8443500D01*
X22205210Y-8383500D02*
G75*
G02*
X22085210Y-8383500I-60000J0D01*
G01*
X22085210Y-8383500D02*
G75*
G02*
X22205210Y-8383500I60000J0D01*
G01*
X22085210Y-8577500D02*
X22205210Y-8697500D01*
X22205210Y-8577500D02*
X22085210Y-8697500D01*
X22205210Y-8637500D02*
G75*
G02*
X22085210Y-8637500I-60000J0D01*
G01*
X22085210Y-8637500D02*
G75*
G02*
X22205210Y-8637500I60000J0D01*
G01*
X22085210Y-8831500D02*
X22205210Y-8951500D01*
X22205210Y-8831500D02*
X22085210Y-8951500D01*
X22205210Y-8891500D02*
G75*
G02*
X22085210Y-8891500I-60000J0D01*
G01*
X22085210Y-8891500D02*
G75*
G02*
X22205210Y-8891500I60000J0D01*
G01*
X22085210Y-9085500D02*
X22205210Y-9205500D01*
X22205210Y-9085500D02*
X22085210Y-9205500D01*
X22205210Y-9145500D02*
G75*
G02*
X22085210Y-9145500I-60000J0D01*
G01*
X22085210Y-9145500D02*
G75*
G02*
X22205210Y-9145500I60000J0D01*
G01*
X22085210Y-9339500D02*
X22205210Y-9459500D01*
X22205210Y-9339500D02*
X22085210Y-9459500D01*
X22205210Y-9399500D02*
G75*
G02*
X22085210Y-9399500I-60000J0D01*
G01*
X22085210Y-9399500D02*
G75*
G02*
X22205210Y-9399500I60000J0D01*
G01*
X22085210Y-9593500D02*
X22205210Y-9713500D01*
X22205210Y-9593500D02*
X22085210Y-9713500D01*
X22205210Y-9653500D02*
G75*
G02*
X22085210Y-9653500I-60000J0D01*
G01*
X22085210Y-9653500D02*
G75*
G02*
X22205210Y-9653500I60000J0D01*
G01*
X23609210Y-8069500D02*
X23729210Y-8189500D01*
X23729210Y-8069500D02*
X23609210Y-8189500D01*
X23729210Y-8129500D02*
G75*
G02*
X23609210Y-8129500I-60000J0D01*
G01*
X23609210Y-8129500D02*
G75*
G02*
X23729210Y-8129500I60000J0D01*
G01*
X23609210Y-8323500D02*
X23729210Y-8443500D01*
X23729210Y-8323500D02*
X23609210Y-8443500D01*
X23729210Y-8383500D02*
G75*
G02*
X23609210Y-8383500I-60000J0D01*
G01*
X23609210Y-8383500D02*
G75*
G02*
X23729210Y-8383500I60000J0D01*
G01*
X23609210Y-8577500D02*
X23729210Y-8697500D01*
X23729210Y-8577500D02*
X23609210Y-8697500D01*
X23729210Y-8637500D02*
G75*
G02*
X23609210Y-8637500I-60000J0D01*
G01*
X23609210Y-8637500D02*
G75*
G02*
X23729210Y-8637500I60000J0D01*
G01*
X23609210Y-8831500D02*
X23729210Y-8951500D01*
X23729210Y-8831500D02*
X23609210Y-8951500D01*
X23729210Y-8891500D02*
G75*
G02*
X23609210Y-8891500I-60000J0D01*
G01*
X23609210Y-8891500D02*
G75*
G02*
X23729210Y-8891500I60000J0D01*
G01*
X23609210Y-9085500D02*
X23729210Y-9205500D01*
X23729210Y-9085500D02*
X23609210Y-9205500D01*
X23729210Y-9145500D02*
G75*
G02*
X23609210Y-9145500I-60000J0D01*
G01*
X23609210Y-9145500D02*
G75*
G02*
X23729210Y-9145500I60000J0D01*
G01*
X23609210Y-9339500D02*
X23729210Y-9459500D01*
X23729210Y-9339500D02*
X23609210Y-9459500D01*
X23729210Y-9399500D02*
G75*
G02*
X23609210Y-9399500I-60000J0D01*
G01*
X23609210Y-9399500D02*
G75*
G02*
X23729210Y-9399500I60000J0D01*
G01*
X23609210Y-9593500D02*
X23729210Y-9713500D01*
X23729210Y-9593500D02*
X23609210Y-9713500D01*
X23729210Y-9653500D02*
G75*
G02*
X23609210Y-9653500I-60000J0D01*
G01*
X23609210Y-9653500D02*
G75*
G02*
X23729210Y-9653500I60000J0D01*
G01*
X24893494Y-8069500D02*
X25013494Y-8189500D01*
X25013494Y-8069500D02*
X24893494Y-8189500D01*
X25013494Y-8129500D02*
G75*
G02*
X24893494Y-8129500I-60000J0D01*
G01*
X24893494Y-8129500D02*
G75*
G02*
X25013494Y-8129500I60000J0D01*
G01*
X24893494Y-8323500D02*
X25013494Y-8443500D01*
X25013494Y-8323500D02*
X24893494Y-8443500D01*
X25013494Y-8383500D02*
G75*
G02*
X24893494Y-8383500I-60000J0D01*
G01*
X24893494Y-8383500D02*
G75*
G02*
X25013494Y-8383500I60000J0D01*
G01*
X24893494Y-8577500D02*
X25013494Y-8697500D01*
X25013494Y-8577500D02*
X24893494Y-8697500D01*
X25013494Y-8637500D02*
G75*
G02*
X24893494Y-8637500I-60000J0D01*
G01*
X24893494Y-8637500D02*
G75*
G02*
X25013494Y-8637500I60000J0D01*
G01*
X24893494Y-8831500D02*
X25013494Y-8951500D01*
X25013494Y-8831500D02*
X24893494Y-8951500D01*
X25013494Y-8891500D02*
G75*
G02*
X24893494Y-8891500I-60000J0D01*
G01*
X24893494Y-8891500D02*
G75*
G02*
X25013494Y-8891500I60000J0D01*
G01*
X24893494Y-9085500D02*
X25013494Y-9205500D01*
X25013494Y-9085500D02*
X24893494Y-9205500D01*
X25013494Y-9145500D02*
G75*
G02*
X24893494Y-9145500I-60000J0D01*
G01*
X24893494Y-9145500D02*
G75*
G02*
X25013494Y-9145500I60000J0D01*
G01*
X24893494Y-9339500D02*
X25013494Y-9459500D01*
X25013494Y-9339500D02*
X24893494Y-9459500D01*
X25013494Y-9399500D02*
G75*
G02*
X24893494Y-9399500I-60000J0D01*
G01*
X24893494Y-9399500D02*
G75*
G02*
X25013494Y-9399500I60000J0D01*
G01*
X24893494Y-9593500D02*
X25013494Y-9713500D01*
X25013494Y-9593500D02*
X24893494Y-9713500D01*
X25013494Y-9653500D02*
G75*
G02*
X24893494Y-9653500I-60000J0D01*
G01*
X24893494Y-9653500D02*
G75*
G02*
X25013494Y-9653500I60000J0D01*
G01*
X26417494Y-8069500D02*
X26537494Y-8189500D01*
X26537494Y-8069500D02*
X26417494Y-8189500D01*
X26537494Y-8129500D02*
G75*
G02*
X26417494Y-8129500I-60000J0D01*
G01*
X26417494Y-8129500D02*
G75*
G02*
X26537494Y-8129500I60000J0D01*
G01*
X26417494Y-8323500D02*
X26537494Y-8443500D01*
X26537494Y-8323500D02*
X26417494Y-8443500D01*
X26537494Y-8383500D02*
G75*
G02*
X26417494Y-8383500I-60000J0D01*
G01*
X26417494Y-8383500D02*
G75*
G02*
X26537494Y-8383500I60000J0D01*
G01*
X26417494Y-8577500D02*
X26537494Y-8697500D01*
X26537494Y-8577500D02*
X26417494Y-8697500D01*
X26537494Y-8637500D02*
G75*
G02*
X26417494Y-8637500I-60000J0D01*
G01*
X26417494Y-8637500D02*
G75*
G02*
X26537494Y-8637500I60000J0D01*
G01*
X26417494Y-8831500D02*
X26537494Y-8951500D01*
X26537494Y-8831500D02*
X26417494Y-8951500D01*
X26537494Y-8891500D02*
G75*
G02*
X26417494Y-8891500I-60000J0D01*
G01*
X26417494Y-8891500D02*
G75*
G02*
X26537494Y-8891500I60000J0D01*
G01*
X26417494Y-9085500D02*
X26537494Y-9205500D01*
X26537494Y-9085500D02*
X26417494Y-9205500D01*
X26537494Y-9145500D02*
G75*
G02*
X26417494Y-9145500I-60000J0D01*
G01*
X26417494Y-9145500D02*
G75*
G02*
X26537494Y-9145500I60000J0D01*
G01*
X26417494Y-9339500D02*
X26537494Y-9459500D01*
X26537494Y-9339500D02*
X26417494Y-9459500D01*
X26537494Y-9399500D02*
G75*
G02*
X26417494Y-9399500I-60000J0D01*
G01*
X26417494Y-9399500D02*
G75*
G02*
X26537494Y-9399500I60000J0D01*
G01*
X26417494Y-9593500D02*
X26537494Y-9713500D01*
X26537494Y-9593500D02*
X26417494Y-9713500D01*
X26537494Y-9653500D02*
G75*
G02*
X26417494Y-9653500I-60000J0D01*
G01*
X26417494Y-9653500D02*
G75*
G02*
X26537494Y-9653500I60000J0D01*
G01*
X27693494Y-8069500D02*
X27813494Y-8189500D01*
X27813494Y-8069500D02*
X27693494Y-8189500D01*
X27813494Y-8129500D02*
G75*
G02*
X27693494Y-8129500I-60000J0D01*
G01*
X27693494Y-8129500D02*
G75*
G02*
X27813494Y-8129500I60000J0D01*
G01*
X27693494Y-8323500D02*
X27813494Y-8443500D01*
X27813494Y-8323500D02*
X27693494Y-8443500D01*
X27813494Y-8383500D02*
G75*
G02*
X27693494Y-8383500I-60000J0D01*
G01*
X27693494Y-8383500D02*
G75*
G02*
X27813494Y-8383500I60000J0D01*
G01*
X27693494Y-8577500D02*
X27813494Y-8697500D01*
X27813494Y-8577500D02*
X27693494Y-8697500D01*
X27813494Y-8637500D02*
G75*
G02*
X27693494Y-8637500I-60000J0D01*
G01*
X27693494Y-8637500D02*
G75*
G02*
X27813494Y-8637500I60000J0D01*
G01*
X27693494Y-8831500D02*
X27813494Y-8951500D01*
X27813494Y-8831500D02*
X27693494Y-8951500D01*
X27813494Y-8891500D02*
G75*
G02*
X27693494Y-8891500I-60000J0D01*
G01*
X27693494Y-8891500D02*
G75*
G02*
X27813494Y-8891500I60000J0D01*
G01*
X27693494Y-9085500D02*
X27813494Y-9205500D01*
X27813494Y-9085500D02*
X27693494Y-9205500D01*
X27813494Y-9145500D02*
G75*
G02*
X27693494Y-9145500I-60000J0D01*
G01*
X27693494Y-9145500D02*
G75*
G02*
X27813494Y-9145500I60000J0D01*
G01*
X27693494Y-9339500D02*
X27813494Y-9459500D01*
X27813494Y-9339500D02*
X27693494Y-9459500D01*
X27813494Y-9399500D02*
G75*
G02*
X27693494Y-9399500I-60000J0D01*
G01*
X27693494Y-9399500D02*
G75*
G02*
X27813494Y-9399500I60000J0D01*
G01*
X27693494Y-9593500D02*
X27813494Y-9713500D01*
X27813494Y-9593500D02*
X27693494Y-9713500D01*
X27813494Y-9653500D02*
G75*
G02*
X27693494Y-9653500I-60000J0D01*
G01*
X27693494Y-9653500D02*
G75*
G02*
X27813494Y-9653500I60000J0D01*
G01*
X29217494Y-8069500D02*
X29337494Y-8189500D01*
X29337494Y-8069500D02*
X29217494Y-8189500D01*
X29337494Y-8129500D02*
G75*
G02*
X29217494Y-8129500I-60000J0D01*
G01*
X29217494Y-8129500D02*
G75*
G02*
X29337494Y-8129500I60000J0D01*
G01*
X29217494Y-8323500D02*
X29337494Y-8443500D01*
X29337494Y-8323500D02*
X29217494Y-8443500D01*
X29337494Y-8383500D02*
G75*
G02*
X29217494Y-8383500I-60000J0D01*
G01*
X29217494Y-8383500D02*
G75*
G02*
X29337494Y-8383500I60000J0D01*
G01*
X29217494Y-8577500D02*
X29337494Y-8697500D01*
X29337494Y-8577500D02*
X29217494Y-8697500D01*
X29337494Y-8637500D02*
G75*
G02*
X29217494Y-8637500I-60000J0D01*
G01*
X29217494Y-8637500D02*
G75*
G02*
X29337494Y-8637500I60000J0D01*
G01*
X29217494Y-8831500D02*
X29337494Y-8951500D01*
X29337494Y-8831500D02*
X29217494Y-8951500D01*
X29337494Y-8891500D02*
G75*
G02*
X29217494Y-8891500I-60000J0D01*
G01*
X29217494Y-8891500D02*
G75*
G02*
X29337494Y-8891500I60000J0D01*
G01*
X29217494Y-9085500D02*
X29337494Y-9205500D01*
X29337494Y-9085500D02*
X29217494Y-9205500D01*
X29337494Y-9145500D02*
G75*
G02*
X29217494Y-9145500I-60000J0D01*
G01*
X29217494Y-9145500D02*
G75*
G02*
X29337494Y-9145500I60000J0D01*
G01*
X29217494Y-9339500D02*
X29337494Y-9459500D01*
X29337494Y-9339500D02*
X29217494Y-9459500D01*
X29337494Y-9399500D02*
G75*
G02*
X29217494Y-9399500I-60000J0D01*
G01*
X29217494Y-9399500D02*
G75*
G02*
X29337494Y-9399500I60000J0D01*
G01*
X29217494Y-9593500D02*
X29337494Y-9713500D01*
X29337494Y-9593500D02*
X29217494Y-9713500D01*
X29337494Y-9653500D02*
G75*
G02*
X29217494Y-9653500I-60000J0D01*
G01*
X29217494Y-9653500D02*
G75*
G02*
X29337494Y-9653500I60000J0D01*
G01*
X30488308Y-8068900D02*
X30608308Y-8188900D01*
X30608308Y-8068900D02*
X30488308Y-8188900D01*
X30608308Y-8128900D02*
G75*
G02*
X30488308Y-8128900I-60000J0D01*
G01*
X30488308Y-8128900D02*
G75*
G02*
X30608308Y-8128900I60000J0D01*
G01*
X30488308Y-8322900D02*
X30608308Y-8442900D01*
X30608308Y-8322900D02*
X30488308Y-8442900D01*
X30608308Y-8382900D02*
G75*
G02*
X30488308Y-8382900I-60000J0D01*
G01*
X30488308Y-8382900D02*
G75*
G02*
X30608308Y-8382900I60000J0D01*
G01*
X30488308Y-8576900D02*
X30608308Y-8696900D01*
X30608308Y-8576900D02*
X30488308Y-8696900D01*
X30608308Y-8636900D02*
G75*
G02*
X30488308Y-8636900I-60000J0D01*
G01*
X30488308Y-8636900D02*
G75*
G02*
X30608308Y-8636900I60000J0D01*
G01*
X30488308Y-8830900D02*
X30608308Y-8950900D01*
X30608308Y-8830900D02*
X30488308Y-8950900D01*
X30608308Y-8890900D02*
G75*
G02*
X30488308Y-8890900I-60000J0D01*
G01*
X30488308Y-8890900D02*
G75*
G02*
X30608308Y-8890900I60000J0D01*
G01*
X30488308Y-9084900D02*
X30608308Y-9204900D01*
X30608308Y-9084900D02*
X30488308Y-9204900D01*
X30608308Y-9144900D02*
G75*
G02*
X30488308Y-9144900I-60000J0D01*
G01*
X30488308Y-9144900D02*
G75*
G02*
X30608308Y-9144900I60000J0D01*
G01*
X30488308Y-9338900D02*
X30608308Y-9458900D01*
X30608308Y-9338900D02*
X30488308Y-9458900D01*
X30608308Y-9398900D02*
G75*
G02*
X30488308Y-9398900I-60000J0D01*
G01*
X30488308Y-9398900D02*
G75*
G02*
X30608308Y-9398900I60000J0D01*
G01*
X30488308Y-9592900D02*
X30608308Y-9712900D01*
X30608308Y-9592900D02*
X30488308Y-9712900D01*
X30608308Y-9652900D02*
G75*
G02*
X30488308Y-9652900I-60000J0D01*
G01*
X30488308Y-9652900D02*
G75*
G02*
X30608308Y-9652900I60000J0D01*
G01*
X32012308Y-8068900D02*
X32132308Y-8188900D01*
X32132308Y-8068900D02*
X32012308Y-8188900D01*
X32132308Y-8128900D02*
G75*
G02*
X32012308Y-8128900I-60000J0D01*
G01*
X32012308Y-8128900D02*
G75*
G02*
X32132308Y-8128900I60000J0D01*
G01*
X32012308Y-8322900D02*
X32132308Y-8442900D01*
X32132308Y-8322900D02*
X32012308Y-8442900D01*
X32132308Y-8382900D02*
G75*
G02*
X32012308Y-8382900I-60000J0D01*
G01*
X32012308Y-8382900D02*
G75*
G02*
X32132308Y-8382900I60000J0D01*
G01*
X32012308Y-8576900D02*
X32132308Y-8696900D01*
X32132308Y-8576900D02*
X32012308Y-8696900D01*
X32132308Y-8636900D02*
G75*
G02*
X32012308Y-8636900I-60000J0D01*
G01*
X32012308Y-8636900D02*
G75*
G02*
X32132308Y-8636900I60000J0D01*
G01*
X32012308Y-8830900D02*
X32132308Y-8950900D01*
X32132308Y-8830900D02*
X32012308Y-8950900D01*
X32132308Y-8890900D02*
G75*
G02*
X32012308Y-8890900I-60000J0D01*
G01*
X32012308Y-8890900D02*
G75*
G02*
X32132308Y-8890900I60000J0D01*
G01*
X32012308Y-9084900D02*
X32132308Y-9204900D01*
X32132308Y-9084900D02*
X32012308Y-9204900D01*
X32132308Y-9144900D02*
G75*
G02*
X32012308Y-9144900I-60000J0D01*
G01*
X32012308Y-9144900D02*
G75*
G02*
X32132308Y-9144900I60000J0D01*
G01*
X32012308Y-9338900D02*
X32132308Y-9458900D01*
X32132308Y-9338900D02*
X32012308Y-9458900D01*
X32132308Y-9398900D02*
G75*
G02*
X32012308Y-9398900I-60000J0D01*
G01*
X32012308Y-9398900D02*
G75*
G02*
X32132308Y-9398900I60000J0D01*
G01*
X32012308Y-9592900D02*
X32132308Y-9712900D01*
X32132308Y-9592900D02*
X32012308Y-9712900D01*
X32132308Y-9652900D02*
G75*
G02*
X32012308Y-9652900I-60000J0D01*
G01*
X32012308Y-9652900D02*
G75*
G02*
X32132308Y-9652900I60000J0D01*
G01*
X33300608Y-8066000D02*
X33420608Y-8186000D01*
X33420608Y-8066000D02*
X33300608Y-8186000D01*
X33420608Y-8126000D02*
G75*
G02*
X33300608Y-8126000I-60000J0D01*
G01*
X33300608Y-8126000D02*
G75*
G02*
X33420608Y-8126000I60000J0D01*
G01*
X33300608Y-8320000D02*
X33420608Y-8440000D01*
X33420608Y-8320000D02*
X33300608Y-8440000D01*
X33420608Y-8380000D02*
G75*
G02*
X33300608Y-8380000I-60000J0D01*
G01*
X33300608Y-8380000D02*
G75*
G02*
X33420608Y-8380000I60000J0D01*
G01*
X33300608Y-8574000D02*
X33420608Y-8694000D01*
X33420608Y-8574000D02*
X33300608Y-8694000D01*
X33420608Y-8634000D02*
G75*
G02*
X33300608Y-8634000I-60000J0D01*
G01*
X33300608Y-8634000D02*
G75*
G02*
X33420608Y-8634000I60000J0D01*
G01*
X33300608Y-8828000D02*
X33420608Y-8948000D01*
X33420608Y-8828000D02*
X33300608Y-8948000D01*
X33420608Y-8888000D02*
G75*
G02*
X33300608Y-8888000I-60000J0D01*
G01*
X33300608Y-8888000D02*
G75*
G02*
X33420608Y-8888000I60000J0D01*
G01*
X33300608Y-9082000D02*
X33420608Y-9202000D01*
X33420608Y-9082000D02*
X33300608Y-9202000D01*
X33420608Y-9142000D02*
G75*
G02*
X33300608Y-9142000I-60000J0D01*
G01*
X33300608Y-9142000D02*
G75*
G02*
X33420608Y-9142000I60000J0D01*
G01*
X33300608Y-9336000D02*
X33420608Y-9456000D01*
X33420608Y-9336000D02*
X33300608Y-9456000D01*
X33420608Y-9396000D02*
G75*
G02*
X33300608Y-9396000I-60000J0D01*
G01*
X33300608Y-9396000D02*
G75*
G02*
X33420608Y-9396000I60000J0D01*
G01*
X33300608Y-9590000D02*
X33420608Y-9710000D01*
X33420608Y-9590000D02*
X33300608Y-9710000D01*
X33420608Y-9650000D02*
G75*
G02*
X33300608Y-9650000I-60000J0D01*
G01*
X33300608Y-9650000D02*
G75*
G02*
X33420608Y-9650000I60000J0D01*
G01*
X34824609Y-8066000D02*
X34944609Y-8186000D01*
X34944609Y-8066000D02*
X34824609Y-8186000D01*
X34944609Y-8126000D02*
G75*
G02*
X34824609Y-8126000I-60000J0D01*
G01*
X34824609Y-8126000D02*
G75*
G02*
X34944609Y-8126000I60000J0D01*
G01*
X34824609Y-8320000D02*
X34944609Y-8440000D01*
X34944609Y-8320000D02*
X34824609Y-8440000D01*
X34944609Y-8380000D02*
G75*
G02*
X34824609Y-8380000I-60000J0D01*
G01*
X34824609Y-8380000D02*
G75*
G02*
X34944609Y-8380000I60000J0D01*
G01*
X34824609Y-8574000D02*
X34944609Y-8694000D01*
X34944609Y-8574000D02*
X34824609Y-8694000D01*
X34944609Y-8634000D02*
G75*
G02*
X34824609Y-8634000I-60000J0D01*
G01*
X34824609Y-8634000D02*
G75*
G02*
X34944609Y-8634000I60000J0D01*
G01*
X34824609Y-8828000D02*
X34944609Y-8948000D01*
X34944609Y-8828000D02*
X34824609Y-8948000D01*
X34944609Y-8888000D02*
G75*
G02*
X34824609Y-8888000I-60000J0D01*
G01*
X34824609Y-8888000D02*
G75*
G02*
X34944609Y-8888000I60000J0D01*
G01*
X34824609Y-9082000D02*
X34944609Y-9202000D01*
X34944609Y-9082000D02*
X34824609Y-9202000D01*
X34944609Y-9142000D02*
G75*
G02*
X34824609Y-9142000I-60000J0D01*
G01*
X34824609Y-9142000D02*
G75*
G02*
X34944609Y-9142000I60000J0D01*
G01*
X34824609Y-9336000D02*
X34944609Y-9456000D01*
X34944609Y-9336000D02*
X34824609Y-9456000D01*
X34944609Y-9396000D02*
G75*
G02*
X34824609Y-9396000I-60000J0D01*
G01*
X34824609Y-9396000D02*
G75*
G02*
X34944609Y-9396000I60000J0D01*
G01*
X34824609Y-9590000D02*
X34944609Y-9710000D01*
X34944609Y-9590000D02*
X34824609Y-9710000D01*
X34944609Y-9650000D02*
G75*
G02*
X34824609Y-9650000I-60000J0D01*
G01*
X34824609Y-9650000D02*
G75*
G02*
X34944609Y-9650000I60000J0D01*
G01*
X36135609Y-8066000D02*
X36255609Y-8186000D01*
X36255609Y-8066000D02*
X36135609Y-8186000D01*
X36255609Y-8126000D02*
G75*
G02*
X36135609Y-8126000I-60000J0D01*
G01*
X36135609Y-8126000D02*
G75*
G02*
X36255609Y-8126000I60000J0D01*
G01*
X36135609Y-8320000D02*
X36255609Y-8440000D01*
X36255609Y-8320000D02*
X36135609Y-8440000D01*
X36255609Y-8380000D02*
G75*
G02*
X36135609Y-8380000I-60000J0D01*
G01*
X36135609Y-8380000D02*
G75*
G02*
X36255609Y-8380000I60000J0D01*
G01*
X36135609Y-8574000D02*
X36255609Y-8694000D01*
X36255609Y-8574000D02*
X36135609Y-8694000D01*
X36255609Y-8634000D02*
G75*
G02*
X36135609Y-8634000I-60000J0D01*
G01*
X36135609Y-8634000D02*
G75*
G02*
X36255609Y-8634000I60000J0D01*
G01*
X36135609Y-8828000D02*
X36255609Y-8948000D01*
X36255609Y-8828000D02*
X36135609Y-8948000D01*
X36255609Y-8888000D02*
G75*
G02*
X36135609Y-8888000I-60000J0D01*
G01*
X36135609Y-8888000D02*
G75*
G02*
X36255609Y-8888000I60000J0D01*
G01*
X36135609Y-9082000D02*
X36255609Y-9202000D01*
X36255609Y-9082000D02*
X36135609Y-9202000D01*
X36255609Y-9142000D02*
G75*
G02*
X36135609Y-9142000I-60000J0D01*
G01*
X36135609Y-9142000D02*
G75*
G02*
X36255609Y-9142000I60000J0D01*
G01*
X36135609Y-9336000D02*
X36255609Y-9456000D01*
X36255609Y-9336000D02*
X36135609Y-9456000D01*
X36255609Y-9396000D02*
G75*
G02*
X36135609Y-9396000I-60000J0D01*
G01*
X36135609Y-9396000D02*
G75*
G02*
X36255609Y-9396000I60000J0D01*
G01*
X36135609Y-9590000D02*
X36255609Y-9710000D01*
X36255609Y-9590000D02*
X36135609Y-9710000D01*
X36255609Y-9650000D02*
G75*
G02*
X36135609Y-9650000I-60000J0D01*
G01*
X36135609Y-9650000D02*
G75*
G02*
X36255609Y-9650000I60000J0D01*
G01*
X37659609Y-8066000D02*
X37779609Y-8186000D01*
X37779609Y-8066000D02*
X37659609Y-8186000D01*
X37779609Y-8126000D02*
G75*
G02*
X37659609Y-8126000I-60000J0D01*
G01*
X37659609Y-8126000D02*
G75*
G02*
X37779609Y-8126000I60000J0D01*
G01*
X37659609Y-8320000D02*
X37779609Y-8440000D01*
X37779609Y-8320000D02*
X37659609Y-8440000D01*
X37779609Y-8380000D02*
G75*
G02*
X37659609Y-8380000I-60000J0D01*
G01*
X37659609Y-8380000D02*
G75*
G02*
X37779609Y-8380000I60000J0D01*
G01*
X37659609Y-8574000D02*
X37779609Y-8694000D01*
X37779609Y-8574000D02*
X37659609Y-8694000D01*
X37779609Y-8634000D02*
G75*
G02*
X37659609Y-8634000I-60000J0D01*
G01*
X37659609Y-8634000D02*
G75*
G02*
X37779609Y-8634000I60000J0D01*
G01*
X37659609Y-8828000D02*
X37779609Y-8948000D01*
X37779609Y-8828000D02*
X37659609Y-8948000D01*
X37779609Y-8888000D02*
G75*
G02*
X37659609Y-8888000I-60000J0D01*
G01*
X37659609Y-8888000D02*
G75*
G02*
X37779609Y-8888000I60000J0D01*
G01*
X37659609Y-9082000D02*
X37779609Y-9202000D01*
X37779609Y-9082000D02*
X37659609Y-9202000D01*
X37779609Y-9142000D02*
G75*
G02*
X37659609Y-9142000I-60000J0D01*
G01*
X37659609Y-9142000D02*
G75*
G02*
X37779609Y-9142000I60000J0D01*
G01*
X37659609Y-9336000D02*
X37779609Y-9456000D01*
X37779609Y-9336000D02*
X37659609Y-9456000D01*
X37779609Y-9396000D02*
G75*
G02*
X37659609Y-9396000I-60000J0D01*
G01*
X37659609Y-9396000D02*
G75*
G02*
X37779609Y-9396000I60000J0D01*
G01*
X37659609Y-9590000D02*
X37779609Y-9710000D01*
X37779609Y-9590000D02*
X37659609Y-9710000D01*
X37779609Y-9650000D02*
G75*
G02*
X37659609Y-9650000I-60000J0D01*
G01*
X37659609Y-9650000D02*
G75*
G02*
X37779609Y-9650000I60000J0D01*
G01*
X38987109Y-8063000D02*
X39107109Y-8183000D01*
X39107109Y-8063000D02*
X38987109Y-8183000D01*
X39107109Y-8123000D02*
G75*
G02*
X38987109Y-8123000I-60000J0D01*
G01*
X38987109Y-8123000D02*
G75*
G02*
X39107109Y-8123000I60000J0D01*
G01*
X38987109Y-8317000D02*
X39107109Y-8437000D01*
X39107109Y-8317000D02*
X38987109Y-8437000D01*
X39107109Y-8377000D02*
G75*
G02*
X38987109Y-8377000I-60000J0D01*
G01*
X38987109Y-8377000D02*
G75*
G02*
X39107109Y-8377000I60000J0D01*
G01*
X38987109Y-8571000D02*
X39107109Y-8691000D01*
X39107109Y-8571000D02*
X38987109Y-8691000D01*
X39107109Y-8631000D02*
G75*
G02*
X38987109Y-8631000I-60000J0D01*
G01*
X38987109Y-8631000D02*
G75*
G02*
X39107109Y-8631000I60000J0D01*
G01*
X38987109Y-8825000D02*
X39107109Y-8945000D01*
X39107109Y-8825000D02*
X38987109Y-8945000D01*
X39107109Y-8885000D02*
G75*
G02*
X38987109Y-8885000I-60000J0D01*
G01*
X38987109Y-8885000D02*
G75*
G02*
X39107109Y-8885000I60000J0D01*
G01*
X38987109Y-9079000D02*
X39107109Y-9199000D01*
X39107109Y-9079000D02*
X38987109Y-9199000D01*
X39107109Y-9139000D02*
G75*
G02*
X38987109Y-9139000I-60000J0D01*
G01*
X38987109Y-9139000D02*
G75*
G02*
X39107109Y-9139000I60000J0D01*
G01*
X38987109Y-9333000D02*
X39107109Y-9453000D01*
X39107109Y-9333000D02*
X38987109Y-9453000D01*
X39107109Y-9393000D02*
G75*
G02*
X38987109Y-9393000I-60000J0D01*
G01*
X38987109Y-9393000D02*
G75*
G02*
X39107109Y-9393000I60000J0D01*
G01*
X38987109Y-9587000D02*
X39107109Y-9707000D01*
X39107109Y-9587000D02*
X38987109Y-9707000D01*
X39107109Y-9647000D02*
G75*
G02*
X38987109Y-9647000I-60000J0D01*
G01*
X38987109Y-9647000D02*
G75*
G02*
X39107109Y-9647000I60000J0D01*
G01*
X40511109Y-8063000D02*
X40631109Y-8183000D01*
X40631109Y-8063000D02*
X40511109Y-8183000D01*
X40631109Y-8123000D02*
G75*
G02*
X40511109Y-8123000I-60000J0D01*
G01*
X40511109Y-8123000D02*
G75*
G02*
X40631109Y-8123000I60000J0D01*
G01*
X40511109Y-8317000D02*
X40631109Y-8437000D01*
X40631109Y-8317000D02*
X40511109Y-8437000D01*
X40631109Y-8377000D02*
G75*
G02*
X40511109Y-8377000I-60000J0D01*
G01*
X40511109Y-8377000D02*
G75*
G02*
X40631109Y-8377000I60000J0D01*
G01*
X40511109Y-8571000D02*
X40631109Y-8691000D01*
X40631109Y-8571000D02*
X40511109Y-8691000D01*
X40631109Y-8631000D02*
G75*
G02*
X40511109Y-8631000I-60000J0D01*
G01*
X40511109Y-8631000D02*
G75*
G02*
X40631109Y-8631000I60000J0D01*
G01*
X40511109Y-8825000D02*
X40631109Y-8945000D01*
X40631109Y-8825000D02*
X40511109Y-8945000D01*
X40631109Y-8885000D02*
G75*
G02*
X40511109Y-8885000I-60000J0D01*
G01*
X40511109Y-8885000D02*
G75*
G02*
X40631109Y-8885000I60000J0D01*
G01*
X40511109Y-9079000D02*
X40631109Y-9199000D01*
X40631109Y-9079000D02*
X40511109Y-9199000D01*
X40631109Y-9139000D02*
G75*
G02*
X40511109Y-9139000I-60000J0D01*
G01*
X40511109Y-9139000D02*
G75*
G02*
X40631109Y-9139000I60000J0D01*
G01*
X40511109Y-9333000D02*
X40631109Y-9453000D01*
X40631109Y-9333000D02*
X40511109Y-9453000D01*
X40631109Y-9393000D02*
G75*
G02*
X40511109Y-9393000I-60000J0D01*
G01*
X40511109Y-9393000D02*
G75*
G02*
X40631109Y-9393000I60000J0D01*
G01*
X40511109Y-9587000D02*
X40631109Y-9707000D01*
X40631109Y-9587000D02*
X40511109Y-9707000D01*
X40631109Y-9647000D02*
G75*
G02*
X40511109Y-9647000I-60000J0D01*
G01*
X40511109Y-9647000D02*
G75*
G02*
X40631109Y-9647000I60000J0D01*
G01*
D11*
X12884191Y-11809900D02*
X13084191Y-12009900D01*
X13084191Y-11809900D02*
X12884191Y-12009900D01*
X12984191Y-11809900D02*
X12984191Y-12009900D01*
X12884191Y-11909900D02*
X13084191Y-11909900D01*
X15144791Y-10057300D02*
X15344791Y-10257300D01*
X15344791Y-10057300D02*
X15144791Y-10257300D01*
X15244791Y-10057300D02*
X15244791Y-10257300D01*
X15144791Y-10157300D02*
X15344791Y-10157300D01*
X15144791Y-11797200D02*
X15344791Y-11997200D01*
X15344791Y-11797200D02*
X15144791Y-11997200D01*
X15244791Y-11797200D02*
X15244791Y-11997200D01*
X15144791Y-11897200D02*
X15344791Y-11897200D01*
X15678691Y-10036100D02*
X15878691Y-10236100D01*
X15878691Y-10036100D02*
X15678691Y-10236100D01*
X15778691Y-10036100D02*
X15778691Y-10236100D01*
X15678691Y-10136100D02*
X15878691Y-10136100D01*
X15678691Y-11801400D02*
X15878691Y-12001400D01*
X15878691Y-11801400D02*
X15678691Y-12001400D01*
X15778691Y-11801400D02*
X15778691Y-12001400D01*
X15678691Y-11901400D02*
X15878691Y-11901400D01*
X17939292Y-10048800D02*
X18139292Y-10248800D01*
X18139292Y-10048800D02*
X17939292Y-10248800D01*
X18039292Y-10048800D02*
X18039292Y-10248800D01*
X17939292Y-10148800D02*
X18139292Y-10148800D01*
X17939292Y-11788700D02*
X18139292Y-11988700D01*
X18139292Y-11788700D02*
X17939292Y-11988700D01*
X18039292Y-11788700D02*
X18039292Y-11988700D01*
X17939292Y-11888700D02*
X18139292Y-11888700D01*
X18520096Y-10036100D02*
X18720096Y-10236100D01*
X18720096Y-10036100D02*
X18520096Y-10236100D01*
X18620096Y-10036100D02*
X18620096Y-10236100D01*
X18520096Y-10136100D02*
X18720096Y-10136100D01*
X18520096Y-11801400D02*
X18720096Y-12001400D01*
X18720096Y-11801400D02*
X18520096Y-12001400D01*
X18620096Y-11801400D02*
X18620096Y-12001400D01*
X18520096Y-11901400D02*
X18720096Y-11901400D01*
X20780696Y-10048800D02*
X20980696Y-10248800D01*
X20980696Y-10048800D02*
X20780696Y-10248800D01*
X20880696Y-10048800D02*
X20880696Y-10248800D01*
X20780696Y-10148800D02*
X20980696Y-10148800D01*
X20780696Y-11788700D02*
X20980696Y-11988700D01*
X20980696Y-11788700D02*
X20780696Y-11988700D01*
X20880696Y-11788700D02*
X20880696Y-11988700D01*
X20780696Y-11888700D02*
X20980696Y-11888700D01*
X21358902Y-10036100D02*
X21558902Y-10236100D01*
X21558902Y-10036100D02*
X21358902Y-10236100D01*
X21458902Y-10036100D02*
X21458902Y-10236100D01*
X21358902Y-10136100D02*
X21558902Y-10136100D01*
X21358902Y-11801400D02*
X21558902Y-12001400D01*
X21558902Y-11801400D02*
X21358902Y-12001400D01*
X21458902Y-11801400D02*
X21458902Y-12001400D01*
X21358902Y-11901400D02*
X21558902Y-11901400D01*
X23619501Y-10048800D02*
X23819501Y-10248800D01*
X23819501Y-10048800D02*
X23619501Y-10248800D01*
X23719501Y-10048800D02*
X23719501Y-10248800D01*
X23619501Y-10148800D02*
X23819501Y-10148800D01*
X23619501Y-11788700D02*
X23819501Y-11988700D01*
X23819501Y-11788700D02*
X23619501Y-11988700D01*
X23719501Y-11788700D02*
X23719501Y-11988700D01*
X23619501Y-11888700D02*
X23819501Y-11888700D01*
X24167186Y-10036100D02*
X24367186Y-10236100D01*
X24367186Y-10036100D02*
X24167186Y-10236100D01*
X24267186Y-10036100D02*
X24267186Y-10236100D01*
X24167186Y-10136100D02*
X24367186Y-10136100D01*
X24167186Y-11801400D02*
X24367186Y-12001400D01*
X24367186Y-11801400D02*
X24167186Y-12001400D01*
X24267186Y-11801400D02*
X24267186Y-12001400D01*
X24167186Y-11901400D02*
X24367186Y-11901400D01*
X26427786Y-10048800D02*
X26627786Y-10248800D01*
X26627786Y-10048800D02*
X26427786Y-10248800D01*
X26527786Y-10048800D02*
X26527786Y-10248800D01*
X26427786Y-10148800D02*
X26627786Y-10148800D01*
X26427786Y-11788700D02*
X26627786Y-11988700D01*
X26627786Y-11788700D02*
X26427786Y-11988700D01*
X26527786Y-11788700D02*
X26527786Y-11988700D01*
X26427786Y-11888700D02*
X26627786Y-11888700D01*
X26967186Y-10036100D02*
X27167186Y-10236100D01*
X27167186Y-10036100D02*
X26967186Y-10236100D01*
X27067186Y-10036100D02*
X27067186Y-10236100D01*
X26967186Y-10136100D02*
X27167186Y-10136100D01*
X26967186Y-11801400D02*
X27167186Y-12001400D01*
X27167186Y-11801400D02*
X26967186Y-12001400D01*
X27067186Y-11801400D02*
X27067186Y-12001400D01*
X26967186Y-11901400D02*
X27167186Y-11901400D01*
X29227786Y-10048800D02*
X29427786Y-10248800D01*
X29427786Y-10048800D02*
X29227786Y-10248800D01*
X29327786Y-10048800D02*
X29327786Y-10248800D01*
X29227786Y-10148800D02*
X29427786Y-10148800D01*
X29227786Y-11788700D02*
X29427786Y-11988700D01*
X29427786Y-11788700D02*
X29227786Y-11988700D01*
X29327786Y-11788700D02*
X29327786Y-11988700D01*
X29227786Y-11888700D02*
X29427786Y-11888700D01*
X29762000Y-10035500D02*
X29962000Y-10235500D01*
X29962000Y-10035500D02*
X29762000Y-10235500D01*
X29862000Y-10035500D02*
X29862000Y-10235500D01*
X29762000Y-10135500D02*
X29962000Y-10135500D01*
X29762000Y-11800800D02*
X29962000Y-12000800D01*
X29962000Y-11800800D02*
X29762000Y-12000800D01*
X29862000Y-11800800D02*
X29862000Y-12000800D01*
X29762000Y-11900800D02*
X29962000Y-11900800D01*
X32022600Y-10048200D02*
X32222600Y-10248200D01*
X32222600Y-10048200D02*
X32022600Y-10248200D01*
X32122600Y-10048200D02*
X32122600Y-10248200D01*
X32022600Y-10148200D02*
X32222600Y-10148200D01*
X32022600Y-11788100D02*
X32222600Y-11988100D01*
X32222600Y-11788100D02*
X32022600Y-11988100D01*
X32122600Y-11788100D02*
X32122600Y-11988100D01*
X32022600Y-11888100D02*
X32222600Y-11888100D01*
X32574300Y-10032600D02*
X32774300Y-10232600D01*
X32774300Y-10032600D02*
X32574300Y-10232600D01*
X32674300Y-10032600D02*
X32674300Y-10232600D01*
X32574300Y-10132600D02*
X32774300Y-10132600D01*
X32574300Y-11797900D02*
X32774300Y-11997900D01*
X32774300Y-11797900D02*
X32574300Y-11997900D01*
X32674300Y-11797900D02*
X32674300Y-11997900D01*
X32574300Y-11897900D02*
X32774300Y-11897900D01*
X34834900Y-10045300D02*
X35034900Y-10245300D01*
X35034900Y-10045300D02*
X34834900Y-10245300D01*
X34934900Y-10045300D02*
X34934900Y-10245300D01*
X34834900Y-10145300D02*
X35034900Y-10145300D01*
X34834900Y-11785200D02*
X35034900Y-11985200D01*
X35034900Y-11785200D02*
X34834900Y-11985200D01*
X34934900Y-11785200D02*
X34934900Y-11985200D01*
X34834900Y-11885200D02*
X35034900Y-11885200D01*
X35409300Y-10032600D02*
X35609300Y-10232600D01*
X35609300Y-10032600D02*
X35409300Y-10232600D01*
X35509300Y-10032600D02*
X35509300Y-10232600D01*
X35409300Y-10132600D02*
X35609300Y-10132600D01*
X35409300Y-11797900D02*
X35609300Y-11997900D01*
X35609300Y-11797900D02*
X35409300Y-11997900D01*
X35509300Y-11797900D02*
X35509300Y-11997900D01*
X35409300Y-11897900D02*
X35609300Y-11897900D01*
X37669900Y-10045300D02*
X37869900Y-10245300D01*
X37869900Y-10045300D02*
X37669900Y-10245300D01*
X37769900Y-10045300D02*
X37769900Y-10245300D01*
X37669900Y-10145300D02*
X37869900Y-10145300D01*
X37669900Y-11785200D02*
X37869900Y-11985200D01*
X37869900Y-11785200D02*
X37669900Y-11985200D01*
X37769900Y-11785200D02*
X37769900Y-11985200D01*
X37669900Y-11885200D02*
X37869900Y-11885200D01*
X38260800Y-10029600D02*
X38460800Y-10229600D01*
X38460800Y-10029600D02*
X38260800Y-10229600D01*
X38360800Y-10029600D02*
X38360800Y-10229600D01*
X38260800Y-10129600D02*
X38460800Y-10129600D01*
X38260800Y-11794900D02*
X38460800Y-11994900D01*
X38460800Y-11794900D02*
X38260800Y-11994900D01*
X38360800Y-11794900D02*
X38360800Y-11994900D01*
X38260800Y-11894900D02*
X38460800Y-11894900D01*
X40521400Y-10042300D02*
X40721400Y-10242300D01*
X40721400Y-10042300D02*
X40521400Y-10242300D01*
X40621400Y-10042300D02*
X40621400Y-10242300D01*
X40521400Y-10142300D02*
X40721400Y-10142300D01*
X40521400Y-11782200D02*
X40721400Y-11982200D01*
X40721400Y-11782200D02*
X40521400Y-11982200D01*
X40621400Y-11782200D02*
X40621400Y-11982200D01*
X40521400Y-11882200D02*
X40721400Y-11882200D01*
X12403277Y-13378984D02*
X12403277Y-13178984D01*
X12403277Y-13178984D02*
X12450896Y-13178984D01*
X12450896Y-13178984D02*
X12479467Y-13188508D01*
X12479467Y-13188508D02*
X12498515Y-13207555D01*
X12498515Y-13207555D02*
X12508039Y-13226603D01*
X12508039Y-13226603D02*
X12517562Y-13264698D01*
X12517562Y-13264698D02*
X12517562Y-13293269D01*
X12517562Y-13293269D02*
X12508039Y-13331365D01*
X12508039Y-13331365D02*
X12498515Y-13350412D01*
X12498515Y-13350412D02*
X12479467Y-13369460D01*
X12479467Y-13369460D02*
X12450896Y-13378984D01*
X12450896Y-13378984D02*
X12403277Y-13378984D01*
X12603277Y-13378984D02*
X12603277Y-13245650D01*
X12603277Y-13283746D02*
X12612801Y-13264698D01*
X12612801Y-13264698D02*
X12622324Y-13255174D01*
X12622324Y-13255174D02*
X12641372Y-13245650D01*
X12641372Y-13245650D02*
X12660420Y-13245650D01*
X12727086Y-13378984D02*
X12727086Y-13245650D01*
X12727086Y-13178984D02*
X12717562Y-13188508D01*
X12717562Y-13188508D02*
X12727086Y-13198031D01*
X12727086Y-13198031D02*
X12736610Y-13188508D01*
X12736610Y-13188508D02*
X12727086Y-13178984D01*
X12727086Y-13178984D02*
X12727086Y-13198031D01*
X12850896Y-13378984D02*
X12831848Y-13369460D01*
X12831848Y-13369460D02*
X12822324Y-13350412D01*
X12822324Y-13350412D02*
X12822324Y-13178984D01*
X12955658Y-13378984D02*
X12936610Y-13369460D01*
X12936610Y-13369460D02*
X12927086Y-13350412D01*
X12927086Y-13350412D02*
X12927086Y-13178984D01*
X13184229Y-13378984D02*
X13184229Y-13178984D01*
X13184229Y-13178984D02*
X13250896Y-13321841D01*
X13250896Y-13321841D02*
X13317562Y-13178984D01*
X13317562Y-13178984D02*
X13317562Y-13378984D01*
X13498515Y-13378984D02*
X13498515Y-13274222D01*
X13498515Y-13274222D02*
X13488991Y-13255174D01*
X13488991Y-13255174D02*
X13469943Y-13245650D01*
X13469943Y-13245650D02*
X13431848Y-13245650D01*
X13431848Y-13245650D02*
X13412801Y-13255174D01*
X13498515Y-13369460D02*
X13479467Y-13378984D01*
X13479467Y-13378984D02*
X13431848Y-13378984D01*
X13431848Y-13378984D02*
X13412801Y-13369460D01*
X13412801Y-13369460D02*
X13403277Y-13350412D01*
X13403277Y-13350412D02*
X13403277Y-13331365D01*
X13403277Y-13331365D02*
X13412801Y-13312317D01*
X13412801Y-13312317D02*
X13431848Y-13302793D01*
X13431848Y-13302793D02*
X13479467Y-13302793D01*
X13479467Y-13302793D02*
X13498515Y-13293269D01*
X13593753Y-13245650D02*
X13593753Y-13445650D01*
X13593753Y-13255174D02*
X13612801Y-13245650D01*
X13612801Y-13245650D02*
X13650896Y-13245650D01*
X13650896Y-13245650D02*
X13669943Y-13255174D01*
X13669943Y-13255174D02*
X13679467Y-13264698D01*
X13679467Y-13264698D02*
X13688991Y-13283746D01*
X13688991Y-13283746D02*
X13688991Y-13340888D01*
X13688991Y-13340888D02*
X13679467Y-13359936D01*
X13679467Y-13359936D02*
X13669943Y-13369460D01*
X13669943Y-13369460D02*
X13650896Y-13378984D01*
X13650896Y-13378984D02*
X13612801Y-13378984D01*
X13612801Y-13378984D02*
X13593753Y-13369460D01*
X13774705Y-13359936D02*
X13784229Y-13369460D01*
X13784229Y-13369460D02*
X13774705Y-13378984D01*
X13774705Y-13378984D02*
X13765182Y-13369460D01*
X13765182Y-13369460D02*
X13774705Y-13359936D01*
X13774705Y-13359936D02*
X13774705Y-13378984D01*
X13774705Y-13255174D02*
X13784229Y-13264698D01*
X13784229Y-13264698D02*
X13774705Y-13274222D01*
X13774705Y-13274222D02*
X13765182Y-13264698D01*
X13765182Y-13264698D02*
X13774705Y-13255174D01*
X13774705Y-13255174D02*
X13774705Y-13274222D01*
D12*
X12066300Y-13669400D02*
X12142500Y-13745600D01*
X12142500Y-13669400D02*
X12066300Y-13745600D01*
D11*
X12441372Y-13598984D02*
X12460420Y-13598984D01*
X12460420Y-13598984D02*
X12479467Y-13608508D01*
X12479467Y-13608508D02*
X12488991Y-13618031D01*
X12488991Y-13618031D02*
X12498515Y-13637079D01*
X12498515Y-13637079D02*
X12508039Y-13675174D01*
X12508039Y-13675174D02*
X12508039Y-13722793D01*
X12508039Y-13722793D02*
X12498515Y-13760888D01*
X12498515Y-13760888D02*
X12488991Y-13779936D01*
X12488991Y-13779936D02*
X12479467Y-13789460D01*
X12479467Y-13789460D02*
X12460420Y-13798984D01*
X12460420Y-13798984D02*
X12441372Y-13798984D01*
X12441372Y-13798984D02*
X12422324Y-13789460D01*
X12422324Y-13789460D02*
X12412801Y-13779936D01*
X12412801Y-13779936D02*
X12403277Y-13760888D01*
X12403277Y-13760888D02*
X12393753Y-13722793D01*
X12393753Y-13722793D02*
X12393753Y-13675174D01*
X12393753Y-13675174D02*
X12403277Y-13637079D01*
X12403277Y-13637079D02*
X12412801Y-13618031D01*
X12412801Y-13618031D02*
X12422324Y-13608508D01*
X12422324Y-13608508D02*
X12441372Y-13598984D01*
X12593753Y-13779936D02*
X12603277Y-13789460D01*
X12603277Y-13789460D02*
X12593753Y-13798984D01*
X12593753Y-13798984D02*
X12584229Y-13789460D01*
X12584229Y-13789460D02*
X12593753Y-13779936D01*
X12593753Y-13779936D02*
X12593753Y-13798984D01*
X12669943Y-13598984D02*
X12803277Y-13598984D01*
X12803277Y-13598984D02*
X12717562Y-13798984D01*
X12965182Y-13598984D02*
X12927086Y-13598984D01*
X12927086Y-13598984D02*
X12908039Y-13608508D01*
X12908039Y-13608508D02*
X12898515Y-13618031D01*
X12898515Y-13618031D02*
X12879467Y-13646603D01*
X12879467Y-13646603D02*
X12869943Y-13684698D01*
X12869943Y-13684698D02*
X12869943Y-13760888D01*
X12869943Y-13760888D02*
X12879467Y-13779936D01*
X12879467Y-13779936D02*
X12888991Y-13789460D01*
X12888991Y-13789460D02*
X12908039Y-13798984D01*
X12908039Y-13798984D02*
X12946134Y-13798984D01*
X12946134Y-13798984D02*
X12965182Y-13789460D01*
X12965182Y-13789460D02*
X12974705Y-13779936D01*
X12974705Y-13779936D02*
X12984229Y-13760888D01*
X12984229Y-13760888D02*
X12984229Y-13713269D01*
X12984229Y-13713269D02*
X12974705Y-13694222D01*
X12974705Y-13694222D02*
X12965182Y-13684698D01*
X12965182Y-13684698D02*
X12946134Y-13675174D01*
X12946134Y-13675174D02*
X12908039Y-13675174D01*
X12908039Y-13675174D02*
X12888991Y-13684698D01*
X12888991Y-13684698D02*
X12879467Y-13694222D01*
X12879467Y-13694222D02*
X12869943Y-13713269D01*
X13060420Y-13618031D02*
X13069943Y-13608508D01*
X13069943Y-13608508D02*
X13088991Y-13598984D01*
X13088991Y-13598984D02*
X13136610Y-13598984D01*
X13136610Y-13598984D02*
X13155658Y-13608508D01*
X13155658Y-13608508D02*
X13165182Y-13618031D01*
X13165182Y-13618031D02*
X13174705Y-13637079D01*
X13174705Y-13637079D02*
X13174705Y-13656127D01*
X13174705Y-13656127D02*
X13165182Y-13684698D01*
X13165182Y-13684698D02*
X13050896Y-13798984D01*
X13050896Y-13798984D02*
X13174705Y-13798984D01*
X13260420Y-13798984D02*
X13260420Y-13665650D01*
X13260420Y-13684698D02*
X13269943Y-13675174D01*
X13269943Y-13675174D02*
X13288991Y-13665650D01*
X13288991Y-13665650D02*
X13317563Y-13665650D01*
X13317563Y-13665650D02*
X13336610Y-13675174D01*
X13336610Y-13675174D02*
X13346134Y-13694222D01*
X13346134Y-13694222D02*
X13346134Y-13798984D01*
X13346134Y-13694222D02*
X13355658Y-13675174D01*
X13355658Y-13675174D02*
X13374705Y-13665650D01*
X13374705Y-13665650D02*
X13403277Y-13665650D01*
X13403277Y-13665650D02*
X13422324Y-13675174D01*
X13422324Y-13675174D02*
X13431848Y-13694222D01*
X13431848Y-13694222D02*
X13431848Y-13798984D01*
X13527086Y-13798984D02*
X13527086Y-13665650D01*
X13527086Y-13684698D02*
X13536610Y-13675174D01*
X13536610Y-13675174D02*
X13555658Y-13665650D01*
X13555658Y-13665650D02*
X13584229Y-13665650D01*
X13584229Y-13665650D02*
X13603277Y-13675174D01*
X13603277Y-13675174D02*
X13612801Y-13694222D01*
X13612801Y-13694222D02*
X13612801Y-13798984D01*
X13612801Y-13694222D02*
X13622324Y-13675174D01*
X13622324Y-13675174D02*
X13641372Y-13665650D01*
X13641372Y-13665650D02*
X13669943Y-13665650D01*
X13669943Y-13665650D02*
X13688991Y-13675174D01*
X13688991Y-13675174D02*
X13698515Y-13694222D01*
X13698515Y-13694222D02*
X13698515Y-13798984D01*
X14088991Y-13589460D02*
X13917563Y-13846603D01*
X14346134Y-13598984D02*
X14365182Y-13598984D01*
X14365182Y-13598984D02*
X14384229Y-13608508D01*
X14384229Y-13608508D02*
X14393753Y-13618031D01*
X14393753Y-13618031D02*
X14403277Y-13637079D01*
X14403277Y-13637079D02*
X14412801Y-13675174D01*
X14412801Y-13675174D02*
X14412801Y-13722793D01*
X14412801Y-13722793D02*
X14403277Y-13760888D01*
X14403277Y-13760888D02*
X14393753Y-13779936D01*
X14393753Y-13779936D02*
X14384229Y-13789460D01*
X14384229Y-13789460D02*
X14365182Y-13798984D01*
X14365182Y-13798984D02*
X14346134Y-13798984D01*
X14346134Y-13798984D02*
X14327086Y-13789460D01*
X14327086Y-13789460D02*
X14317563Y-13779936D01*
X14317563Y-13779936D02*
X14308039Y-13760888D01*
X14308039Y-13760888D02*
X14298515Y-13722793D01*
X14298515Y-13722793D02*
X14298515Y-13675174D01*
X14298515Y-13675174D02*
X14308039Y-13637079D01*
X14308039Y-13637079D02*
X14317563Y-13618031D01*
X14317563Y-13618031D02*
X14327086Y-13608508D01*
X14327086Y-13608508D02*
X14346134Y-13598984D01*
X14498515Y-13779936D02*
X14508039Y-13789460D01*
X14508039Y-13789460D02*
X14498515Y-13798984D01*
X14498515Y-13798984D02*
X14488991Y-13789460D01*
X14488991Y-13789460D02*
X14498515Y-13779936D01*
X14498515Y-13779936D02*
X14498515Y-13798984D01*
X14631848Y-13598984D02*
X14650896Y-13598984D01*
X14650896Y-13598984D02*
X14669944Y-13608508D01*
X14669944Y-13608508D02*
X14679467Y-13618031D01*
X14679467Y-13618031D02*
X14688991Y-13637079D01*
X14688991Y-13637079D02*
X14698515Y-13675174D01*
X14698515Y-13675174D02*
X14698515Y-13722793D01*
X14698515Y-13722793D02*
X14688991Y-13760888D01*
X14688991Y-13760888D02*
X14679467Y-13779936D01*
X14679467Y-13779936D02*
X14669944Y-13789460D01*
X14669944Y-13789460D02*
X14650896Y-13798984D01*
X14650896Y-13798984D02*
X14631848Y-13798984D01*
X14631848Y-13798984D02*
X14612801Y-13789460D01*
X14612801Y-13789460D02*
X14603277Y-13779936D01*
X14603277Y-13779936D02*
X14593753Y-13760888D01*
X14593753Y-13760888D02*
X14584229Y-13722793D01*
X14584229Y-13722793D02*
X14584229Y-13675174D01*
X14584229Y-13675174D02*
X14593753Y-13637079D01*
X14593753Y-13637079D02*
X14603277Y-13618031D01*
X14603277Y-13618031D02*
X14612801Y-13608508D01*
X14612801Y-13608508D02*
X14631848Y-13598984D01*
X14765182Y-13598984D02*
X14888991Y-13598984D01*
X14888991Y-13598984D02*
X14822325Y-13675174D01*
X14822325Y-13675174D02*
X14850896Y-13675174D01*
X14850896Y-13675174D02*
X14869944Y-13684698D01*
X14869944Y-13684698D02*
X14879467Y-13694222D01*
X14879467Y-13694222D02*
X14888991Y-13713269D01*
X14888991Y-13713269D02*
X14888991Y-13760888D01*
X14888991Y-13760888D02*
X14879467Y-13779936D01*
X14879467Y-13779936D02*
X14869944Y-13789460D01*
X14869944Y-13789460D02*
X14850896Y-13798984D01*
X14850896Y-13798984D02*
X14793753Y-13798984D01*
X14793753Y-13798984D02*
X14774706Y-13789460D01*
X14774706Y-13789460D02*
X14765182Y-13779936D01*
X15012801Y-13598984D02*
X15031848Y-13598984D01*
X15031848Y-13598984D02*
X15050896Y-13608508D01*
X15050896Y-13608508D02*
X15060420Y-13618031D01*
X15060420Y-13618031D02*
X15069944Y-13637079D01*
X15069944Y-13637079D02*
X15079467Y-13675174D01*
X15079467Y-13675174D02*
X15079467Y-13722793D01*
X15079467Y-13722793D02*
X15069944Y-13760888D01*
X15069944Y-13760888D02*
X15060420Y-13779936D01*
X15060420Y-13779936D02*
X15050896Y-13789460D01*
X15050896Y-13789460D02*
X15031848Y-13798984D01*
X15031848Y-13798984D02*
X15012801Y-13798984D01*
X15012801Y-13798984D02*
X14993753Y-13789460D01*
X14993753Y-13789460D02*
X14984229Y-13779936D01*
X14984229Y-13779936D02*
X14974706Y-13760888D01*
X14974706Y-13760888D02*
X14965182Y-13722793D01*
X14965182Y-13722793D02*
X14965182Y-13675174D01*
X14965182Y-13675174D02*
X14974706Y-13637079D01*
X14974706Y-13637079D02*
X14984229Y-13618031D01*
X14984229Y-13618031D02*
X14993753Y-13608508D01*
X14993753Y-13608508D02*
X15012801Y-13598984D01*
X15203277Y-13598984D02*
X15222325Y-13598984D01*
X15222325Y-13598984D02*
X15241372Y-13608508D01*
X15241372Y-13608508D02*
X15250896Y-13618031D01*
X15250896Y-13618031D02*
X15260420Y-13637079D01*
X15260420Y-13637079D02*
X15269944Y-13675174D01*
X15269944Y-13675174D02*
X15269944Y-13722793D01*
X15269944Y-13722793D02*
X15260420Y-13760888D01*
X15260420Y-13760888D02*
X15250896Y-13779936D01*
X15250896Y-13779936D02*
X15241372Y-13789460D01*
X15241372Y-13789460D02*
X15222325Y-13798984D01*
X15222325Y-13798984D02*
X15203277Y-13798984D01*
X15203277Y-13798984D02*
X15184229Y-13789460D01*
X15184229Y-13789460D02*
X15174706Y-13779936D01*
X15174706Y-13779936D02*
X15165182Y-13760888D01*
X15165182Y-13760888D02*
X15155658Y-13722793D01*
X15155658Y-13722793D02*
X15155658Y-13675174D01*
X15155658Y-13675174D02*
X15165182Y-13637079D01*
X15165182Y-13637079D02*
X15174706Y-13618031D01*
X15174706Y-13618031D02*
X15184229Y-13608508D01*
X15184229Y-13608508D02*
X15203277Y-13598984D01*
X15346134Y-13598984D02*
X15346134Y-13637079D01*
X15422325Y-13598984D02*
X15422325Y-13637079D01*
X15717563Y-13875174D02*
X15708039Y-13865650D01*
X15708039Y-13865650D02*
X15688991Y-13837079D01*
X15688991Y-13837079D02*
X15679468Y-13818031D01*
X15679468Y-13818031D02*
X15669944Y-13789460D01*
X15669944Y-13789460D02*
X15660420Y-13741841D01*
X15660420Y-13741841D02*
X15660420Y-13703746D01*
X15660420Y-13703746D02*
X15669944Y-13656127D01*
X15669944Y-13656127D02*
X15679468Y-13627555D01*
X15679468Y-13627555D02*
X15688991Y-13608508D01*
X15688991Y-13608508D02*
X15708039Y-13579936D01*
X15708039Y-13579936D02*
X15717563Y-13570412D01*
X15879468Y-13598984D02*
X15841372Y-13598984D01*
X15841372Y-13598984D02*
X15822325Y-13608508D01*
X15822325Y-13608508D02*
X15812801Y-13618031D01*
X15812801Y-13618031D02*
X15793753Y-13646603D01*
X15793753Y-13646603D02*
X15784229Y-13684698D01*
X15784229Y-13684698D02*
X15784229Y-13760888D01*
X15784229Y-13760888D02*
X15793753Y-13779936D01*
X15793753Y-13779936D02*
X15803277Y-13789460D01*
X15803277Y-13789460D02*
X15822325Y-13798984D01*
X15822325Y-13798984D02*
X15860420Y-13798984D01*
X15860420Y-13798984D02*
X15879468Y-13789460D01*
X15879468Y-13789460D02*
X15888991Y-13779936D01*
X15888991Y-13779936D02*
X15898515Y-13760888D01*
X15898515Y-13760888D02*
X15898515Y-13713269D01*
X15898515Y-13713269D02*
X15888991Y-13694222D01*
X15888991Y-13694222D02*
X15879468Y-13684698D01*
X15879468Y-13684698D02*
X15860420Y-13675174D01*
X15860420Y-13675174D02*
X15822325Y-13675174D01*
X15822325Y-13675174D02*
X15803277Y-13684698D01*
X15803277Y-13684698D02*
X15793753Y-13694222D01*
X15793753Y-13694222D02*
X15784229Y-13713269D01*
X16022325Y-13598984D02*
X16041372Y-13598984D01*
X16041372Y-13598984D02*
X16060420Y-13608508D01*
X16060420Y-13608508D02*
X16069944Y-13618031D01*
X16069944Y-13618031D02*
X16079468Y-13637079D01*
X16079468Y-13637079D02*
X16088991Y-13675174D01*
X16088991Y-13675174D02*
X16088991Y-13722793D01*
X16088991Y-13722793D02*
X16079468Y-13760888D01*
X16079468Y-13760888D02*
X16069944Y-13779936D01*
X16069944Y-13779936D02*
X16060420Y-13789460D01*
X16060420Y-13789460D02*
X16041372Y-13798984D01*
X16041372Y-13798984D02*
X16022325Y-13798984D01*
X16022325Y-13798984D02*
X16003277Y-13789460D01*
X16003277Y-13789460D02*
X15993753Y-13779936D01*
X15993753Y-13779936D02*
X15984229Y-13760888D01*
X15984229Y-13760888D02*
X15974706Y-13722793D01*
X15974706Y-13722793D02*
X15974706Y-13675174D01*
X15974706Y-13675174D02*
X15984229Y-13637079D01*
X15984229Y-13637079D02*
X15993753Y-13618031D01*
X15993753Y-13618031D02*
X16003277Y-13608508D01*
X16003277Y-13608508D02*
X16022325Y-13598984D01*
X16327087Y-13798984D02*
X16327087Y-13598984D01*
X16412801Y-13798984D02*
X16412801Y-13694222D01*
X16412801Y-13694222D02*
X16403277Y-13675174D01*
X16403277Y-13675174D02*
X16384230Y-13665650D01*
X16384230Y-13665650D02*
X16355658Y-13665650D01*
X16355658Y-13665650D02*
X16336610Y-13675174D01*
X16336610Y-13675174D02*
X16327087Y-13684698D01*
X16536610Y-13798984D02*
X16517563Y-13789460D01*
X16517563Y-13789460D02*
X16508039Y-13779936D01*
X16508039Y-13779936D02*
X16498515Y-13760888D01*
X16498515Y-13760888D02*
X16498515Y-13703746D01*
X16498515Y-13703746D02*
X16508039Y-13684698D01*
X16508039Y-13684698D02*
X16517563Y-13675174D01*
X16517563Y-13675174D02*
X16536610Y-13665650D01*
X16536610Y-13665650D02*
X16565182Y-13665650D01*
X16565182Y-13665650D02*
X16584230Y-13675174D01*
X16584230Y-13675174D02*
X16593753Y-13684698D01*
X16593753Y-13684698D02*
X16603277Y-13703746D01*
X16603277Y-13703746D02*
X16603277Y-13760888D01*
X16603277Y-13760888D02*
X16593753Y-13779936D01*
X16593753Y-13779936D02*
X16584230Y-13789460D01*
X16584230Y-13789460D02*
X16565182Y-13798984D01*
X16565182Y-13798984D02*
X16536610Y-13798984D01*
X16717563Y-13798984D02*
X16698515Y-13789460D01*
X16698515Y-13789460D02*
X16688991Y-13770412D01*
X16688991Y-13770412D02*
X16688991Y-13598984D01*
X16869944Y-13789460D02*
X16850896Y-13798984D01*
X16850896Y-13798984D02*
X16812801Y-13798984D01*
X16812801Y-13798984D02*
X16793753Y-13789460D01*
X16793753Y-13789460D02*
X16784230Y-13770412D01*
X16784230Y-13770412D02*
X16784230Y-13694222D01*
X16784230Y-13694222D02*
X16793753Y-13675174D01*
X16793753Y-13675174D02*
X16812801Y-13665650D01*
X16812801Y-13665650D02*
X16850896Y-13665650D01*
X16850896Y-13665650D02*
X16869944Y-13675174D01*
X16869944Y-13675174D02*
X16879468Y-13694222D01*
X16879468Y-13694222D02*
X16879468Y-13713269D01*
X16879468Y-13713269D02*
X16784230Y-13732317D01*
X16955658Y-13789460D02*
X16974706Y-13798984D01*
X16974706Y-13798984D02*
X17012801Y-13798984D01*
X17012801Y-13798984D02*
X17031849Y-13789460D01*
X17031849Y-13789460D02*
X17041373Y-13770412D01*
X17041373Y-13770412D02*
X17041373Y-13760888D01*
X17041373Y-13760888D02*
X17031849Y-13741841D01*
X17031849Y-13741841D02*
X17012801Y-13732317D01*
X17012801Y-13732317D02*
X16984230Y-13732317D01*
X16984230Y-13732317D02*
X16965182Y-13722793D01*
X16965182Y-13722793D02*
X16955658Y-13703746D01*
X16955658Y-13703746D02*
X16955658Y-13694222D01*
X16955658Y-13694222D02*
X16965182Y-13675174D01*
X16965182Y-13675174D02*
X16984230Y-13665650D01*
X16984230Y-13665650D02*
X17012801Y-13665650D01*
X17012801Y-13665650D02*
X17031849Y-13675174D01*
X17108039Y-13875174D02*
X17117563Y-13865650D01*
X17117563Y-13865650D02*
X17136611Y-13837079D01*
X17136611Y-13837079D02*
X17146134Y-13818031D01*
X17146134Y-13818031D02*
X17155658Y-13789460D01*
X17155658Y-13789460D02*
X17165182Y-13741841D01*
X17165182Y-13741841D02*
X17165182Y-13703746D01*
X17165182Y-13703746D02*
X17155658Y-13656127D01*
X17155658Y-13656127D02*
X17146134Y-13627555D01*
X17146134Y-13627555D02*
X17136611Y-13608508D01*
X17136611Y-13608508D02*
X17117563Y-13579936D01*
X17117563Y-13579936D02*
X17108039Y-13570412D01*
D12*
X12142500Y-13971500D02*
G75*
G02*
X12043440Y-13971500I-49530J0D01*
G01*
X12043440Y-13971500D02*
G75*
G02*
X12142500Y-13971500I49530J0D01*
G01*
D11*
X12441372Y-13862984D02*
X12460420Y-13862984D01*
X12460420Y-13862984D02*
X12479467Y-13872508D01*
X12479467Y-13872508D02*
X12488991Y-13882031D01*
X12488991Y-13882031D02*
X12498515Y-13901079D01*
X12498515Y-13901079D02*
X12508039Y-13939174D01*
X12508039Y-13939174D02*
X12508039Y-13986793D01*
X12508039Y-13986793D02*
X12498515Y-14024888D01*
X12498515Y-14024888D02*
X12488991Y-14043936D01*
X12488991Y-14043936D02*
X12479467Y-14053460D01*
X12479467Y-14053460D02*
X12460420Y-14062984D01*
X12460420Y-14062984D02*
X12441372Y-14062984D01*
X12441372Y-14062984D02*
X12422324Y-14053460D01*
X12422324Y-14053460D02*
X12412801Y-14043936D01*
X12412801Y-14043936D02*
X12403277Y-14024888D01*
X12403277Y-14024888D02*
X12393753Y-13986793D01*
X12393753Y-13986793D02*
X12393753Y-13939174D01*
X12393753Y-13939174D02*
X12403277Y-13901079D01*
X12403277Y-13901079D02*
X12412801Y-13882031D01*
X12412801Y-13882031D02*
X12422324Y-13872508D01*
X12422324Y-13872508D02*
X12441372Y-13862984D01*
X12593753Y-14043936D02*
X12603277Y-14053460D01*
X12603277Y-14053460D02*
X12593753Y-14062984D01*
X12593753Y-14062984D02*
X12584229Y-14053460D01*
X12584229Y-14053460D02*
X12593753Y-14043936D01*
X12593753Y-14043936D02*
X12593753Y-14062984D01*
X12698515Y-14062984D02*
X12736610Y-14062984D01*
X12736610Y-14062984D02*
X12755658Y-14053460D01*
X12755658Y-14053460D02*
X12765182Y-14043936D01*
X12765182Y-14043936D02*
X12784229Y-14015365D01*
X12784229Y-14015365D02*
X12793753Y-13977269D01*
X12793753Y-13977269D02*
X12793753Y-13901079D01*
X12793753Y-13901079D02*
X12784229Y-13882031D01*
X12784229Y-13882031D02*
X12774705Y-13872508D01*
X12774705Y-13872508D02*
X12755658Y-13862984D01*
X12755658Y-13862984D02*
X12717562Y-13862984D01*
X12717562Y-13862984D02*
X12698515Y-13872508D01*
X12698515Y-13872508D02*
X12688991Y-13882031D01*
X12688991Y-13882031D02*
X12679467Y-13901079D01*
X12679467Y-13901079D02*
X12679467Y-13948698D01*
X12679467Y-13948698D02*
X12688991Y-13967746D01*
X12688991Y-13967746D02*
X12698515Y-13977269D01*
X12698515Y-13977269D02*
X12717562Y-13986793D01*
X12717562Y-13986793D02*
X12755658Y-13986793D01*
X12755658Y-13986793D02*
X12774705Y-13977269D01*
X12774705Y-13977269D02*
X12784229Y-13967746D01*
X12784229Y-13967746D02*
X12793753Y-13948698D01*
X12888991Y-14062984D02*
X12927086Y-14062984D01*
X12927086Y-14062984D02*
X12946134Y-14053460D01*
X12946134Y-14053460D02*
X12955658Y-14043936D01*
X12955658Y-14043936D02*
X12974705Y-14015365D01*
X12974705Y-14015365D02*
X12984229Y-13977269D01*
X12984229Y-13977269D02*
X12984229Y-13901079D01*
X12984229Y-13901079D02*
X12974705Y-13882031D01*
X12974705Y-13882031D02*
X12965182Y-13872508D01*
X12965182Y-13872508D02*
X12946134Y-13862984D01*
X12946134Y-13862984D02*
X12908039Y-13862984D01*
X12908039Y-13862984D02*
X12888991Y-13872508D01*
X12888991Y-13872508D02*
X12879467Y-13882031D01*
X12879467Y-13882031D02*
X12869943Y-13901079D01*
X12869943Y-13901079D02*
X12869943Y-13948698D01*
X12869943Y-13948698D02*
X12879467Y-13967746D01*
X12879467Y-13967746D02*
X12888991Y-13977269D01*
X12888991Y-13977269D02*
X12908039Y-13986793D01*
X12908039Y-13986793D02*
X12946134Y-13986793D01*
X12946134Y-13986793D02*
X12965182Y-13977269D01*
X12965182Y-13977269D02*
X12974705Y-13967746D01*
X12974705Y-13967746D02*
X12984229Y-13948698D01*
X13174705Y-14062984D02*
X13060420Y-14062984D01*
X13117562Y-14062984D02*
X13117562Y-13862984D01*
X13117562Y-13862984D02*
X13098515Y-13891555D01*
X13098515Y-13891555D02*
X13079467Y-13910603D01*
X13079467Y-13910603D02*
X13060420Y-13920127D01*
X13260420Y-14062984D02*
X13260420Y-13929650D01*
X13260420Y-13948698D02*
X13269943Y-13939174D01*
X13269943Y-13939174D02*
X13288991Y-13929650D01*
X13288991Y-13929650D02*
X13317563Y-13929650D01*
X13317563Y-13929650D02*
X13336610Y-13939174D01*
X13336610Y-13939174D02*
X13346134Y-13958222D01*
X13346134Y-13958222D02*
X13346134Y-14062984D01*
X13346134Y-13958222D02*
X13355658Y-13939174D01*
X13355658Y-13939174D02*
X13374705Y-13929650D01*
X13374705Y-13929650D02*
X13403277Y-13929650D01*
X13403277Y-13929650D02*
X13422324Y-13939174D01*
X13422324Y-13939174D02*
X13431848Y-13958222D01*
X13431848Y-13958222D02*
X13431848Y-14062984D01*
X13527086Y-14062984D02*
X13527086Y-13929650D01*
X13527086Y-13948698D02*
X13536610Y-13939174D01*
X13536610Y-13939174D02*
X13555658Y-13929650D01*
X13555658Y-13929650D02*
X13584229Y-13929650D01*
X13584229Y-13929650D02*
X13603277Y-13939174D01*
X13603277Y-13939174D02*
X13612801Y-13958222D01*
X13612801Y-13958222D02*
X13612801Y-14062984D01*
X13612801Y-13958222D02*
X13622324Y-13939174D01*
X13622324Y-13939174D02*
X13641372Y-13929650D01*
X13641372Y-13929650D02*
X13669943Y-13929650D01*
X13669943Y-13929650D02*
X13688991Y-13939174D01*
X13688991Y-13939174D02*
X13698515Y-13958222D01*
X13698515Y-13958222D02*
X13698515Y-14062984D01*
X14088991Y-13853460D02*
X13917563Y-14110603D01*
X14346134Y-13862984D02*
X14365182Y-13862984D01*
X14365182Y-13862984D02*
X14384229Y-13872508D01*
X14384229Y-13872508D02*
X14393753Y-13882031D01*
X14393753Y-13882031D02*
X14403277Y-13901079D01*
X14403277Y-13901079D02*
X14412801Y-13939174D01*
X14412801Y-13939174D02*
X14412801Y-13986793D01*
X14412801Y-13986793D02*
X14403277Y-14024888D01*
X14403277Y-14024888D02*
X14393753Y-14043936D01*
X14393753Y-14043936D02*
X14384229Y-14053460D01*
X14384229Y-14053460D02*
X14365182Y-14062984D01*
X14365182Y-14062984D02*
X14346134Y-14062984D01*
X14346134Y-14062984D02*
X14327086Y-14053460D01*
X14327086Y-14053460D02*
X14317563Y-14043936D01*
X14317563Y-14043936D02*
X14308039Y-14024888D01*
X14308039Y-14024888D02*
X14298515Y-13986793D01*
X14298515Y-13986793D02*
X14298515Y-13939174D01*
X14298515Y-13939174D02*
X14308039Y-13901079D01*
X14308039Y-13901079D02*
X14317563Y-13882031D01*
X14317563Y-13882031D02*
X14327086Y-13872508D01*
X14327086Y-13872508D02*
X14346134Y-13862984D01*
X14498515Y-14043936D02*
X14508039Y-14053460D01*
X14508039Y-14053460D02*
X14498515Y-14062984D01*
X14498515Y-14062984D02*
X14488991Y-14053460D01*
X14488991Y-14053460D02*
X14498515Y-14043936D01*
X14498515Y-14043936D02*
X14498515Y-14062984D01*
X14631848Y-13862984D02*
X14650896Y-13862984D01*
X14650896Y-13862984D02*
X14669944Y-13872508D01*
X14669944Y-13872508D02*
X14679467Y-13882031D01*
X14679467Y-13882031D02*
X14688991Y-13901079D01*
X14688991Y-13901079D02*
X14698515Y-13939174D01*
X14698515Y-13939174D02*
X14698515Y-13986793D01*
X14698515Y-13986793D02*
X14688991Y-14024888D01*
X14688991Y-14024888D02*
X14679467Y-14043936D01*
X14679467Y-14043936D02*
X14669944Y-14053460D01*
X14669944Y-14053460D02*
X14650896Y-14062984D01*
X14650896Y-14062984D02*
X14631848Y-14062984D01*
X14631848Y-14062984D02*
X14612801Y-14053460D01*
X14612801Y-14053460D02*
X14603277Y-14043936D01*
X14603277Y-14043936D02*
X14593753Y-14024888D01*
X14593753Y-14024888D02*
X14584229Y-13986793D01*
X14584229Y-13986793D02*
X14584229Y-13939174D01*
X14584229Y-13939174D02*
X14593753Y-13901079D01*
X14593753Y-13901079D02*
X14603277Y-13882031D01*
X14603277Y-13882031D02*
X14612801Y-13872508D01*
X14612801Y-13872508D02*
X14631848Y-13862984D01*
X14765182Y-13862984D02*
X14888991Y-13862984D01*
X14888991Y-13862984D02*
X14822325Y-13939174D01*
X14822325Y-13939174D02*
X14850896Y-13939174D01*
X14850896Y-13939174D02*
X14869944Y-13948698D01*
X14869944Y-13948698D02*
X14879467Y-13958222D01*
X14879467Y-13958222D02*
X14888991Y-13977269D01*
X14888991Y-13977269D02*
X14888991Y-14024888D01*
X14888991Y-14024888D02*
X14879467Y-14043936D01*
X14879467Y-14043936D02*
X14869944Y-14053460D01*
X14869944Y-14053460D02*
X14850896Y-14062984D01*
X14850896Y-14062984D02*
X14793753Y-14062984D01*
X14793753Y-14062984D02*
X14774706Y-14053460D01*
X14774706Y-14053460D02*
X14765182Y-14043936D01*
X14984229Y-14062984D02*
X15022325Y-14062984D01*
X15022325Y-14062984D02*
X15041372Y-14053460D01*
X15041372Y-14053460D02*
X15050896Y-14043936D01*
X15050896Y-14043936D02*
X15069944Y-14015365D01*
X15069944Y-14015365D02*
X15079467Y-13977269D01*
X15079467Y-13977269D02*
X15079467Y-13901079D01*
X15079467Y-13901079D02*
X15069944Y-13882031D01*
X15069944Y-13882031D02*
X15060420Y-13872508D01*
X15060420Y-13872508D02*
X15041372Y-13862984D01*
X15041372Y-13862984D02*
X15003277Y-13862984D01*
X15003277Y-13862984D02*
X14984229Y-13872508D01*
X14984229Y-13872508D02*
X14974706Y-13882031D01*
X14974706Y-13882031D02*
X14965182Y-13901079D01*
X14965182Y-13901079D02*
X14965182Y-13948698D01*
X14965182Y-13948698D02*
X14974706Y-13967746D01*
X14974706Y-13967746D02*
X14984229Y-13977269D01*
X14984229Y-13977269D02*
X15003277Y-13986793D01*
X15003277Y-13986793D02*
X15041372Y-13986793D01*
X15041372Y-13986793D02*
X15060420Y-13977269D01*
X15060420Y-13977269D02*
X15069944Y-13967746D01*
X15069944Y-13967746D02*
X15079467Y-13948698D01*
X15203277Y-13862984D02*
X15222325Y-13862984D01*
X15222325Y-13862984D02*
X15241372Y-13872508D01*
X15241372Y-13872508D02*
X15250896Y-13882031D01*
X15250896Y-13882031D02*
X15260420Y-13901079D01*
X15260420Y-13901079D02*
X15269944Y-13939174D01*
X15269944Y-13939174D02*
X15269944Y-13986793D01*
X15269944Y-13986793D02*
X15260420Y-14024888D01*
X15260420Y-14024888D02*
X15250896Y-14043936D01*
X15250896Y-14043936D02*
X15241372Y-14053460D01*
X15241372Y-14053460D02*
X15222325Y-14062984D01*
X15222325Y-14062984D02*
X15203277Y-14062984D01*
X15203277Y-14062984D02*
X15184229Y-14053460D01*
X15184229Y-14053460D02*
X15174706Y-14043936D01*
X15174706Y-14043936D02*
X15165182Y-14024888D01*
X15165182Y-14024888D02*
X15155658Y-13986793D01*
X15155658Y-13986793D02*
X15155658Y-13939174D01*
X15155658Y-13939174D02*
X15165182Y-13901079D01*
X15165182Y-13901079D02*
X15174706Y-13882031D01*
X15174706Y-13882031D02*
X15184229Y-13872508D01*
X15184229Y-13872508D02*
X15203277Y-13862984D01*
X15346134Y-13862984D02*
X15346134Y-13901079D01*
X15422325Y-13862984D02*
X15422325Y-13901079D01*
X15717563Y-14139174D02*
X15708039Y-14129650D01*
X15708039Y-14129650D02*
X15688991Y-14101079D01*
X15688991Y-14101079D02*
X15679468Y-14082031D01*
X15679468Y-14082031D02*
X15669944Y-14053460D01*
X15669944Y-14053460D02*
X15660420Y-14005841D01*
X15660420Y-14005841D02*
X15660420Y-13967746D01*
X15660420Y-13967746D02*
X15669944Y-13920127D01*
X15669944Y-13920127D02*
X15679468Y-13891555D01*
X15679468Y-13891555D02*
X15688991Y-13872508D01*
X15688991Y-13872508D02*
X15708039Y-13843936D01*
X15708039Y-13843936D02*
X15717563Y-13834412D01*
X15774706Y-13862984D02*
X15898515Y-13862984D01*
X15898515Y-13862984D02*
X15831848Y-13939174D01*
X15831848Y-13939174D02*
X15860420Y-13939174D01*
X15860420Y-13939174D02*
X15879468Y-13948698D01*
X15879468Y-13948698D02*
X15888991Y-13958222D01*
X15888991Y-13958222D02*
X15898515Y-13977269D01*
X15898515Y-13977269D02*
X15898515Y-14024888D01*
X15898515Y-14024888D02*
X15888991Y-14043936D01*
X15888991Y-14043936D02*
X15879468Y-14053460D01*
X15879468Y-14053460D02*
X15860420Y-14062984D01*
X15860420Y-14062984D02*
X15803277Y-14062984D01*
X15803277Y-14062984D02*
X15784229Y-14053460D01*
X15784229Y-14053460D02*
X15774706Y-14043936D01*
X16022325Y-13862984D02*
X16041372Y-13862984D01*
X16041372Y-13862984D02*
X16060420Y-13872508D01*
X16060420Y-13872508D02*
X16069944Y-13882031D01*
X16069944Y-13882031D02*
X16079468Y-13901079D01*
X16079468Y-13901079D02*
X16088991Y-13939174D01*
X16088991Y-13939174D02*
X16088991Y-13986793D01*
X16088991Y-13986793D02*
X16079468Y-14024888D01*
X16079468Y-14024888D02*
X16069944Y-14043936D01*
X16069944Y-14043936D02*
X16060420Y-14053460D01*
X16060420Y-14053460D02*
X16041372Y-14062984D01*
X16041372Y-14062984D02*
X16022325Y-14062984D01*
X16022325Y-14062984D02*
X16003277Y-14053460D01*
X16003277Y-14053460D02*
X15993753Y-14043936D01*
X15993753Y-14043936D02*
X15984229Y-14024888D01*
X15984229Y-14024888D02*
X15974706Y-13986793D01*
X15974706Y-13986793D02*
X15974706Y-13939174D01*
X15974706Y-13939174D02*
X15984229Y-13901079D01*
X15984229Y-13901079D02*
X15993753Y-13882031D01*
X15993753Y-13882031D02*
X16003277Y-13872508D01*
X16003277Y-13872508D02*
X16022325Y-13862984D01*
X16327087Y-14062984D02*
X16327087Y-13862984D01*
X16412801Y-14062984D02*
X16412801Y-13958222D01*
X16412801Y-13958222D02*
X16403277Y-13939174D01*
X16403277Y-13939174D02*
X16384230Y-13929650D01*
X16384230Y-13929650D02*
X16355658Y-13929650D01*
X16355658Y-13929650D02*
X16336610Y-13939174D01*
X16336610Y-13939174D02*
X16327087Y-13948698D01*
X16536610Y-14062984D02*
X16517563Y-14053460D01*
X16517563Y-14053460D02*
X16508039Y-14043936D01*
X16508039Y-14043936D02*
X16498515Y-14024888D01*
X16498515Y-14024888D02*
X16498515Y-13967746D01*
X16498515Y-13967746D02*
X16508039Y-13948698D01*
X16508039Y-13948698D02*
X16517563Y-13939174D01*
X16517563Y-13939174D02*
X16536610Y-13929650D01*
X16536610Y-13929650D02*
X16565182Y-13929650D01*
X16565182Y-13929650D02*
X16584230Y-13939174D01*
X16584230Y-13939174D02*
X16593753Y-13948698D01*
X16593753Y-13948698D02*
X16603277Y-13967746D01*
X16603277Y-13967746D02*
X16603277Y-14024888D01*
X16603277Y-14024888D02*
X16593753Y-14043936D01*
X16593753Y-14043936D02*
X16584230Y-14053460D01*
X16584230Y-14053460D02*
X16565182Y-14062984D01*
X16565182Y-14062984D02*
X16536610Y-14062984D01*
X16717563Y-14062984D02*
X16698515Y-14053460D01*
X16698515Y-14053460D02*
X16688991Y-14034412D01*
X16688991Y-14034412D02*
X16688991Y-13862984D01*
X16869944Y-14053460D02*
X16850896Y-14062984D01*
X16850896Y-14062984D02*
X16812801Y-14062984D01*
X16812801Y-14062984D02*
X16793753Y-14053460D01*
X16793753Y-14053460D02*
X16784230Y-14034412D01*
X16784230Y-14034412D02*
X16784230Y-13958222D01*
X16784230Y-13958222D02*
X16793753Y-13939174D01*
X16793753Y-13939174D02*
X16812801Y-13929650D01*
X16812801Y-13929650D02*
X16850896Y-13929650D01*
X16850896Y-13929650D02*
X16869944Y-13939174D01*
X16869944Y-13939174D02*
X16879468Y-13958222D01*
X16879468Y-13958222D02*
X16879468Y-13977269D01*
X16879468Y-13977269D02*
X16784230Y-13996317D01*
X16955658Y-14053460D02*
X16974706Y-14062984D01*
X16974706Y-14062984D02*
X17012801Y-14062984D01*
X17012801Y-14062984D02*
X17031849Y-14053460D01*
X17031849Y-14053460D02*
X17041373Y-14034412D01*
X17041373Y-14034412D02*
X17041373Y-14024888D01*
X17041373Y-14024888D02*
X17031849Y-14005841D01*
X17031849Y-14005841D02*
X17012801Y-13996317D01*
X17012801Y-13996317D02*
X16984230Y-13996317D01*
X16984230Y-13996317D02*
X16965182Y-13986793D01*
X16965182Y-13986793D02*
X16955658Y-13967746D01*
X16955658Y-13967746D02*
X16955658Y-13958222D01*
X16955658Y-13958222D02*
X16965182Y-13939174D01*
X16965182Y-13939174D02*
X16984230Y-13929650D01*
X16984230Y-13929650D02*
X17012801Y-13929650D01*
X17012801Y-13929650D02*
X17031849Y-13939174D01*
X17108039Y-14139174D02*
X17117563Y-14129650D01*
X17117563Y-14129650D02*
X17136611Y-14101079D01*
X17136611Y-14101079D02*
X17146134Y-14082031D01*
X17146134Y-14082031D02*
X17155658Y-14053460D01*
X17155658Y-14053460D02*
X17165182Y-14005841D01*
X17165182Y-14005841D02*
X17165182Y-13967746D01*
X17165182Y-13967746D02*
X17155658Y-13920127D01*
X17155658Y-13920127D02*
X17146134Y-13891555D01*
X17146134Y-13891555D02*
X17136611Y-13872508D01*
X17136611Y-13872508D02*
X17117563Y-13843936D01*
X17117563Y-13843936D02*
X17108039Y-13834412D01*
D12*
X12092500Y-14185500D02*
X12092500Y-14285500D01*
X12042500Y-14235500D02*
X12142500Y-14235500D01*
D11*
X12508039Y-14326984D02*
X12393753Y-14326984D01*
X12450896Y-14326984D02*
X12450896Y-14126984D01*
X12450896Y-14126984D02*
X12431848Y-14155555D01*
X12431848Y-14155555D02*
X12412801Y-14174603D01*
X12412801Y-14174603D02*
X12393753Y-14184127D01*
X12593753Y-14307936D02*
X12603277Y-14317460D01*
X12603277Y-14317460D02*
X12593753Y-14326984D01*
X12593753Y-14326984D02*
X12584229Y-14317460D01*
X12584229Y-14317460D02*
X12593753Y-14307936D01*
X12593753Y-14307936D02*
X12593753Y-14326984D01*
X12727086Y-14126984D02*
X12746134Y-14126984D01*
X12746134Y-14126984D02*
X12765182Y-14136508D01*
X12765182Y-14136508D02*
X12774705Y-14146031D01*
X12774705Y-14146031D02*
X12784229Y-14165079D01*
X12784229Y-14165079D02*
X12793753Y-14203174D01*
X12793753Y-14203174D02*
X12793753Y-14250793D01*
X12793753Y-14250793D02*
X12784229Y-14288888D01*
X12784229Y-14288888D02*
X12774705Y-14307936D01*
X12774705Y-14307936D02*
X12765182Y-14317460D01*
X12765182Y-14317460D02*
X12746134Y-14326984D01*
X12746134Y-14326984D02*
X12727086Y-14326984D01*
X12727086Y-14326984D02*
X12708039Y-14317460D01*
X12708039Y-14317460D02*
X12698515Y-14307936D01*
X12698515Y-14307936D02*
X12688991Y-14288888D01*
X12688991Y-14288888D02*
X12679467Y-14250793D01*
X12679467Y-14250793D02*
X12679467Y-14203174D01*
X12679467Y-14203174D02*
X12688991Y-14165079D01*
X12688991Y-14165079D02*
X12698515Y-14146031D01*
X12698515Y-14146031D02*
X12708039Y-14136508D01*
X12708039Y-14136508D02*
X12727086Y-14126984D01*
X12917562Y-14126984D02*
X12936610Y-14126984D01*
X12936610Y-14126984D02*
X12955658Y-14136508D01*
X12955658Y-14136508D02*
X12965182Y-14146031D01*
X12965182Y-14146031D02*
X12974705Y-14165079D01*
X12974705Y-14165079D02*
X12984229Y-14203174D01*
X12984229Y-14203174D02*
X12984229Y-14250793D01*
X12984229Y-14250793D02*
X12974705Y-14288888D01*
X12974705Y-14288888D02*
X12965182Y-14307936D01*
X12965182Y-14307936D02*
X12955658Y-14317460D01*
X12955658Y-14317460D02*
X12936610Y-14326984D01*
X12936610Y-14326984D02*
X12917562Y-14326984D01*
X12917562Y-14326984D02*
X12898515Y-14317460D01*
X12898515Y-14317460D02*
X12888991Y-14307936D01*
X12888991Y-14307936D02*
X12879467Y-14288888D01*
X12879467Y-14288888D02*
X12869943Y-14250793D01*
X12869943Y-14250793D02*
X12869943Y-14203174D01*
X12869943Y-14203174D02*
X12879467Y-14165079D01*
X12879467Y-14165079D02*
X12888991Y-14146031D01*
X12888991Y-14146031D02*
X12898515Y-14136508D01*
X12898515Y-14136508D02*
X12917562Y-14126984D01*
X13108039Y-14126984D02*
X13127086Y-14126984D01*
X13127086Y-14126984D02*
X13146134Y-14136508D01*
X13146134Y-14136508D02*
X13155658Y-14146031D01*
X13155658Y-14146031D02*
X13165182Y-14165079D01*
X13165182Y-14165079D02*
X13174705Y-14203174D01*
X13174705Y-14203174D02*
X13174705Y-14250793D01*
X13174705Y-14250793D02*
X13165182Y-14288888D01*
X13165182Y-14288888D02*
X13155658Y-14307936D01*
X13155658Y-14307936D02*
X13146134Y-14317460D01*
X13146134Y-14317460D02*
X13127086Y-14326984D01*
X13127086Y-14326984D02*
X13108039Y-14326984D01*
X13108039Y-14326984D02*
X13088991Y-14317460D01*
X13088991Y-14317460D02*
X13079467Y-14307936D01*
X13079467Y-14307936D02*
X13069943Y-14288888D01*
X13069943Y-14288888D02*
X13060420Y-14250793D01*
X13060420Y-14250793D02*
X13060420Y-14203174D01*
X13060420Y-14203174D02*
X13069943Y-14165079D01*
X13069943Y-14165079D02*
X13079467Y-14146031D01*
X13079467Y-14146031D02*
X13088991Y-14136508D01*
X13088991Y-14136508D02*
X13108039Y-14126984D01*
X13260420Y-14326984D02*
X13260420Y-14193650D01*
X13260420Y-14212698D02*
X13269943Y-14203174D01*
X13269943Y-14203174D02*
X13288991Y-14193650D01*
X13288991Y-14193650D02*
X13317563Y-14193650D01*
X13317563Y-14193650D02*
X13336610Y-14203174D01*
X13336610Y-14203174D02*
X13346134Y-14222222D01*
X13346134Y-14222222D02*
X13346134Y-14326984D01*
X13346134Y-14222222D02*
X13355658Y-14203174D01*
X13355658Y-14203174D02*
X13374705Y-14193650D01*
X13374705Y-14193650D02*
X13403277Y-14193650D01*
X13403277Y-14193650D02*
X13422324Y-14203174D01*
X13422324Y-14203174D02*
X13431848Y-14222222D01*
X13431848Y-14222222D02*
X13431848Y-14326984D01*
X13527086Y-14326984D02*
X13527086Y-14193650D01*
X13527086Y-14212698D02*
X13536610Y-14203174D01*
X13536610Y-14203174D02*
X13555658Y-14193650D01*
X13555658Y-14193650D02*
X13584229Y-14193650D01*
X13584229Y-14193650D02*
X13603277Y-14203174D01*
X13603277Y-14203174D02*
X13612801Y-14222222D01*
X13612801Y-14222222D02*
X13612801Y-14326984D01*
X13612801Y-14222222D02*
X13622324Y-14203174D01*
X13622324Y-14203174D02*
X13641372Y-14193650D01*
X13641372Y-14193650D02*
X13669943Y-14193650D01*
X13669943Y-14193650D02*
X13688991Y-14203174D01*
X13688991Y-14203174D02*
X13698515Y-14222222D01*
X13698515Y-14222222D02*
X13698515Y-14326984D01*
X14088991Y-14117460D02*
X13917563Y-14374603D01*
X14346134Y-14126984D02*
X14365182Y-14126984D01*
X14365182Y-14126984D02*
X14384229Y-14136508D01*
X14384229Y-14136508D02*
X14393753Y-14146031D01*
X14393753Y-14146031D02*
X14403277Y-14165079D01*
X14403277Y-14165079D02*
X14412801Y-14203174D01*
X14412801Y-14203174D02*
X14412801Y-14250793D01*
X14412801Y-14250793D02*
X14403277Y-14288888D01*
X14403277Y-14288888D02*
X14393753Y-14307936D01*
X14393753Y-14307936D02*
X14384229Y-14317460D01*
X14384229Y-14317460D02*
X14365182Y-14326984D01*
X14365182Y-14326984D02*
X14346134Y-14326984D01*
X14346134Y-14326984D02*
X14327086Y-14317460D01*
X14327086Y-14317460D02*
X14317563Y-14307936D01*
X14317563Y-14307936D02*
X14308039Y-14288888D01*
X14308039Y-14288888D02*
X14298515Y-14250793D01*
X14298515Y-14250793D02*
X14298515Y-14203174D01*
X14298515Y-14203174D02*
X14308039Y-14165079D01*
X14308039Y-14165079D02*
X14317563Y-14146031D01*
X14317563Y-14146031D02*
X14327086Y-14136508D01*
X14327086Y-14136508D02*
X14346134Y-14126984D01*
X14498515Y-14307936D02*
X14508039Y-14317460D01*
X14508039Y-14317460D02*
X14498515Y-14326984D01*
X14498515Y-14326984D02*
X14488991Y-14317460D01*
X14488991Y-14317460D02*
X14498515Y-14307936D01*
X14498515Y-14307936D02*
X14498515Y-14326984D01*
X14631848Y-14126984D02*
X14650896Y-14126984D01*
X14650896Y-14126984D02*
X14669944Y-14136508D01*
X14669944Y-14136508D02*
X14679467Y-14146031D01*
X14679467Y-14146031D02*
X14688991Y-14165079D01*
X14688991Y-14165079D02*
X14698515Y-14203174D01*
X14698515Y-14203174D02*
X14698515Y-14250793D01*
X14698515Y-14250793D02*
X14688991Y-14288888D01*
X14688991Y-14288888D02*
X14679467Y-14307936D01*
X14679467Y-14307936D02*
X14669944Y-14317460D01*
X14669944Y-14317460D02*
X14650896Y-14326984D01*
X14650896Y-14326984D02*
X14631848Y-14326984D01*
X14631848Y-14326984D02*
X14612801Y-14317460D01*
X14612801Y-14317460D02*
X14603277Y-14307936D01*
X14603277Y-14307936D02*
X14593753Y-14288888D01*
X14593753Y-14288888D02*
X14584229Y-14250793D01*
X14584229Y-14250793D02*
X14584229Y-14203174D01*
X14584229Y-14203174D02*
X14593753Y-14165079D01*
X14593753Y-14165079D02*
X14603277Y-14146031D01*
X14603277Y-14146031D02*
X14612801Y-14136508D01*
X14612801Y-14136508D02*
X14631848Y-14126984D01*
X14765182Y-14126984D02*
X14888991Y-14126984D01*
X14888991Y-14126984D02*
X14822325Y-14203174D01*
X14822325Y-14203174D02*
X14850896Y-14203174D01*
X14850896Y-14203174D02*
X14869944Y-14212698D01*
X14869944Y-14212698D02*
X14879467Y-14222222D01*
X14879467Y-14222222D02*
X14888991Y-14241269D01*
X14888991Y-14241269D02*
X14888991Y-14288888D01*
X14888991Y-14288888D02*
X14879467Y-14307936D01*
X14879467Y-14307936D02*
X14869944Y-14317460D01*
X14869944Y-14317460D02*
X14850896Y-14326984D01*
X14850896Y-14326984D02*
X14793753Y-14326984D01*
X14793753Y-14326984D02*
X14774706Y-14317460D01*
X14774706Y-14317460D02*
X14765182Y-14307936D01*
X14984229Y-14326984D02*
X15022325Y-14326984D01*
X15022325Y-14326984D02*
X15041372Y-14317460D01*
X15041372Y-14317460D02*
X15050896Y-14307936D01*
X15050896Y-14307936D02*
X15069944Y-14279365D01*
X15069944Y-14279365D02*
X15079467Y-14241269D01*
X15079467Y-14241269D02*
X15079467Y-14165079D01*
X15079467Y-14165079D02*
X15069944Y-14146031D01*
X15069944Y-14146031D02*
X15060420Y-14136508D01*
X15060420Y-14136508D02*
X15041372Y-14126984D01*
X15041372Y-14126984D02*
X15003277Y-14126984D01*
X15003277Y-14126984D02*
X14984229Y-14136508D01*
X14984229Y-14136508D02*
X14974706Y-14146031D01*
X14974706Y-14146031D02*
X14965182Y-14165079D01*
X14965182Y-14165079D02*
X14965182Y-14212698D01*
X14965182Y-14212698D02*
X14974706Y-14231746D01*
X14974706Y-14231746D02*
X14984229Y-14241269D01*
X14984229Y-14241269D02*
X15003277Y-14250793D01*
X15003277Y-14250793D02*
X15041372Y-14250793D01*
X15041372Y-14250793D02*
X15060420Y-14241269D01*
X15060420Y-14241269D02*
X15069944Y-14231746D01*
X15069944Y-14231746D02*
X15079467Y-14212698D01*
X15250896Y-14193650D02*
X15250896Y-14326984D01*
X15203277Y-14117460D02*
X15155658Y-14260317D01*
X15155658Y-14260317D02*
X15279467Y-14260317D01*
X15346134Y-14126984D02*
X15346134Y-14165079D01*
X15422325Y-14126984D02*
X15422325Y-14165079D01*
X15717563Y-14403174D02*
X15708039Y-14393650D01*
X15708039Y-14393650D02*
X15688991Y-14365079D01*
X15688991Y-14365079D02*
X15679468Y-14346031D01*
X15679468Y-14346031D02*
X15669944Y-14317460D01*
X15669944Y-14317460D02*
X15660420Y-14269841D01*
X15660420Y-14269841D02*
X15660420Y-14231746D01*
X15660420Y-14231746D02*
X15669944Y-14184127D01*
X15669944Y-14184127D02*
X15679468Y-14155555D01*
X15679468Y-14155555D02*
X15688991Y-14136508D01*
X15688991Y-14136508D02*
X15708039Y-14107936D01*
X15708039Y-14107936D02*
X15717563Y-14098412D01*
X15831848Y-14126984D02*
X15850896Y-14126984D01*
X15850896Y-14126984D02*
X15869944Y-14136508D01*
X15869944Y-14136508D02*
X15879468Y-14146031D01*
X15879468Y-14146031D02*
X15888991Y-14165079D01*
X15888991Y-14165079D02*
X15898515Y-14203174D01*
X15898515Y-14203174D02*
X15898515Y-14250793D01*
X15898515Y-14250793D02*
X15888991Y-14288888D01*
X15888991Y-14288888D02*
X15879468Y-14307936D01*
X15879468Y-14307936D02*
X15869944Y-14317460D01*
X15869944Y-14317460D02*
X15850896Y-14326984D01*
X15850896Y-14326984D02*
X15831848Y-14326984D01*
X15831848Y-14326984D02*
X15812801Y-14317460D01*
X15812801Y-14317460D02*
X15803277Y-14307936D01*
X15803277Y-14307936D02*
X15793753Y-14288888D01*
X15793753Y-14288888D02*
X15784229Y-14250793D01*
X15784229Y-14250793D02*
X15784229Y-14203174D01*
X15784229Y-14203174D02*
X15793753Y-14165079D01*
X15793753Y-14165079D02*
X15803277Y-14146031D01*
X15803277Y-14146031D02*
X15812801Y-14136508D01*
X15812801Y-14136508D02*
X15831848Y-14126984D01*
X16136610Y-14326984D02*
X16136610Y-14126984D01*
X16222325Y-14326984D02*
X16222325Y-14222222D01*
X16222325Y-14222222D02*
X16212801Y-14203174D01*
X16212801Y-14203174D02*
X16193753Y-14193650D01*
X16193753Y-14193650D02*
X16165182Y-14193650D01*
X16165182Y-14193650D02*
X16146134Y-14203174D01*
X16146134Y-14203174D02*
X16136610Y-14212698D01*
X16346134Y-14326984D02*
X16327087Y-14317460D01*
X16327087Y-14317460D02*
X16317563Y-14307936D01*
X16317563Y-14307936D02*
X16308039Y-14288888D01*
X16308039Y-14288888D02*
X16308039Y-14231746D01*
X16308039Y-14231746D02*
X16317563Y-14212698D01*
X16317563Y-14212698D02*
X16327087Y-14203174D01*
X16327087Y-14203174D02*
X16346134Y-14193650D01*
X16346134Y-14193650D02*
X16374706Y-14193650D01*
X16374706Y-14193650D02*
X16393753Y-14203174D01*
X16393753Y-14203174D02*
X16403277Y-14212698D01*
X16403277Y-14212698D02*
X16412801Y-14231746D01*
X16412801Y-14231746D02*
X16412801Y-14288888D01*
X16412801Y-14288888D02*
X16403277Y-14307936D01*
X16403277Y-14307936D02*
X16393753Y-14317460D01*
X16393753Y-14317460D02*
X16374706Y-14326984D01*
X16374706Y-14326984D02*
X16346134Y-14326984D01*
X16527087Y-14326984D02*
X16508039Y-14317460D01*
X16508039Y-14317460D02*
X16498515Y-14298412D01*
X16498515Y-14298412D02*
X16498515Y-14126984D01*
X16679468Y-14317460D02*
X16660420Y-14326984D01*
X16660420Y-14326984D02*
X16622325Y-14326984D01*
X16622325Y-14326984D02*
X16603277Y-14317460D01*
X16603277Y-14317460D02*
X16593753Y-14298412D01*
X16593753Y-14298412D02*
X16593753Y-14222222D01*
X16593753Y-14222222D02*
X16603277Y-14203174D01*
X16603277Y-14203174D02*
X16622325Y-14193650D01*
X16622325Y-14193650D02*
X16660420Y-14193650D01*
X16660420Y-14193650D02*
X16679468Y-14203174D01*
X16679468Y-14203174D02*
X16688991Y-14222222D01*
X16688991Y-14222222D02*
X16688991Y-14241269D01*
X16688991Y-14241269D02*
X16593753Y-14260317D01*
X16765182Y-14317460D02*
X16784230Y-14326984D01*
X16784230Y-14326984D02*
X16822325Y-14326984D01*
X16822325Y-14326984D02*
X16841373Y-14317460D01*
X16841373Y-14317460D02*
X16850896Y-14298412D01*
X16850896Y-14298412D02*
X16850896Y-14288888D01*
X16850896Y-14288888D02*
X16841373Y-14269841D01*
X16841373Y-14269841D02*
X16822325Y-14260317D01*
X16822325Y-14260317D02*
X16793753Y-14260317D01*
X16793753Y-14260317D02*
X16774706Y-14250793D01*
X16774706Y-14250793D02*
X16765182Y-14231746D01*
X16765182Y-14231746D02*
X16765182Y-14222222D01*
X16765182Y-14222222D02*
X16774706Y-14203174D01*
X16774706Y-14203174D02*
X16793753Y-14193650D01*
X16793753Y-14193650D02*
X16822325Y-14193650D01*
X16822325Y-14193650D02*
X16841373Y-14203174D01*
X17088992Y-14250793D02*
X17241373Y-14250793D01*
X17165182Y-14326984D02*
X17165182Y-14174603D01*
X17469944Y-14126984D02*
X17593754Y-14126984D01*
X17593754Y-14126984D02*
X17527087Y-14203174D01*
X17527087Y-14203174D02*
X17555658Y-14203174D01*
X17555658Y-14203174D02*
X17574706Y-14212698D01*
X17574706Y-14212698D02*
X17584230Y-14222222D01*
X17584230Y-14222222D02*
X17593754Y-14241269D01*
X17593754Y-14241269D02*
X17593754Y-14288888D01*
X17593754Y-14288888D02*
X17584230Y-14307936D01*
X17584230Y-14307936D02*
X17574706Y-14317460D01*
X17574706Y-14317460D02*
X17555658Y-14326984D01*
X17555658Y-14326984D02*
X17498515Y-14326984D01*
X17498515Y-14326984D02*
X17479468Y-14317460D01*
X17479468Y-14317460D02*
X17469944Y-14307936D01*
X17822325Y-14317460D02*
X17841373Y-14326984D01*
X17841373Y-14326984D02*
X17879468Y-14326984D01*
X17879468Y-14326984D02*
X17898516Y-14317460D01*
X17898516Y-14317460D02*
X17908039Y-14298412D01*
X17908039Y-14298412D02*
X17908039Y-14288888D01*
X17908039Y-14288888D02*
X17898516Y-14269841D01*
X17898516Y-14269841D02*
X17879468Y-14260317D01*
X17879468Y-14260317D02*
X17850896Y-14260317D01*
X17850896Y-14260317D02*
X17831849Y-14250793D01*
X17831849Y-14250793D02*
X17822325Y-14231746D01*
X17822325Y-14231746D02*
X17822325Y-14222222D01*
X17822325Y-14222222D02*
X17831849Y-14203174D01*
X17831849Y-14203174D02*
X17850896Y-14193650D01*
X17850896Y-14193650D02*
X17879468Y-14193650D01*
X17879468Y-14193650D02*
X17898516Y-14203174D01*
X18022325Y-14326984D02*
X18003277Y-14317460D01*
X18003277Y-14317460D02*
X17993754Y-14298412D01*
X17993754Y-14298412D02*
X17993754Y-14126984D01*
X18127087Y-14326984D02*
X18108039Y-14317460D01*
X18108039Y-14317460D02*
X18098516Y-14307936D01*
X18098516Y-14307936D02*
X18088992Y-14288888D01*
X18088992Y-14288888D02*
X18088992Y-14231746D01*
X18088992Y-14231746D02*
X18098516Y-14212698D01*
X18098516Y-14212698D02*
X18108039Y-14203174D01*
X18108039Y-14203174D02*
X18127087Y-14193650D01*
X18127087Y-14193650D02*
X18155658Y-14193650D01*
X18155658Y-14193650D02*
X18174706Y-14203174D01*
X18174706Y-14203174D02*
X18184230Y-14212698D01*
X18184230Y-14212698D02*
X18193754Y-14231746D01*
X18193754Y-14231746D02*
X18193754Y-14288888D01*
X18193754Y-14288888D02*
X18184230Y-14307936D01*
X18184230Y-14307936D02*
X18174706Y-14317460D01*
X18174706Y-14317460D02*
X18155658Y-14326984D01*
X18155658Y-14326984D02*
X18127087Y-14326984D01*
X18250897Y-14193650D02*
X18327087Y-14193650D01*
X18279468Y-14126984D02*
X18279468Y-14298412D01*
X18279468Y-14298412D02*
X18288992Y-14317460D01*
X18288992Y-14317460D02*
X18308039Y-14326984D01*
X18308039Y-14326984D02*
X18327087Y-14326984D01*
X18384230Y-14317460D02*
X18403277Y-14326984D01*
X18403277Y-14326984D02*
X18441373Y-14326984D01*
X18441373Y-14326984D02*
X18460420Y-14317460D01*
X18460420Y-14317460D02*
X18469944Y-14298412D01*
X18469944Y-14298412D02*
X18469944Y-14288888D01*
X18469944Y-14288888D02*
X18460420Y-14269841D01*
X18460420Y-14269841D02*
X18441373Y-14260317D01*
X18441373Y-14260317D02*
X18412801Y-14260317D01*
X18412801Y-14260317D02*
X18393754Y-14250793D01*
X18393754Y-14250793D02*
X18384230Y-14231746D01*
X18384230Y-14231746D02*
X18384230Y-14222222D01*
X18384230Y-14222222D02*
X18393754Y-14203174D01*
X18393754Y-14203174D02*
X18412801Y-14193650D01*
X18412801Y-14193650D02*
X18441373Y-14193650D01*
X18441373Y-14193650D02*
X18460420Y-14203174D01*
X18536611Y-14403174D02*
X18546135Y-14393650D01*
X18546135Y-14393650D02*
X18565182Y-14365079D01*
X18565182Y-14365079D02*
X18574706Y-14346031D01*
X18574706Y-14346031D02*
X18584230Y-14317460D01*
X18584230Y-14317460D02*
X18593754Y-14269841D01*
X18593754Y-14269841D02*
X18593754Y-14231746D01*
X18593754Y-14231746D02*
X18584230Y-14184127D01*
X18584230Y-14184127D02*
X18574706Y-14155555D01*
X18574706Y-14155555D02*
X18565182Y-14136508D01*
X18565182Y-14136508D02*
X18546135Y-14107936D01*
X18546135Y-14107936D02*
X18536611Y-14098412D01*
D13*
X12127563Y-14535563D02*
X12127563Y-14463437D01*
X12055437Y-14463437D01*
X12055437Y-14535563D01*
X12127563Y-14535563D01*
D11*
X12508039Y-14590984D02*
X12393753Y-14590984D01*
X12450896Y-14590984D02*
X12450896Y-14390984D01*
X12450896Y-14390984D02*
X12431848Y-14419555D01*
X12431848Y-14419555D02*
X12412801Y-14438603D01*
X12412801Y-14438603D02*
X12393753Y-14448127D01*
X12593753Y-14571936D02*
X12603277Y-14581460D01*
X12603277Y-14581460D02*
X12593753Y-14590984D01*
X12593753Y-14590984D02*
X12584229Y-14581460D01*
X12584229Y-14581460D02*
X12593753Y-14571936D01*
X12593753Y-14571936D02*
X12593753Y-14590984D01*
X12727086Y-14390984D02*
X12746134Y-14390984D01*
X12746134Y-14390984D02*
X12765182Y-14400508D01*
X12765182Y-14400508D02*
X12774705Y-14410031D01*
X12774705Y-14410031D02*
X12784229Y-14429079D01*
X12784229Y-14429079D02*
X12793753Y-14467174D01*
X12793753Y-14467174D02*
X12793753Y-14514793D01*
X12793753Y-14514793D02*
X12784229Y-14552888D01*
X12784229Y-14552888D02*
X12774705Y-14571936D01*
X12774705Y-14571936D02*
X12765182Y-14581460D01*
X12765182Y-14581460D02*
X12746134Y-14590984D01*
X12746134Y-14590984D02*
X12727086Y-14590984D01*
X12727086Y-14590984D02*
X12708039Y-14581460D01*
X12708039Y-14581460D02*
X12698515Y-14571936D01*
X12698515Y-14571936D02*
X12688991Y-14552888D01*
X12688991Y-14552888D02*
X12679467Y-14514793D01*
X12679467Y-14514793D02*
X12679467Y-14467174D01*
X12679467Y-14467174D02*
X12688991Y-14429079D01*
X12688991Y-14429079D02*
X12698515Y-14410031D01*
X12698515Y-14410031D02*
X12708039Y-14400508D01*
X12708039Y-14400508D02*
X12727086Y-14390984D01*
X12869943Y-14410031D02*
X12879467Y-14400508D01*
X12879467Y-14400508D02*
X12898515Y-14390984D01*
X12898515Y-14390984D02*
X12946134Y-14390984D01*
X12946134Y-14390984D02*
X12965182Y-14400508D01*
X12965182Y-14400508D02*
X12974705Y-14410031D01*
X12974705Y-14410031D02*
X12984229Y-14429079D01*
X12984229Y-14429079D02*
X12984229Y-14448127D01*
X12984229Y-14448127D02*
X12974705Y-14476698D01*
X12974705Y-14476698D02*
X12860420Y-14590984D01*
X12860420Y-14590984D02*
X12984229Y-14590984D01*
X13108039Y-14390984D02*
X13127086Y-14390984D01*
X13127086Y-14390984D02*
X13146134Y-14400508D01*
X13146134Y-14400508D02*
X13155658Y-14410031D01*
X13155658Y-14410031D02*
X13165182Y-14429079D01*
X13165182Y-14429079D02*
X13174705Y-14467174D01*
X13174705Y-14467174D02*
X13174705Y-14514793D01*
X13174705Y-14514793D02*
X13165182Y-14552888D01*
X13165182Y-14552888D02*
X13155658Y-14571936D01*
X13155658Y-14571936D02*
X13146134Y-14581460D01*
X13146134Y-14581460D02*
X13127086Y-14590984D01*
X13127086Y-14590984D02*
X13108039Y-14590984D01*
X13108039Y-14590984D02*
X13088991Y-14581460D01*
X13088991Y-14581460D02*
X13079467Y-14571936D01*
X13079467Y-14571936D02*
X13069943Y-14552888D01*
X13069943Y-14552888D02*
X13060420Y-14514793D01*
X13060420Y-14514793D02*
X13060420Y-14467174D01*
X13060420Y-14467174D02*
X13069943Y-14429079D01*
X13069943Y-14429079D02*
X13079467Y-14410031D01*
X13079467Y-14410031D02*
X13088991Y-14400508D01*
X13088991Y-14400508D02*
X13108039Y-14390984D01*
X13260420Y-14590984D02*
X13260420Y-14457650D01*
X13260420Y-14476698D02*
X13269943Y-14467174D01*
X13269943Y-14467174D02*
X13288991Y-14457650D01*
X13288991Y-14457650D02*
X13317563Y-14457650D01*
X13317563Y-14457650D02*
X13336610Y-14467174D01*
X13336610Y-14467174D02*
X13346134Y-14486222D01*
X13346134Y-14486222D02*
X13346134Y-14590984D01*
X13346134Y-14486222D02*
X13355658Y-14467174D01*
X13355658Y-14467174D02*
X13374705Y-14457650D01*
X13374705Y-14457650D02*
X13403277Y-14457650D01*
X13403277Y-14457650D02*
X13422324Y-14467174D01*
X13422324Y-14467174D02*
X13431848Y-14486222D01*
X13431848Y-14486222D02*
X13431848Y-14590984D01*
X13527086Y-14590984D02*
X13527086Y-14457650D01*
X13527086Y-14476698D02*
X13536610Y-14467174D01*
X13536610Y-14467174D02*
X13555658Y-14457650D01*
X13555658Y-14457650D02*
X13584229Y-14457650D01*
X13584229Y-14457650D02*
X13603277Y-14467174D01*
X13603277Y-14467174D02*
X13612801Y-14486222D01*
X13612801Y-14486222D02*
X13612801Y-14590984D01*
X13612801Y-14486222D02*
X13622324Y-14467174D01*
X13622324Y-14467174D02*
X13641372Y-14457650D01*
X13641372Y-14457650D02*
X13669943Y-14457650D01*
X13669943Y-14457650D02*
X13688991Y-14467174D01*
X13688991Y-14467174D02*
X13698515Y-14486222D01*
X13698515Y-14486222D02*
X13698515Y-14590984D01*
X14088991Y-14381460D02*
X13917563Y-14638603D01*
X14346134Y-14390984D02*
X14365182Y-14390984D01*
X14365182Y-14390984D02*
X14384229Y-14400508D01*
X14384229Y-14400508D02*
X14393753Y-14410031D01*
X14393753Y-14410031D02*
X14403277Y-14429079D01*
X14403277Y-14429079D02*
X14412801Y-14467174D01*
X14412801Y-14467174D02*
X14412801Y-14514793D01*
X14412801Y-14514793D02*
X14403277Y-14552888D01*
X14403277Y-14552888D02*
X14393753Y-14571936D01*
X14393753Y-14571936D02*
X14384229Y-14581460D01*
X14384229Y-14581460D02*
X14365182Y-14590984D01*
X14365182Y-14590984D02*
X14346134Y-14590984D01*
X14346134Y-14590984D02*
X14327086Y-14581460D01*
X14327086Y-14581460D02*
X14317563Y-14571936D01*
X14317563Y-14571936D02*
X14308039Y-14552888D01*
X14308039Y-14552888D02*
X14298515Y-14514793D01*
X14298515Y-14514793D02*
X14298515Y-14467174D01*
X14298515Y-14467174D02*
X14308039Y-14429079D01*
X14308039Y-14429079D02*
X14317563Y-14410031D01*
X14317563Y-14410031D02*
X14327086Y-14400508D01*
X14327086Y-14400508D02*
X14346134Y-14390984D01*
X14498515Y-14571936D02*
X14508039Y-14581460D01*
X14508039Y-14581460D02*
X14498515Y-14590984D01*
X14498515Y-14590984D02*
X14488991Y-14581460D01*
X14488991Y-14581460D02*
X14498515Y-14571936D01*
X14498515Y-14571936D02*
X14498515Y-14590984D01*
X14631848Y-14390984D02*
X14650896Y-14390984D01*
X14650896Y-14390984D02*
X14669944Y-14400508D01*
X14669944Y-14400508D02*
X14679467Y-14410031D01*
X14679467Y-14410031D02*
X14688991Y-14429079D01*
X14688991Y-14429079D02*
X14698515Y-14467174D01*
X14698515Y-14467174D02*
X14698515Y-14514793D01*
X14698515Y-14514793D02*
X14688991Y-14552888D01*
X14688991Y-14552888D02*
X14679467Y-14571936D01*
X14679467Y-14571936D02*
X14669944Y-14581460D01*
X14669944Y-14581460D02*
X14650896Y-14590984D01*
X14650896Y-14590984D02*
X14631848Y-14590984D01*
X14631848Y-14590984D02*
X14612801Y-14581460D01*
X14612801Y-14581460D02*
X14603277Y-14571936D01*
X14603277Y-14571936D02*
X14593753Y-14552888D01*
X14593753Y-14552888D02*
X14584229Y-14514793D01*
X14584229Y-14514793D02*
X14584229Y-14467174D01*
X14584229Y-14467174D02*
X14593753Y-14429079D01*
X14593753Y-14429079D02*
X14603277Y-14410031D01*
X14603277Y-14410031D02*
X14612801Y-14400508D01*
X14612801Y-14400508D02*
X14631848Y-14390984D01*
X14869944Y-14457650D02*
X14869944Y-14590984D01*
X14822325Y-14381460D02*
X14774706Y-14524317D01*
X14774706Y-14524317D02*
X14898515Y-14524317D01*
X15012801Y-14390984D02*
X15031848Y-14390984D01*
X15031848Y-14390984D02*
X15050896Y-14400508D01*
X15050896Y-14400508D02*
X15060420Y-14410031D01*
X15060420Y-14410031D02*
X15069944Y-14429079D01*
X15069944Y-14429079D02*
X15079467Y-14467174D01*
X15079467Y-14467174D02*
X15079467Y-14514793D01*
X15079467Y-14514793D02*
X15069944Y-14552888D01*
X15069944Y-14552888D02*
X15060420Y-14571936D01*
X15060420Y-14571936D02*
X15050896Y-14581460D01*
X15050896Y-14581460D02*
X15031848Y-14590984D01*
X15031848Y-14590984D02*
X15012801Y-14590984D01*
X15012801Y-14590984D02*
X14993753Y-14581460D01*
X14993753Y-14581460D02*
X14984229Y-14571936D01*
X14984229Y-14571936D02*
X14974706Y-14552888D01*
X14974706Y-14552888D02*
X14965182Y-14514793D01*
X14965182Y-14514793D02*
X14965182Y-14467174D01*
X14965182Y-14467174D02*
X14974706Y-14429079D01*
X14974706Y-14429079D02*
X14984229Y-14410031D01*
X14984229Y-14410031D02*
X14993753Y-14400508D01*
X14993753Y-14400508D02*
X15012801Y-14390984D01*
X15155658Y-14410031D02*
X15165182Y-14400508D01*
X15165182Y-14400508D02*
X15184229Y-14390984D01*
X15184229Y-14390984D02*
X15231848Y-14390984D01*
X15231848Y-14390984D02*
X15250896Y-14400508D01*
X15250896Y-14400508D02*
X15260420Y-14410031D01*
X15260420Y-14410031D02*
X15269944Y-14429079D01*
X15269944Y-14429079D02*
X15269944Y-14448127D01*
X15269944Y-14448127D02*
X15260420Y-14476698D01*
X15260420Y-14476698D02*
X15146134Y-14590984D01*
X15146134Y-14590984D02*
X15269944Y-14590984D01*
X15346134Y-14390984D02*
X15346134Y-14429079D01*
X15422325Y-14390984D02*
X15422325Y-14429079D01*
X15717563Y-14667174D02*
X15708039Y-14657650D01*
X15708039Y-14657650D02*
X15688991Y-14629079D01*
X15688991Y-14629079D02*
X15679468Y-14610031D01*
X15679468Y-14610031D02*
X15669944Y-14581460D01*
X15669944Y-14581460D02*
X15660420Y-14533841D01*
X15660420Y-14533841D02*
X15660420Y-14495746D01*
X15660420Y-14495746D02*
X15669944Y-14448127D01*
X15669944Y-14448127D02*
X15679468Y-14419555D01*
X15679468Y-14419555D02*
X15688991Y-14400508D01*
X15688991Y-14400508D02*
X15708039Y-14371936D01*
X15708039Y-14371936D02*
X15717563Y-14362412D01*
X15774706Y-14390984D02*
X15898515Y-14390984D01*
X15898515Y-14390984D02*
X15831848Y-14467174D01*
X15831848Y-14467174D02*
X15860420Y-14467174D01*
X15860420Y-14467174D02*
X15879468Y-14476698D01*
X15879468Y-14476698D02*
X15888991Y-14486222D01*
X15888991Y-14486222D02*
X15898515Y-14505269D01*
X15898515Y-14505269D02*
X15898515Y-14552888D01*
X15898515Y-14552888D02*
X15888991Y-14571936D01*
X15888991Y-14571936D02*
X15879468Y-14581460D01*
X15879468Y-14581460D02*
X15860420Y-14590984D01*
X15860420Y-14590984D02*
X15803277Y-14590984D01*
X15803277Y-14590984D02*
X15784229Y-14581460D01*
X15784229Y-14581460D02*
X15774706Y-14571936D01*
X16022325Y-14390984D02*
X16041372Y-14390984D01*
X16041372Y-14390984D02*
X16060420Y-14400508D01*
X16060420Y-14400508D02*
X16069944Y-14410031D01*
X16069944Y-14410031D02*
X16079468Y-14429079D01*
X16079468Y-14429079D02*
X16088991Y-14467174D01*
X16088991Y-14467174D02*
X16088991Y-14514793D01*
X16088991Y-14514793D02*
X16079468Y-14552888D01*
X16079468Y-14552888D02*
X16069944Y-14571936D01*
X16069944Y-14571936D02*
X16060420Y-14581460D01*
X16060420Y-14581460D02*
X16041372Y-14590984D01*
X16041372Y-14590984D02*
X16022325Y-14590984D01*
X16022325Y-14590984D02*
X16003277Y-14581460D01*
X16003277Y-14581460D02*
X15993753Y-14571936D01*
X15993753Y-14571936D02*
X15984229Y-14552888D01*
X15984229Y-14552888D02*
X15974706Y-14514793D01*
X15974706Y-14514793D02*
X15974706Y-14467174D01*
X15974706Y-14467174D02*
X15984229Y-14429079D01*
X15984229Y-14429079D02*
X15993753Y-14410031D01*
X15993753Y-14410031D02*
X16003277Y-14400508D01*
X16003277Y-14400508D02*
X16022325Y-14390984D01*
X16327087Y-14590984D02*
X16327087Y-14390984D01*
X16412801Y-14590984D02*
X16412801Y-14486222D01*
X16412801Y-14486222D02*
X16403277Y-14467174D01*
X16403277Y-14467174D02*
X16384230Y-14457650D01*
X16384230Y-14457650D02*
X16355658Y-14457650D01*
X16355658Y-14457650D02*
X16336610Y-14467174D01*
X16336610Y-14467174D02*
X16327087Y-14476698D01*
X16536610Y-14590984D02*
X16517563Y-14581460D01*
X16517563Y-14581460D02*
X16508039Y-14571936D01*
X16508039Y-14571936D02*
X16498515Y-14552888D01*
X16498515Y-14552888D02*
X16498515Y-14495746D01*
X16498515Y-14495746D02*
X16508039Y-14476698D01*
X16508039Y-14476698D02*
X16517563Y-14467174D01*
X16517563Y-14467174D02*
X16536610Y-14457650D01*
X16536610Y-14457650D02*
X16565182Y-14457650D01*
X16565182Y-14457650D02*
X16584230Y-14467174D01*
X16584230Y-14467174D02*
X16593753Y-14476698D01*
X16593753Y-14476698D02*
X16603277Y-14495746D01*
X16603277Y-14495746D02*
X16603277Y-14552888D01*
X16603277Y-14552888D02*
X16593753Y-14571936D01*
X16593753Y-14571936D02*
X16584230Y-14581460D01*
X16584230Y-14581460D02*
X16565182Y-14590984D01*
X16565182Y-14590984D02*
X16536610Y-14590984D01*
X16717563Y-14590984D02*
X16698515Y-14581460D01*
X16698515Y-14581460D02*
X16688991Y-14562412D01*
X16688991Y-14562412D02*
X16688991Y-14390984D01*
X16869944Y-14581460D02*
X16850896Y-14590984D01*
X16850896Y-14590984D02*
X16812801Y-14590984D01*
X16812801Y-14590984D02*
X16793753Y-14581460D01*
X16793753Y-14581460D02*
X16784230Y-14562412D01*
X16784230Y-14562412D02*
X16784230Y-14486222D01*
X16784230Y-14486222D02*
X16793753Y-14467174D01*
X16793753Y-14467174D02*
X16812801Y-14457650D01*
X16812801Y-14457650D02*
X16850896Y-14457650D01*
X16850896Y-14457650D02*
X16869944Y-14467174D01*
X16869944Y-14467174D02*
X16879468Y-14486222D01*
X16879468Y-14486222D02*
X16879468Y-14505269D01*
X16879468Y-14505269D02*
X16784230Y-14524317D01*
X16955658Y-14581460D02*
X16974706Y-14590984D01*
X16974706Y-14590984D02*
X17012801Y-14590984D01*
X17012801Y-14590984D02*
X17031849Y-14581460D01*
X17031849Y-14581460D02*
X17041373Y-14562412D01*
X17041373Y-14562412D02*
X17041373Y-14552888D01*
X17041373Y-14552888D02*
X17031849Y-14533841D01*
X17031849Y-14533841D02*
X17012801Y-14524317D01*
X17012801Y-14524317D02*
X16984230Y-14524317D01*
X16984230Y-14524317D02*
X16965182Y-14514793D01*
X16965182Y-14514793D02*
X16955658Y-14495746D01*
X16955658Y-14495746D02*
X16955658Y-14486222D01*
X16955658Y-14486222D02*
X16965182Y-14467174D01*
X16965182Y-14467174D02*
X16984230Y-14457650D01*
X16984230Y-14457650D02*
X17012801Y-14457650D01*
X17012801Y-14457650D02*
X17031849Y-14467174D01*
X17108039Y-14667174D02*
X17117563Y-14657650D01*
X17117563Y-14657650D02*
X17136611Y-14629079D01*
X17136611Y-14629079D02*
X17146134Y-14610031D01*
X17146134Y-14610031D02*
X17155658Y-14581460D01*
X17155658Y-14581460D02*
X17165182Y-14533841D01*
X17165182Y-14533841D02*
X17165182Y-14495746D01*
X17165182Y-14495746D02*
X17155658Y-14448127D01*
X17155658Y-14448127D02*
X17146134Y-14419555D01*
X17146134Y-14419555D02*
X17136611Y-14400508D01*
X17136611Y-14400508D02*
X17117563Y-14371936D01*
X17117563Y-14371936D02*
X17108039Y-14362412D01*
D14*
X12087500Y-14818500D02*
X12142500Y-14763500D01*
X12087500Y-14708500D01*
X12032500Y-14763500D01*
X12087500Y-14818500D01*
D11*
X12508039Y-14854984D02*
X12393753Y-14854984D01*
X12450896Y-14854984D02*
X12450896Y-14654984D01*
X12450896Y-14654984D02*
X12431848Y-14683555D01*
X12431848Y-14683555D02*
X12412801Y-14702603D01*
X12412801Y-14702603D02*
X12393753Y-14712127D01*
X12593753Y-14835936D02*
X12603277Y-14845460D01*
X12603277Y-14845460D02*
X12593753Y-14854984D01*
X12593753Y-14854984D02*
X12584229Y-14845460D01*
X12584229Y-14845460D02*
X12593753Y-14835936D01*
X12593753Y-14835936D02*
X12593753Y-14854984D01*
X12793753Y-14854984D02*
X12679467Y-14854984D01*
X12736610Y-14854984D02*
X12736610Y-14654984D01*
X12736610Y-14654984D02*
X12717562Y-14683555D01*
X12717562Y-14683555D02*
X12698515Y-14702603D01*
X12698515Y-14702603D02*
X12679467Y-14712127D01*
X12917562Y-14654984D02*
X12936610Y-14654984D01*
X12936610Y-14654984D02*
X12955658Y-14664508D01*
X12955658Y-14664508D02*
X12965182Y-14674031D01*
X12965182Y-14674031D02*
X12974705Y-14693079D01*
X12974705Y-14693079D02*
X12984229Y-14731174D01*
X12984229Y-14731174D02*
X12984229Y-14778793D01*
X12984229Y-14778793D02*
X12974705Y-14816888D01*
X12974705Y-14816888D02*
X12965182Y-14835936D01*
X12965182Y-14835936D02*
X12955658Y-14845460D01*
X12955658Y-14845460D02*
X12936610Y-14854984D01*
X12936610Y-14854984D02*
X12917562Y-14854984D01*
X12917562Y-14854984D02*
X12898515Y-14845460D01*
X12898515Y-14845460D02*
X12888991Y-14835936D01*
X12888991Y-14835936D02*
X12879467Y-14816888D01*
X12879467Y-14816888D02*
X12869943Y-14778793D01*
X12869943Y-14778793D02*
X12869943Y-14731174D01*
X12869943Y-14731174D02*
X12879467Y-14693079D01*
X12879467Y-14693079D02*
X12888991Y-14674031D01*
X12888991Y-14674031D02*
X12898515Y-14664508D01*
X12898515Y-14664508D02*
X12917562Y-14654984D01*
X13108039Y-14654984D02*
X13127086Y-14654984D01*
X13127086Y-14654984D02*
X13146134Y-14664508D01*
X13146134Y-14664508D02*
X13155658Y-14674031D01*
X13155658Y-14674031D02*
X13165182Y-14693079D01*
X13165182Y-14693079D02*
X13174705Y-14731174D01*
X13174705Y-14731174D02*
X13174705Y-14778793D01*
X13174705Y-14778793D02*
X13165182Y-14816888D01*
X13165182Y-14816888D02*
X13155658Y-14835936D01*
X13155658Y-14835936D02*
X13146134Y-14845460D01*
X13146134Y-14845460D02*
X13127086Y-14854984D01*
X13127086Y-14854984D02*
X13108039Y-14854984D01*
X13108039Y-14854984D02*
X13088991Y-14845460D01*
X13088991Y-14845460D02*
X13079467Y-14835936D01*
X13079467Y-14835936D02*
X13069943Y-14816888D01*
X13069943Y-14816888D02*
X13060420Y-14778793D01*
X13060420Y-14778793D02*
X13060420Y-14731174D01*
X13060420Y-14731174D02*
X13069943Y-14693079D01*
X13069943Y-14693079D02*
X13079467Y-14674031D01*
X13079467Y-14674031D02*
X13088991Y-14664508D01*
X13088991Y-14664508D02*
X13108039Y-14654984D01*
X13260420Y-14854984D02*
X13260420Y-14721650D01*
X13260420Y-14740698D02*
X13269943Y-14731174D01*
X13269943Y-14731174D02*
X13288991Y-14721650D01*
X13288991Y-14721650D02*
X13317563Y-14721650D01*
X13317563Y-14721650D02*
X13336610Y-14731174D01*
X13336610Y-14731174D02*
X13346134Y-14750222D01*
X13346134Y-14750222D02*
X13346134Y-14854984D01*
X13346134Y-14750222D02*
X13355658Y-14731174D01*
X13355658Y-14731174D02*
X13374705Y-14721650D01*
X13374705Y-14721650D02*
X13403277Y-14721650D01*
X13403277Y-14721650D02*
X13422324Y-14731174D01*
X13422324Y-14731174D02*
X13431848Y-14750222D01*
X13431848Y-14750222D02*
X13431848Y-14854984D01*
X13527086Y-14854984D02*
X13527086Y-14721650D01*
X13527086Y-14740698D02*
X13536610Y-14731174D01*
X13536610Y-14731174D02*
X13555658Y-14721650D01*
X13555658Y-14721650D02*
X13584229Y-14721650D01*
X13584229Y-14721650D02*
X13603277Y-14731174D01*
X13603277Y-14731174D02*
X13612801Y-14750222D01*
X13612801Y-14750222D02*
X13612801Y-14854984D01*
X13612801Y-14750222D02*
X13622324Y-14731174D01*
X13622324Y-14731174D02*
X13641372Y-14721650D01*
X13641372Y-14721650D02*
X13669943Y-14721650D01*
X13669943Y-14721650D02*
X13688991Y-14731174D01*
X13688991Y-14731174D02*
X13698515Y-14750222D01*
X13698515Y-14750222D02*
X13698515Y-14854984D01*
X14088991Y-14645460D02*
X13917563Y-14902603D01*
X14346134Y-14654984D02*
X14365182Y-14654984D01*
X14365182Y-14654984D02*
X14384229Y-14664508D01*
X14384229Y-14664508D02*
X14393753Y-14674031D01*
X14393753Y-14674031D02*
X14403277Y-14693079D01*
X14403277Y-14693079D02*
X14412801Y-14731174D01*
X14412801Y-14731174D02*
X14412801Y-14778793D01*
X14412801Y-14778793D02*
X14403277Y-14816888D01*
X14403277Y-14816888D02*
X14393753Y-14835936D01*
X14393753Y-14835936D02*
X14384229Y-14845460D01*
X14384229Y-14845460D02*
X14365182Y-14854984D01*
X14365182Y-14854984D02*
X14346134Y-14854984D01*
X14346134Y-14854984D02*
X14327086Y-14845460D01*
X14327086Y-14845460D02*
X14317563Y-14835936D01*
X14317563Y-14835936D02*
X14308039Y-14816888D01*
X14308039Y-14816888D02*
X14298515Y-14778793D01*
X14298515Y-14778793D02*
X14298515Y-14731174D01*
X14298515Y-14731174D02*
X14308039Y-14693079D01*
X14308039Y-14693079D02*
X14317563Y-14674031D01*
X14317563Y-14674031D02*
X14327086Y-14664508D01*
X14327086Y-14664508D02*
X14346134Y-14654984D01*
X14498515Y-14835936D02*
X14508039Y-14845460D01*
X14508039Y-14845460D02*
X14498515Y-14854984D01*
X14498515Y-14854984D02*
X14488991Y-14845460D01*
X14488991Y-14845460D02*
X14498515Y-14835936D01*
X14498515Y-14835936D02*
X14498515Y-14854984D01*
X14631848Y-14654984D02*
X14650896Y-14654984D01*
X14650896Y-14654984D02*
X14669944Y-14664508D01*
X14669944Y-14664508D02*
X14679467Y-14674031D01*
X14679467Y-14674031D02*
X14688991Y-14693079D01*
X14688991Y-14693079D02*
X14698515Y-14731174D01*
X14698515Y-14731174D02*
X14698515Y-14778793D01*
X14698515Y-14778793D02*
X14688991Y-14816888D01*
X14688991Y-14816888D02*
X14679467Y-14835936D01*
X14679467Y-14835936D02*
X14669944Y-14845460D01*
X14669944Y-14845460D02*
X14650896Y-14854984D01*
X14650896Y-14854984D02*
X14631848Y-14854984D01*
X14631848Y-14854984D02*
X14612801Y-14845460D01*
X14612801Y-14845460D02*
X14603277Y-14835936D01*
X14603277Y-14835936D02*
X14593753Y-14816888D01*
X14593753Y-14816888D02*
X14584229Y-14778793D01*
X14584229Y-14778793D02*
X14584229Y-14731174D01*
X14584229Y-14731174D02*
X14593753Y-14693079D01*
X14593753Y-14693079D02*
X14603277Y-14674031D01*
X14603277Y-14674031D02*
X14612801Y-14664508D01*
X14612801Y-14664508D02*
X14631848Y-14654984D01*
X14869944Y-14721650D02*
X14869944Y-14854984D01*
X14822325Y-14645460D02*
X14774706Y-14788317D01*
X14774706Y-14788317D02*
X14898515Y-14788317D01*
X14955658Y-14654984D02*
X15079467Y-14654984D01*
X15079467Y-14654984D02*
X15012801Y-14731174D01*
X15012801Y-14731174D02*
X15041372Y-14731174D01*
X15041372Y-14731174D02*
X15060420Y-14740698D01*
X15060420Y-14740698D02*
X15069944Y-14750222D01*
X15069944Y-14750222D02*
X15079467Y-14769269D01*
X15079467Y-14769269D02*
X15079467Y-14816888D01*
X15079467Y-14816888D02*
X15069944Y-14835936D01*
X15069944Y-14835936D02*
X15060420Y-14845460D01*
X15060420Y-14845460D02*
X15041372Y-14854984D01*
X15041372Y-14854984D02*
X14984229Y-14854984D01*
X14984229Y-14854984D02*
X14965182Y-14845460D01*
X14965182Y-14845460D02*
X14955658Y-14835936D01*
X15146134Y-14654984D02*
X15269944Y-14654984D01*
X15269944Y-14654984D02*
X15203277Y-14731174D01*
X15203277Y-14731174D02*
X15231848Y-14731174D01*
X15231848Y-14731174D02*
X15250896Y-14740698D01*
X15250896Y-14740698D02*
X15260420Y-14750222D01*
X15260420Y-14750222D02*
X15269944Y-14769269D01*
X15269944Y-14769269D02*
X15269944Y-14816888D01*
X15269944Y-14816888D02*
X15260420Y-14835936D01*
X15260420Y-14835936D02*
X15250896Y-14845460D01*
X15250896Y-14845460D02*
X15231848Y-14854984D01*
X15231848Y-14854984D02*
X15174706Y-14854984D01*
X15174706Y-14854984D02*
X15155658Y-14845460D01*
X15155658Y-14845460D02*
X15146134Y-14835936D01*
X15346134Y-14654984D02*
X15346134Y-14693079D01*
X15422325Y-14654984D02*
X15422325Y-14693079D01*
X15717563Y-14931174D02*
X15708039Y-14921650D01*
X15708039Y-14921650D02*
X15688991Y-14893079D01*
X15688991Y-14893079D02*
X15679468Y-14874031D01*
X15679468Y-14874031D02*
X15669944Y-14845460D01*
X15669944Y-14845460D02*
X15660420Y-14797841D01*
X15660420Y-14797841D02*
X15660420Y-14759746D01*
X15660420Y-14759746D02*
X15669944Y-14712127D01*
X15669944Y-14712127D02*
X15679468Y-14683555D01*
X15679468Y-14683555D02*
X15688991Y-14664508D01*
X15688991Y-14664508D02*
X15708039Y-14635936D01*
X15708039Y-14635936D02*
X15717563Y-14626412D01*
X15898515Y-14854984D02*
X15784229Y-14854984D01*
X15841372Y-14854984D02*
X15841372Y-14654984D01*
X15841372Y-14654984D02*
X15822325Y-14683555D01*
X15822325Y-14683555D02*
X15803277Y-14702603D01*
X15803277Y-14702603D02*
X15784229Y-14712127D01*
X15974706Y-14674031D02*
X15984229Y-14664508D01*
X15984229Y-14664508D02*
X16003277Y-14654984D01*
X16003277Y-14654984D02*
X16050896Y-14654984D01*
X16050896Y-14654984D02*
X16069944Y-14664508D01*
X16069944Y-14664508D02*
X16079468Y-14674031D01*
X16079468Y-14674031D02*
X16088991Y-14693079D01*
X16088991Y-14693079D02*
X16088991Y-14712127D01*
X16088991Y-14712127D02*
X16079468Y-14740698D01*
X16079468Y-14740698D02*
X15965182Y-14854984D01*
X15965182Y-14854984D02*
X16088991Y-14854984D01*
X16212801Y-14654984D02*
X16231849Y-14654984D01*
X16231849Y-14654984D02*
X16250896Y-14664508D01*
X16250896Y-14664508D02*
X16260420Y-14674031D01*
X16260420Y-14674031D02*
X16269944Y-14693079D01*
X16269944Y-14693079D02*
X16279468Y-14731174D01*
X16279468Y-14731174D02*
X16279468Y-14778793D01*
X16279468Y-14778793D02*
X16269944Y-14816888D01*
X16269944Y-14816888D02*
X16260420Y-14835936D01*
X16260420Y-14835936D02*
X16250896Y-14845460D01*
X16250896Y-14845460D02*
X16231849Y-14854984D01*
X16231849Y-14854984D02*
X16212801Y-14854984D01*
X16212801Y-14854984D02*
X16193753Y-14845460D01*
X16193753Y-14845460D02*
X16184229Y-14835936D01*
X16184229Y-14835936D02*
X16174706Y-14816888D01*
X16174706Y-14816888D02*
X16165182Y-14778793D01*
X16165182Y-14778793D02*
X16165182Y-14731174D01*
X16165182Y-14731174D02*
X16174706Y-14693079D01*
X16174706Y-14693079D02*
X16184229Y-14674031D01*
X16184229Y-14674031D02*
X16193753Y-14664508D01*
X16193753Y-14664508D02*
X16212801Y-14654984D01*
X16517563Y-14854984D02*
X16517563Y-14654984D01*
X16603277Y-14854984D02*
X16603277Y-14750222D01*
X16603277Y-14750222D02*
X16593753Y-14731174D01*
X16593753Y-14731174D02*
X16574706Y-14721650D01*
X16574706Y-14721650D02*
X16546134Y-14721650D01*
X16546134Y-14721650D02*
X16527087Y-14731174D01*
X16527087Y-14731174D02*
X16517563Y-14740698D01*
X16727087Y-14854984D02*
X16708039Y-14845460D01*
X16708039Y-14845460D02*
X16698515Y-14835936D01*
X16698515Y-14835936D02*
X16688991Y-14816888D01*
X16688991Y-14816888D02*
X16688991Y-14759746D01*
X16688991Y-14759746D02*
X16698515Y-14740698D01*
X16698515Y-14740698D02*
X16708039Y-14731174D01*
X16708039Y-14731174D02*
X16727087Y-14721650D01*
X16727087Y-14721650D02*
X16755658Y-14721650D01*
X16755658Y-14721650D02*
X16774706Y-14731174D01*
X16774706Y-14731174D02*
X16784230Y-14740698D01*
X16784230Y-14740698D02*
X16793753Y-14759746D01*
X16793753Y-14759746D02*
X16793753Y-14816888D01*
X16793753Y-14816888D02*
X16784230Y-14835936D01*
X16784230Y-14835936D02*
X16774706Y-14845460D01*
X16774706Y-14845460D02*
X16755658Y-14854984D01*
X16755658Y-14854984D02*
X16727087Y-14854984D01*
X16908039Y-14854984D02*
X16888992Y-14845460D01*
X16888992Y-14845460D02*
X16879468Y-14826412D01*
X16879468Y-14826412D02*
X16879468Y-14654984D01*
X17060420Y-14845460D02*
X17041373Y-14854984D01*
X17041373Y-14854984D02*
X17003277Y-14854984D01*
X17003277Y-14854984D02*
X16984230Y-14845460D01*
X16984230Y-14845460D02*
X16974706Y-14826412D01*
X16974706Y-14826412D02*
X16974706Y-14750222D01*
X16974706Y-14750222D02*
X16984230Y-14731174D01*
X16984230Y-14731174D02*
X17003277Y-14721650D01*
X17003277Y-14721650D02*
X17041373Y-14721650D01*
X17041373Y-14721650D02*
X17060420Y-14731174D01*
X17060420Y-14731174D02*
X17069944Y-14750222D01*
X17069944Y-14750222D02*
X17069944Y-14769269D01*
X17069944Y-14769269D02*
X16974706Y-14788317D01*
X17146134Y-14845460D02*
X17165182Y-14854984D01*
X17165182Y-14854984D02*
X17203277Y-14854984D01*
X17203277Y-14854984D02*
X17222325Y-14845460D01*
X17222325Y-14845460D02*
X17231849Y-14826412D01*
X17231849Y-14826412D02*
X17231849Y-14816888D01*
X17231849Y-14816888D02*
X17222325Y-14797841D01*
X17222325Y-14797841D02*
X17203277Y-14788317D01*
X17203277Y-14788317D02*
X17174706Y-14788317D01*
X17174706Y-14788317D02*
X17155658Y-14778793D01*
X17155658Y-14778793D02*
X17146134Y-14759746D01*
X17146134Y-14759746D02*
X17146134Y-14750222D01*
X17146134Y-14750222D02*
X17155658Y-14731174D01*
X17155658Y-14731174D02*
X17174706Y-14721650D01*
X17174706Y-14721650D02*
X17203277Y-14721650D01*
X17203277Y-14721650D02*
X17222325Y-14731174D01*
X17298515Y-14931174D02*
X17308039Y-14921650D01*
X17308039Y-14921650D02*
X17327087Y-14893079D01*
X17327087Y-14893079D02*
X17336611Y-14874031D01*
X17336611Y-14874031D02*
X17346134Y-14845460D01*
X17346134Y-14845460D02*
X17355658Y-14797841D01*
X17355658Y-14797841D02*
X17355658Y-14759746D01*
X17355658Y-14759746D02*
X17346134Y-14712127D01*
X17346134Y-14712127D02*
X17336611Y-14683555D01*
X17336611Y-14683555D02*
X17327087Y-14664508D01*
X17327087Y-14664508D02*
X17308039Y-14635936D01*
X17308039Y-14635936D02*
X17298515Y-14626412D01*
D15*
X12022500Y-14967500D02*
X12142500Y-15087500D01*
X12142500Y-14967500D02*
X12022500Y-15087500D01*
X12142500Y-15027500D02*
G75*
G02*
X12022500Y-15027500I-60000J0D01*
G01*
X12022500Y-15027500D02*
G75*
G02*
X12142500Y-15027500I60000J0D01*
G01*
D11*
X12508039Y-15118984D02*
X12393753Y-15118984D01*
X12450896Y-15118984D02*
X12450896Y-14918984D01*
X12450896Y-14918984D02*
X12431848Y-14947555D01*
X12431848Y-14947555D02*
X12412801Y-14966603D01*
X12412801Y-14966603D02*
X12393753Y-14976127D01*
X12593753Y-15099936D02*
X12603277Y-15109460D01*
X12603277Y-15109460D02*
X12593753Y-15118984D01*
X12593753Y-15118984D02*
X12584229Y-15109460D01*
X12584229Y-15109460D02*
X12593753Y-15099936D01*
X12593753Y-15099936D02*
X12593753Y-15118984D01*
X12679467Y-14938031D02*
X12688991Y-14928508D01*
X12688991Y-14928508D02*
X12708039Y-14918984D01*
X12708039Y-14918984D02*
X12755658Y-14918984D01*
X12755658Y-14918984D02*
X12774705Y-14928508D01*
X12774705Y-14928508D02*
X12784229Y-14938031D01*
X12784229Y-14938031D02*
X12793753Y-14957079D01*
X12793753Y-14957079D02*
X12793753Y-14976127D01*
X12793753Y-14976127D02*
X12784229Y-15004698D01*
X12784229Y-15004698D02*
X12669943Y-15118984D01*
X12669943Y-15118984D02*
X12793753Y-15118984D01*
X12917562Y-14918984D02*
X12936610Y-14918984D01*
X12936610Y-14918984D02*
X12955658Y-14928508D01*
X12955658Y-14928508D02*
X12965182Y-14938031D01*
X12965182Y-14938031D02*
X12974705Y-14957079D01*
X12974705Y-14957079D02*
X12984229Y-14995174D01*
X12984229Y-14995174D02*
X12984229Y-15042793D01*
X12984229Y-15042793D02*
X12974705Y-15080888D01*
X12974705Y-15080888D02*
X12965182Y-15099936D01*
X12965182Y-15099936D02*
X12955658Y-15109460D01*
X12955658Y-15109460D02*
X12936610Y-15118984D01*
X12936610Y-15118984D02*
X12917562Y-15118984D01*
X12917562Y-15118984D02*
X12898515Y-15109460D01*
X12898515Y-15109460D02*
X12888991Y-15099936D01*
X12888991Y-15099936D02*
X12879467Y-15080888D01*
X12879467Y-15080888D02*
X12869943Y-15042793D01*
X12869943Y-15042793D02*
X12869943Y-14995174D01*
X12869943Y-14995174D02*
X12879467Y-14957079D01*
X12879467Y-14957079D02*
X12888991Y-14938031D01*
X12888991Y-14938031D02*
X12898515Y-14928508D01*
X12898515Y-14928508D02*
X12917562Y-14918984D01*
X13108039Y-14918984D02*
X13127086Y-14918984D01*
X13127086Y-14918984D02*
X13146134Y-14928508D01*
X13146134Y-14928508D02*
X13155658Y-14938031D01*
X13155658Y-14938031D02*
X13165182Y-14957079D01*
X13165182Y-14957079D02*
X13174705Y-14995174D01*
X13174705Y-14995174D02*
X13174705Y-15042793D01*
X13174705Y-15042793D02*
X13165182Y-15080888D01*
X13165182Y-15080888D02*
X13155658Y-15099936D01*
X13155658Y-15099936D02*
X13146134Y-15109460D01*
X13146134Y-15109460D02*
X13127086Y-15118984D01*
X13127086Y-15118984D02*
X13108039Y-15118984D01*
X13108039Y-15118984D02*
X13088991Y-15109460D01*
X13088991Y-15109460D02*
X13079467Y-15099936D01*
X13079467Y-15099936D02*
X13069943Y-15080888D01*
X13069943Y-15080888D02*
X13060420Y-15042793D01*
X13060420Y-15042793D02*
X13060420Y-14995174D01*
X13060420Y-14995174D02*
X13069943Y-14957079D01*
X13069943Y-14957079D02*
X13079467Y-14938031D01*
X13079467Y-14938031D02*
X13088991Y-14928508D01*
X13088991Y-14928508D02*
X13108039Y-14918984D01*
X13260420Y-15118984D02*
X13260420Y-14985650D01*
X13260420Y-15004698D02*
X13269943Y-14995174D01*
X13269943Y-14995174D02*
X13288991Y-14985650D01*
X13288991Y-14985650D02*
X13317563Y-14985650D01*
X13317563Y-14985650D02*
X13336610Y-14995174D01*
X13336610Y-14995174D02*
X13346134Y-15014222D01*
X13346134Y-15014222D02*
X13346134Y-15118984D01*
X13346134Y-15014222D02*
X13355658Y-14995174D01*
X13355658Y-14995174D02*
X13374705Y-14985650D01*
X13374705Y-14985650D02*
X13403277Y-14985650D01*
X13403277Y-14985650D02*
X13422324Y-14995174D01*
X13422324Y-14995174D02*
X13431848Y-15014222D01*
X13431848Y-15014222D02*
X13431848Y-15118984D01*
X13527086Y-15118984D02*
X13527086Y-14985650D01*
X13527086Y-15004698D02*
X13536610Y-14995174D01*
X13536610Y-14995174D02*
X13555658Y-14985650D01*
X13555658Y-14985650D02*
X13584229Y-14985650D01*
X13584229Y-14985650D02*
X13603277Y-14995174D01*
X13603277Y-14995174D02*
X13612801Y-15014222D01*
X13612801Y-15014222D02*
X13612801Y-15118984D01*
X13612801Y-15014222D02*
X13622324Y-14995174D01*
X13622324Y-14995174D02*
X13641372Y-14985650D01*
X13641372Y-14985650D02*
X13669943Y-14985650D01*
X13669943Y-14985650D02*
X13688991Y-14995174D01*
X13688991Y-14995174D02*
X13698515Y-15014222D01*
X13698515Y-15014222D02*
X13698515Y-15118984D01*
X14088991Y-14909460D02*
X13917563Y-15166603D01*
X14346134Y-14918984D02*
X14365182Y-14918984D01*
X14365182Y-14918984D02*
X14384229Y-14928508D01*
X14384229Y-14928508D02*
X14393753Y-14938031D01*
X14393753Y-14938031D02*
X14403277Y-14957079D01*
X14403277Y-14957079D02*
X14412801Y-14995174D01*
X14412801Y-14995174D02*
X14412801Y-15042793D01*
X14412801Y-15042793D02*
X14403277Y-15080888D01*
X14403277Y-15080888D02*
X14393753Y-15099936D01*
X14393753Y-15099936D02*
X14384229Y-15109460D01*
X14384229Y-15109460D02*
X14365182Y-15118984D01*
X14365182Y-15118984D02*
X14346134Y-15118984D01*
X14346134Y-15118984D02*
X14327086Y-15109460D01*
X14327086Y-15109460D02*
X14317563Y-15099936D01*
X14317563Y-15099936D02*
X14308039Y-15080888D01*
X14308039Y-15080888D02*
X14298515Y-15042793D01*
X14298515Y-15042793D02*
X14298515Y-14995174D01*
X14298515Y-14995174D02*
X14308039Y-14957079D01*
X14308039Y-14957079D02*
X14317563Y-14938031D01*
X14317563Y-14938031D02*
X14327086Y-14928508D01*
X14327086Y-14928508D02*
X14346134Y-14918984D01*
X14498515Y-15099936D02*
X14508039Y-15109460D01*
X14508039Y-15109460D02*
X14498515Y-15118984D01*
X14498515Y-15118984D02*
X14488991Y-15109460D01*
X14488991Y-15109460D02*
X14498515Y-15099936D01*
X14498515Y-15099936D02*
X14498515Y-15118984D01*
X14631848Y-14918984D02*
X14650896Y-14918984D01*
X14650896Y-14918984D02*
X14669944Y-14928508D01*
X14669944Y-14928508D02*
X14679467Y-14938031D01*
X14679467Y-14938031D02*
X14688991Y-14957079D01*
X14688991Y-14957079D02*
X14698515Y-14995174D01*
X14698515Y-14995174D02*
X14698515Y-15042793D01*
X14698515Y-15042793D02*
X14688991Y-15080888D01*
X14688991Y-15080888D02*
X14679467Y-15099936D01*
X14679467Y-15099936D02*
X14669944Y-15109460D01*
X14669944Y-15109460D02*
X14650896Y-15118984D01*
X14650896Y-15118984D02*
X14631848Y-15118984D01*
X14631848Y-15118984D02*
X14612801Y-15109460D01*
X14612801Y-15109460D02*
X14603277Y-15099936D01*
X14603277Y-15099936D02*
X14593753Y-15080888D01*
X14593753Y-15080888D02*
X14584229Y-15042793D01*
X14584229Y-15042793D02*
X14584229Y-14995174D01*
X14584229Y-14995174D02*
X14593753Y-14957079D01*
X14593753Y-14957079D02*
X14603277Y-14938031D01*
X14603277Y-14938031D02*
X14612801Y-14928508D01*
X14612801Y-14928508D02*
X14631848Y-14918984D01*
X14869944Y-14985650D02*
X14869944Y-15118984D01*
X14822325Y-14909460D02*
X14774706Y-15052317D01*
X14774706Y-15052317D02*
X14898515Y-15052317D01*
X14955658Y-14918984D02*
X15088991Y-14918984D01*
X15088991Y-14918984D02*
X15003277Y-15118984D01*
X15155658Y-14938031D02*
X15165182Y-14928508D01*
X15165182Y-14928508D02*
X15184229Y-14918984D01*
X15184229Y-14918984D02*
X15231848Y-14918984D01*
X15231848Y-14918984D02*
X15250896Y-14928508D01*
X15250896Y-14928508D02*
X15260420Y-14938031D01*
X15260420Y-14938031D02*
X15269944Y-14957079D01*
X15269944Y-14957079D02*
X15269944Y-14976127D01*
X15269944Y-14976127D02*
X15260420Y-15004698D01*
X15260420Y-15004698D02*
X15146134Y-15118984D01*
X15146134Y-15118984D02*
X15269944Y-15118984D01*
X15346134Y-14918984D02*
X15346134Y-14957079D01*
X15422325Y-14918984D02*
X15422325Y-14957079D01*
X15717563Y-15195174D02*
X15708039Y-15185650D01*
X15708039Y-15185650D02*
X15688991Y-15157079D01*
X15688991Y-15157079D02*
X15679468Y-15138031D01*
X15679468Y-15138031D02*
X15669944Y-15109460D01*
X15669944Y-15109460D02*
X15660420Y-15061841D01*
X15660420Y-15061841D02*
X15660420Y-15023746D01*
X15660420Y-15023746D02*
X15669944Y-14976127D01*
X15669944Y-14976127D02*
X15679468Y-14947555D01*
X15679468Y-14947555D02*
X15688991Y-14928508D01*
X15688991Y-14928508D02*
X15708039Y-14899936D01*
X15708039Y-14899936D02*
X15717563Y-14890412D01*
X15898515Y-15118984D02*
X15784229Y-15118984D01*
X15841372Y-15118984D02*
X15841372Y-14918984D01*
X15841372Y-14918984D02*
X15822325Y-14947555D01*
X15822325Y-14947555D02*
X15803277Y-14966603D01*
X15803277Y-14966603D02*
X15784229Y-14976127D01*
X16069944Y-14985650D02*
X16069944Y-15118984D01*
X16022325Y-14909460D02*
X15974706Y-15052317D01*
X15974706Y-15052317D02*
X16098515Y-15052317D01*
X16212801Y-14918984D02*
X16231849Y-14918984D01*
X16231849Y-14918984D02*
X16250896Y-14928508D01*
X16250896Y-14928508D02*
X16260420Y-14938031D01*
X16260420Y-14938031D02*
X16269944Y-14957079D01*
X16269944Y-14957079D02*
X16279468Y-14995174D01*
X16279468Y-14995174D02*
X16279468Y-15042793D01*
X16279468Y-15042793D02*
X16269944Y-15080888D01*
X16269944Y-15080888D02*
X16260420Y-15099936D01*
X16260420Y-15099936D02*
X16250896Y-15109460D01*
X16250896Y-15109460D02*
X16231849Y-15118984D01*
X16231849Y-15118984D02*
X16212801Y-15118984D01*
X16212801Y-15118984D02*
X16193753Y-15109460D01*
X16193753Y-15109460D02*
X16184229Y-15099936D01*
X16184229Y-15099936D02*
X16174706Y-15080888D01*
X16174706Y-15080888D02*
X16165182Y-15042793D01*
X16165182Y-15042793D02*
X16165182Y-14995174D01*
X16165182Y-14995174D02*
X16174706Y-14957079D01*
X16174706Y-14957079D02*
X16184229Y-14938031D01*
X16184229Y-14938031D02*
X16193753Y-14928508D01*
X16193753Y-14928508D02*
X16212801Y-14918984D01*
X16517563Y-15118984D02*
X16517563Y-14918984D01*
X16603277Y-15118984D02*
X16603277Y-15014222D01*
X16603277Y-15014222D02*
X16593753Y-14995174D01*
X16593753Y-14995174D02*
X16574706Y-14985650D01*
X16574706Y-14985650D02*
X16546134Y-14985650D01*
X16546134Y-14985650D02*
X16527087Y-14995174D01*
X16527087Y-14995174D02*
X16517563Y-15004698D01*
X16727087Y-15118984D02*
X16708039Y-15109460D01*
X16708039Y-15109460D02*
X16698515Y-15099936D01*
X16698515Y-15099936D02*
X16688991Y-15080888D01*
X16688991Y-15080888D02*
X16688991Y-15023746D01*
X16688991Y-15023746D02*
X16698515Y-15004698D01*
X16698515Y-15004698D02*
X16708039Y-14995174D01*
X16708039Y-14995174D02*
X16727087Y-14985650D01*
X16727087Y-14985650D02*
X16755658Y-14985650D01*
X16755658Y-14985650D02*
X16774706Y-14995174D01*
X16774706Y-14995174D02*
X16784230Y-15004698D01*
X16784230Y-15004698D02*
X16793753Y-15023746D01*
X16793753Y-15023746D02*
X16793753Y-15080888D01*
X16793753Y-15080888D02*
X16784230Y-15099936D01*
X16784230Y-15099936D02*
X16774706Y-15109460D01*
X16774706Y-15109460D02*
X16755658Y-15118984D01*
X16755658Y-15118984D02*
X16727087Y-15118984D01*
X16908039Y-15118984D02*
X16888992Y-15109460D01*
X16888992Y-15109460D02*
X16879468Y-15090412D01*
X16879468Y-15090412D02*
X16879468Y-14918984D01*
X17060420Y-15109460D02*
X17041373Y-15118984D01*
X17041373Y-15118984D02*
X17003277Y-15118984D01*
X17003277Y-15118984D02*
X16984230Y-15109460D01*
X16984230Y-15109460D02*
X16974706Y-15090412D01*
X16974706Y-15090412D02*
X16974706Y-15014222D01*
X16974706Y-15014222D02*
X16984230Y-14995174D01*
X16984230Y-14995174D02*
X17003277Y-14985650D01*
X17003277Y-14985650D02*
X17041373Y-14985650D01*
X17041373Y-14985650D02*
X17060420Y-14995174D01*
X17060420Y-14995174D02*
X17069944Y-15014222D01*
X17069944Y-15014222D02*
X17069944Y-15033269D01*
X17069944Y-15033269D02*
X16974706Y-15052317D01*
X17146134Y-15109460D02*
X17165182Y-15118984D01*
X17165182Y-15118984D02*
X17203277Y-15118984D01*
X17203277Y-15118984D02*
X17222325Y-15109460D01*
X17222325Y-15109460D02*
X17231849Y-15090412D01*
X17231849Y-15090412D02*
X17231849Y-15080888D01*
X17231849Y-15080888D02*
X17222325Y-15061841D01*
X17222325Y-15061841D02*
X17203277Y-15052317D01*
X17203277Y-15052317D02*
X17174706Y-15052317D01*
X17174706Y-15052317D02*
X17155658Y-15042793D01*
X17155658Y-15042793D02*
X17146134Y-15023746D01*
X17146134Y-15023746D02*
X17146134Y-15014222D01*
X17146134Y-15014222D02*
X17155658Y-14995174D01*
X17155658Y-14995174D02*
X17174706Y-14985650D01*
X17174706Y-14985650D02*
X17203277Y-14985650D01*
X17203277Y-14985650D02*
X17222325Y-14995174D01*
X17298515Y-15195174D02*
X17308039Y-15185650D01*
X17308039Y-15185650D02*
X17327087Y-15157079D01*
X17327087Y-15157079D02*
X17336611Y-15138031D01*
X17336611Y-15138031D02*
X17346134Y-15109460D01*
X17346134Y-15109460D02*
X17355658Y-15061841D01*
X17355658Y-15061841D02*
X17355658Y-15023746D01*
X17355658Y-15023746D02*
X17346134Y-14976127D01*
X17346134Y-14976127D02*
X17336611Y-14947555D01*
X17336611Y-14947555D02*
X17327087Y-14928508D01*
X17327087Y-14928508D02*
X17308039Y-14899936D01*
X17308039Y-14899936D02*
X17298515Y-14890412D01*
X11942500Y-15191500D02*
X12142500Y-15391500D01*
X12142500Y-15191500D02*
X11942500Y-15391500D01*
X12042500Y-15191500D02*
X12042500Y-15391500D01*
X11942500Y-15291500D02*
X12142500Y-15291500D01*
X12393753Y-15202031D02*
X12403277Y-15192508D01*
X12403277Y-15192508D02*
X12422324Y-15182984D01*
X12422324Y-15182984D02*
X12469943Y-15182984D01*
X12469943Y-15182984D02*
X12488991Y-15192508D01*
X12488991Y-15192508D02*
X12498515Y-15202031D01*
X12498515Y-15202031D02*
X12508039Y-15221079D01*
X12508039Y-15221079D02*
X12508039Y-15240127D01*
X12508039Y-15240127D02*
X12498515Y-15268698D01*
X12498515Y-15268698D02*
X12384229Y-15382984D01*
X12384229Y-15382984D02*
X12508039Y-15382984D01*
X12593753Y-15363936D02*
X12603277Y-15373460D01*
X12603277Y-15373460D02*
X12593753Y-15382984D01*
X12593753Y-15382984D02*
X12584229Y-15373460D01*
X12584229Y-15373460D02*
X12593753Y-15363936D01*
X12593753Y-15363936D02*
X12593753Y-15382984D01*
X12727086Y-15182984D02*
X12746134Y-15182984D01*
X12746134Y-15182984D02*
X12765182Y-15192508D01*
X12765182Y-15192508D02*
X12774705Y-15202031D01*
X12774705Y-15202031D02*
X12784229Y-15221079D01*
X12784229Y-15221079D02*
X12793753Y-15259174D01*
X12793753Y-15259174D02*
X12793753Y-15306793D01*
X12793753Y-15306793D02*
X12784229Y-15344888D01*
X12784229Y-15344888D02*
X12774705Y-15363936D01*
X12774705Y-15363936D02*
X12765182Y-15373460D01*
X12765182Y-15373460D02*
X12746134Y-15382984D01*
X12746134Y-15382984D02*
X12727086Y-15382984D01*
X12727086Y-15382984D02*
X12708039Y-15373460D01*
X12708039Y-15373460D02*
X12698515Y-15363936D01*
X12698515Y-15363936D02*
X12688991Y-15344888D01*
X12688991Y-15344888D02*
X12679467Y-15306793D01*
X12679467Y-15306793D02*
X12679467Y-15259174D01*
X12679467Y-15259174D02*
X12688991Y-15221079D01*
X12688991Y-15221079D02*
X12698515Y-15202031D01*
X12698515Y-15202031D02*
X12708039Y-15192508D01*
X12708039Y-15192508D02*
X12727086Y-15182984D01*
X12917562Y-15182984D02*
X12936610Y-15182984D01*
X12936610Y-15182984D02*
X12955658Y-15192508D01*
X12955658Y-15192508D02*
X12965182Y-15202031D01*
X12965182Y-15202031D02*
X12974705Y-15221079D01*
X12974705Y-15221079D02*
X12984229Y-15259174D01*
X12984229Y-15259174D02*
X12984229Y-15306793D01*
X12984229Y-15306793D02*
X12974705Y-15344888D01*
X12974705Y-15344888D02*
X12965182Y-15363936D01*
X12965182Y-15363936D02*
X12955658Y-15373460D01*
X12955658Y-15373460D02*
X12936610Y-15382984D01*
X12936610Y-15382984D02*
X12917562Y-15382984D01*
X12917562Y-15382984D02*
X12898515Y-15373460D01*
X12898515Y-15373460D02*
X12888991Y-15363936D01*
X12888991Y-15363936D02*
X12879467Y-15344888D01*
X12879467Y-15344888D02*
X12869943Y-15306793D01*
X12869943Y-15306793D02*
X12869943Y-15259174D01*
X12869943Y-15259174D02*
X12879467Y-15221079D01*
X12879467Y-15221079D02*
X12888991Y-15202031D01*
X12888991Y-15202031D02*
X12898515Y-15192508D01*
X12898515Y-15192508D02*
X12917562Y-15182984D01*
X13108039Y-15182984D02*
X13127086Y-15182984D01*
X13127086Y-15182984D02*
X13146134Y-15192508D01*
X13146134Y-15192508D02*
X13155658Y-15202031D01*
X13155658Y-15202031D02*
X13165182Y-15221079D01*
X13165182Y-15221079D02*
X13174705Y-15259174D01*
X13174705Y-15259174D02*
X13174705Y-15306793D01*
X13174705Y-15306793D02*
X13165182Y-15344888D01*
X13165182Y-15344888D02*
X13155658Y-15363936D01*
X13155658Y-15363936D02*
X13146134Y-15373460D01*
X13146134Y-15373460D02*
X13127086Y-15382984D01*
X13127086Y-15382984D02*
X13108039Y-15382984D01*
X13108039Y-15382984D02*
X13088991Y-15373460D01*
X13088991Y-15373460D02*
X13079467Y-15363936D01*
X13079467Y-15363936D02*
X13069943Y-15344888D01*
X13069943Y-15344888D02*
X13060420Y-15306793D01*
X13060420Y-15306793D02*
X13060420Y-15259174D01*
X13060420Y-15259174D02*
X13069943Y-15221079D01*
X13069943Y-15221079D02*
X13079467Y-15202031D01*
X13079467Y-15202031D02*
X13088991Y-15192508D01*
X13088991Y-15192508D02*
X13108039Y-15182984D01*
X13260420Y-15382984D02*
X13260420Y-15249650D01*
X13260420Y-15268698D02*
X13269943Y-15259174D01*
X13269943Y-15259174D02*
X13288991Y-15249650D01*
X13288991Y-15249650D02*
X13317563Y-15249650D01*
X13317563Y-15249650D02*
X13336610Y-15259174D01*
X13336610Y-15259174D02*
X13346134Y-15278222D01*
X13346134Y-15278222D02*
X13346134Y-15382984D01*
X13346134Y-15278222D02*
X13355658Y-15259174D01*
X13355658Y-15259174D02*
X13374705Y-15249650D01*
X13374705Y-15249650D02*
X13403277Y-15249650D01*
X13403277Y-15249650D02*
X13422324Y-15259174D01*
X13422324Y-15259174D02*
X13431848Y-15278222D01*
X13431848Y-15278222D02*
X13431848Y-15382984D01*
X13527086Y-15382984D02*
X13527086Y-15249650D01*
X13527086Y-15268698D02*
X13536610Y-15259174D01*
X13536610Y-15259174D02*
X13555658Y-15249650D01*
X13555658Y-15249650D02*
X13584229Y-15249650D01*
X13584229Y-15249650D02*
X13603277Y-15259174D01*
X13603277Y-15259174D02*
X13612801Y-15278222D01*
X13612801Y-15278222D02*
X13612801Y-15382984D01*
X13612801Y-15278222D02*
X13622324Y-15259174D01*
X13622324Y-15259174D02*
X13641372Y-15249650D01*
X13641372Y-15249650D02*
X13669943Y-15249650D01*
X13669943Y-15249650D02*
X13688991Y-15259174D01*
X13688991Y-15259174D02*
X13698515Y-15278222D01*
X13698515Y-15278222D02*
X13698515Y-15382984D01*
X14088991Y-15173460D02*
X13917563Y-15430603D01*
X14346134Y-15182984D02*
X14365182Y-15182984D01*
X14365182Y-15182984D02*
X14384229Y-15192508D01*
X14384229Y-15192508D02*
X14393753Y-15202031D01*
X14393753Y-15202031D02*
X14403277Y-15221079D01*
X14403277Y-15221079D02*
X14412801Y-15259174D01*
X14412801Y-15259174D02*
X14412801Y-15306793D01*
X14412801Y-15306793D02*
X14403277Y-15344888D01*
X14403277Y-15344888D02*
X14393753Y-15363936D01*
X14393753Y-15363936D02*
X14384229Y-15373460D01*
X14384229Y-15373460D02*
X14365182Y-15382984D01*
X14365182Y-15382984D02*
X14346134Y-15382984D01*
X14346134Y-15382984D02*
X14327086Y-15373460D01*
X14327086Y-15373460D02*
X14317563Y-15363936D01*
X14317563Y-15363936D02*
X14308039Y-15344888D01*
X14308039Y-15344888D02*
X14298515Y-15306793D01*
X14298515Y-15306793D02*
X14298515Y-15259174D01*
X14298515Y-15259174D02*
X14308039Y-15221079D01*
X14308039Y-15221079D02*
X14317563Y-15202031D01*
X14317563Y-15202031D02*
X14327086Y-15192508D01*
X14327086Y-15192508D02*
X14346134Y-15182984D01*
X14498515Y-15363936D02*
X14508039Y-15373460D01*
X14508039Y-15373460D02*
X14498515Y-15382984D01*
X14498515Y-15382984D02*
X14488991Y-15373460D01*
X14488991Y-15373460D02*
X14498515Y-15363936D01*
X14498515Y-15363936D02*
X14498515Y-15382984D01*
X14631848Y-15182984D02*
X14650896Y-15182984D01*
X14650896Y-15182984D02*
X14669944Y-15192508D01*
X14669944Y-15192508D02*
X14679467Y-15202031D01*
X14679467Y-15202031D02*
X14688991Y-15221079D01*
X14688991Y-15221079D02*
X14698515Y-15259174D01*
X14698515Y-15259174D02*
X14698515Y-15306793D01*
X14698515Y-15306793D02*
X14688991Y-15344888D01*
X14688991Y-15344888D02*
X14679467Y-15363936D01*
X14679467Y-15363936D02*
X14669944Y-15373460D01*
X14669944Y-15373460D02*
X14650896Y-15382984D01*
X14650896Y-15382984D02*
X14631848Y-15382984D01*
X14631848Y-15382984D02*
X14612801Y-15373460D01*
X14612801Y-15373460D02*
X14603277Y-15363936D01*
X14603277Y-15363936D02*
X14593753Y-15344888D01*
X14593753Y-15344888D02*
X14584229Y-15306793D01*
X14584229Y-15306793D02*
X14584229Y-15259174D01*
X14584229Y-15259174D02*
X14593753Y-15221079D01*
X14593753Y-15221079D02*
X14603277Y-15202031D01*
X14603277Y-15202031D02*
X14612801Y-15192508D01*
X14612801Y-15192508D02*
X14631848Y-15182984D01*
X14765182Y-15182984D02*
X14898515Y-15182984D01*
X14898515Y-15182984D02*
X14812801Y-15382984D01*
X15003277Y-15268698D02*
X14984229Y-15259174D01*
X14984229Y-15259174D02*
X14974706Y-15249650D01*
X14974706Y-15249650D02*
X14965182Y-15230603D01*
X14965182Y-15230603D02*
X14965182Y-15221079D01*
X14965182Y-15221079D02*
X14974706Y-15202031D01*
X14974706Y-15202031D02*
X14984229Y-15192508D01*
X14984229Y-15192508D02*
X15003277Y-15182984D01*
X15003277Y-15182984D02*
X15041372Y-15182984D01*
X15041372Y-15182984D02*
X15060420Y-15192508D01*
X15060420Y-15192508D02*
X15069944Y-15202031D01*
X15069944Y-15202031D02*
X15079467Y-15221079D01*
X15079467Y-15221079D02*
X15079467Y-15230603D01*
X15079467Y-15230603D02*
X15069944Y-15249650D01*
X15069944Y-15249650D02*
X15060420Y-15259174D01*
X15060420Y-15259174D02*
X15041372Y-15268698D01*
X15041372Y-15268698D02*
X15003277Y-15268698D01*
X15003277Y-15268698D02*
X14984229Y-15278222D01*
X14984229Y-15278222D02*
X14974706Y-15287746D01*
X14974706Y-15287746D02*
X14965182Y-15306793D01*
X14965182Y-15306793D02*
X14965182Y-15344888D01*
X14965182Y-15344888D02*
X14974706Y-15363936D01*
X14974706Y-15363936D02*
X14984229Y-15373460D01*
X14984229Y-15373460D02*
X15003277Y-15382984D01*
X15003277Y-15382984D02*
X15041372Y-15382984D01*
X15041372Y-15382984D02*
X15060420Y-15373460D01*
X15060420Y-15373460D02*
X15069944Y-15363936D01*
X15069944Y-15363936D02*
X15079467Y-15344888D01*
X15079467Y-15344888D02*
X15079467Y-15306793D01*
X15079467Y-15306793D02*
X15069944Y-15287746D01*
X15069944Y-15287746D02*
X15060420Y-15278222D01*
X15060420Y-15278222D02*
X15041372Y-15268698D01*
X15146134Y-15182984D02*
X15279467Y-15182984D01*
X15279467Y-15182984D02*
X15193753Y-15382984D01*
X15346134Y-15182984D02*
X15346134Y-15221079D01*
X15422325Y-15182984D02*
X15422325Y-15221079D01*
X15717563Y-15459174D02*
X15708039Y-15449650D01*
X15708039Y-15449650D02*
X15688991Y-15421079D01*
X15688991Y-15421079D02*
X15679468Y-15402031D01*
X15679468Y-15402031D02*
X15669944Y-15373460D01*
X15669944Y-15373460D02*
X15660420Y-15325841D01*
X15660420Y-15325841D02*
X15660420Y-15287746D01*
X15660420Y-15287746D02*
X15669944Y-15240127D01*
X15669944Y-15240127D02*
X15679468Y-15211555D01*
X15679468Y-15211555D02*
X15688991Y-15192508D01*
X15688991Y-15192508D02*
X15708039Y-15163936D01*
X15708039Y-15163936D02*
X15717563Y-15154412D01*
X15774706Y-15182984D02*
X15898515Y-15182984D01*
X15898515Y-15182984D02*
X15831848Y-15259174D01*
X15831848Y-15259174D02*
X15860420Y-15259174D01*
X15860420Y-15259174D02*
X15879468Y-15268698D01*
X15879468Y-15268698D02*
X15888991Y-15278222D01*
X15888991Y-15278222D02*
X15898515Y-15297269D01*
X15898515Y-15297269D02*
X15898515Y-15344888D01*
X15898515Y-15344888D02*
X15888991Y-15363936D01*
X15888991Y-15363936D02*
X15879468Y-15373460D01*
X15879468Y-15373460D02*
X15860420Y-15382984D01*
X15860420Y-15382984D02*
X15803277Y-15382984D01*
X15803277Y-15382984D02*
X15784229Y-15373460D01*
X15784229Y-15373460D02*
X15774706Y-15363936D01*
X15993753Y-15382984D02*
X16031848Y-15382984D01*
X16031848Y-15382984D02*
X16050896Y-15373460D01*
X16050896Y-15373460D02*
X16060420Y-15363936D01*
X16060420Y-15363936D02*
X16079468Y-15335365D01*
X16079468Y-15335365D02*
X16088991Y-15297269D01*
X16088991Y-15297269D02*
X16088991Y-15221079D01*
X16088991Y-15221079D02*
X16079468Y-15202031D01*
X16079468Y-15202031D02*
X16069944Y-15192508D01*
X16069944Y-15192508D02*
X16050896Y-15182984D01*
X16050896Y-15182984D02*
X16012801Y-15182984D01*
X16012801Y-15182984D02*
X15993753Y-15192508D01*
X15993753Y-15192508D02*
X15984229Y-15202031D01*
X15984229Y-15202031D02*
X15974706Y-15221079D01*
X15974706Y-15221079D02*
X15974706Y-15268698D01*
X15974706Y-15268698D02*
X15984229Y-15287746D01*
X15984229Y-15287746D02*
X15993753Y-15297269D01*
X15993753Y-15297269D02*
X16012801Y-15306793D01*
X16012801Y-15306793D02*
X16050896Y-15306793D01*
X16050896Y-15306793D02*
X16069944Y-15297269D01*
X16069944Y-15297269D02*
X16079468Y-15287746D01*
X16079468Y-15287746D02*
X16088991Y-15268698D01*
X16327087Y-15382984D02*
X16327087Y-15182984D01*
X16412801Y-15382984D02*
X16412801Y-15278222D01*
X16412801Y-15278222D02*
X16403277Y-15259174D01*
X16403277Y-15259174D02*
X16384230Y-15249650D01*
X16384230Y-15249650D02*
X16355658Y-15249650D01*
X16355658Y-15249650D02*
X16336610Y-15259174D01*
X16336610Y-15259174D02*
X16327087Y-15268698D01*
X16536610Y-15382984D02*
X16517563Y-15373460D01*
X16517563Y-15373460D02*
X16508039Y-15363936D01*
X16508039Y-15363936D02*
X16498515Y-15344888D01*
X16498515Y-15344888D02*
X16498515Y-15287746D01*
X16498515Y-15287746D02*
X16508039Y-15268698D01*
X16508039Y-15268698D02*
X16517563Y-15259174D01*
X16517563Y-15259174D02*
X16536610Y-15249650D01*
X16536610Y-15249650D02*
X16565182Y-15249650D01*
X16565182Y-15249650D02*
X16584230Y-15259174D01*
X16584230Y-15259174D02*
X16593753Y-15268698D01*
X16593753Y-15268698D02*
X16603277Y-15287746D01*
X16603277Y-15287746D02*
X16603277Y-15344888D01*
X16603277Y-15344888D02*
X16593753Y-15363936D01*
X16593753Y-15363936D02*
X16584230Y-15373460D01*
X16584230Y-15373460D02*
X16565182Y-15382984D01*
X16565182Y-15382984D02*
X16536610Y-15382984D01*
X16717563Y-15382984D02*
X16698515Y-15373460D01*
X16698515Y-15373460D02*
X16688991Y-15354412D01*
X16688991Y-15354412D02*
X16688991Y-15182984D01*
X16869944Y-15373460D02*
X16850896Y-15382984D01*
X16850896Y-15382984D02*
X16812801Y-15382984D01*
X16812801Y-15382984D02*
X16793753Y-15373460D01*
X16793753Y-15373460D02*
X16784230Y-15354412D01*
X16784230Y-15354412D02*
X16784230Y-15278222D01*
X16784230Y-15278222D02*
X16793753Y-15259174D01*
X16793753Y-15259174D02*
X16812801Y-15249650D01*
X16812801Y-15249650D02*
X16850896Y-15249650D01*
X16850896Y-15249650D02*
X16869944Y-15259174D01*
X16869944Y-15259174D02*
X16879468Y-15278222D01*
X16879468Y-15278222D02*
X16879468Y-15297269D01*
X16879468Y-15297269D02*
X16784230Y-15316317D01*
X16955658Y-15373460D02*
X16974706Y-15382984D01*
X16974706Y-15382984D02*
X17012801Y-15382984D01*
X17012801Y-15382984D02*
X17031849Y-15373460D01*
X17031849Y-15373460D02*
X17041373Y-15354412D01*
X17041373Y-15354412D02*
X17041373Y-15344888D01*
X17041373Y-15344888D02*
X17031849Y-15325841D01*
X17031849Y-15325841D02*
X17012801Y-15316317D01*
X17012801Y-15316317D02*
X16984230Y-15316317D01*
X16984230Y-15316317D02*
X16965182Y-15306793D01*
X16965182Y-15306793D02*
X16955658Y-15287746D01*
X16955658Y-15287746D02*
X16955658Y-15278222D01*
X16955658Y-15278222D02*
X16965182Y-15259174D01*
X16965182Y-15259174D02*
X16984230Y-15249650D01*
X16984230Y-15249650D02*
X17012801Y-15249650D01*
X17012801Y-15249650D02*
X17031849Y-15259174D01*
X17108039Y-15459174D02*
X17117563Y-15449650D01*
X17117563Y-15449650D02*
X17136611Y-15421079D01*
X17136611Y-15421079D02*
X17146134Y-15402031D01*
X17146134Y-15402031D02*
X17155658Y-15373460D01*
X17155658Y-15373460D02*
X17165182Y-15325841D01*
X17165182Y-15325841D02*
X17165182Y-15287746D01*
X17165182Y-15287746D02*
X17155658Y-15240127D01*
X17155658Y-15240127D02*
X17146134Y-15211555D01*
X17146134Y-15211555D02*
X17136611Y-15192508D01*
X17136611Y-15192508D02*
X17117563Y-15163936D01*
X17117563Y-15163936D02*
X17108039Y-15154412D01*
M02*
